<svg width="239" height="167" viewBox="0 0 239 167" fill="none" xmlns="http://www.w3.org/2000/svg">
<g opacity="0.3">
<path opacity="0.3" d="M238.934 137.146V128.437L236.544 127.095C235.864 131.197 231.026 133.919 226.965 134.482L199.432 150.598L187.423 154.933L149.048 135.124L149.941 134.619C146.658 133.083 144.889 129.584 143.121 126.376L140.537 127.912L139.002 128.359V137.282C139.104 138.296 139.469 139.266 140.062 140.095C140.656 140.924 141.456 141.583 142.383 142.006L180.875 164.206C183.407 165.481 186.202 166.146 189.036 166.146C191.871 166.146 194.666 165.481 197.197 164.206L235.631 142.006C236.542 141.588 237.329 140.943 237.918 140.133C238.507 139.323 238.877 138.374 238.993 137.379C239.002 137.302 239.002 137.223 238.993 137.146H238.934Z" fill="url(#paint0_linear)"/>
<path opacity="0.3" d="M226.964 134.482L199.431 150.598L188.977 154.37V166.15C191.819 166.209 194.628 165.54 197.138 164.206L235.572 142.006C236.483 141.588 237.27 140.943 237.859 140.133C238.448 139.323 238.818 138.374 238.934 137.379C238.944 137.302 238.944 137.223 238.934 137.146V128.437L236.738 127.212H236.505C235.767 131.255 230.987 133.841 226.964 134.482Z" fill="#0F054C"/>
<path opacity="0.3" d="M180.876 155.342L142.442 133.141C137.934 130.556 137.934 126.318 142.442 123.713L180.876 101.512C183.407 100.237 186.202 99.5728 189.037 99.5728C191.871 99.5728 194.666 100.237 197.198 101.512L235.632 123.713C240.12 126.318 240.12 130.556 235.632 133.141L197.198 155.342C194.669 156.626 191.873 157.295 189.037 157.295C186.201 157.295 183.405 156.626 180.876 155.342Z" fill="url(#paint1_linear)"/>
<g opacity="0.3">
<path opacity="0.3" d="M180.876 155.342L142.442 133.141C137.934 130.556 137.934 126.318 142.442 123.713L180.876 101.512C183.407 100.237 186.202 99.5728 189.037 99.5728C191.871 99.5728 194.666 100.237 197.198 101.512L235.632 123.713C240.12 126.318 240.12 130.556 235.632 133.141L197.198 155.342C194.669 156.626 191.873 157.295 189.037 157.295C186.201 157.295 183.405 156.626 180.876 155.342Z" fill="#0F054C"/>
</g>
</g>
<path d="M188.977 127.29C186.454 127.335 183.96 126.74 181.73 125.56L143.296 103.359C142.388 103.04 141.602 102.447 141.045 101.662C140.489 100.877 140.19 99.9378 140.19 98.9753C140.19 98.0128 140.489 97.0741 141.045 96.2888C141.602 95.5035 142.388 94.9105 143.296 94.5916L181.73 72.391C183.975 71.2596 186.454 70.6702 188.968 70.6702C191.482 70.6702 193.96 71.2596 196.206 72.391L234.659 94.5916C235.567 94.9105 236.353 95.5035 236.909 96.2888C237.466 97.0741 237.764 98.0128 237.764 98.9753C237.764 99.9378 237.466 100.877 236.909 101.662C236.353 102.447 235.567 103.04 234.659 103.359L196.225 125.56C193.994 126.74 191.501 127.335 188.977 127.29ZM188.977 71.3413C186.571 71.2929 184.191 71.8546 182.06 72.9742L143.626 95.1748C142.828 95.4399 142.134 95.9498 141.642 96.632C141.15 97.3142 140.885 98.134 140.885 98.9753C140.885 99.8165 141.15 100.636 141.642 101.319C142.134 102.001 142.828 102.511 143.626 102.776L182.06 124.976C184.202 126.059 186.568 126.624 188.968 126.624C191.367 126.624 193.734 126.059 195.875 124.976L234.309 102.737C235.107 102.472 235.802 101.962 236.294 101.28C236.786 100.598 237.051 99.7777 237.051 98.9364C237.051 98.0951 236.786 97.2753 236.294 96.5931C235.802 95.9109 235.107 95.401 234.309 95.1359L195.875 72.9354C193.747 71.8316 191.374 71.2834 188.977 71.3413Z" fill="#42E8E0"/>
<path opacity="0.4" d="M238.934 90.4508V77.2899L236.544 75.9485C235.864 80.0698 231.026 82.772 226.965 83.3357L199.432 99.4515L187.423 103.787L149.048 83.9773L149.941 83.4718C146.658 81.936 144.889 78.4369 143.121 75.2292L140.537 76.765L139.002 77.2121V90.5869C139.104 91.6012 139.469 92.5712 140.062 93.4C140.656 94.2289 141.456 94.8877 142.383 95.3108L180.875 117.511C183.404 118.795 186.2 119.465 189.036 119.465C191.872 119.465 194.668 118.795 197.197 117.511L235.631 95.3108C236.542 94.8934 237.329 94.2484 237.918 93.438C238.507 92.6277 238.877 91.6792 238.993 90.6841C239.002 90.6066 239.002 90.5282 238.993 90.4508H238.934Z" fill="#42E8E0"/>
<path d="M238.934 78.7478V70.0387L236.544 68.6973C235.864 72.8186 231.026 75.5208 226.965 76.0845L199.432 92.2003L187.423 96.5354L149.048 76.726L149.941 76.2206C146.658 74.6848 144.889 71.1856 143.121 67.978L140.537 69.5332L139.002 69.9609V78.8839C139.104 79.8982 139.469 80.8682 140.062 81.6971C140.656 82.5259 141.456 83.1848 142.383 83.6078L180.875 105.808C183.404 107.092 186.2 107.762 189.036 107.762C191.872 107.762 194.668 107.092 197.197 105.808L235.631 83.6078C236.542 83.1904 237.329 82.5455 237.918 81.7351C238.507 80.9247 238.877 79.9762 238.993 78.9811C239.002 78.9036 239.002 78.8253 238.993 78.7478H238.934Z" fill="url(#paint2_linear)"/>
<path opacity="0.3" d="M226.964 76.084L199.431 92.1998L188.977 95.9712V107.752C191.819 107.81 194.628 107.141 197.138 105.808L235.572 83.6073C236.483 83.19 237.27 82.545 237.859 81.7346C238.448 80.9242 238.818 79.9757 238.934 78.9806C238.944 78.9031 238.944 78.8248 238.934 78.7473V70.0382L236.738 68.8135H236.505C235.767 72.857 230.987 75.5203 226.964 76.084Z" fill="#0F054C"/>
<path d="M180.876 96.9042L142.442 74.7037C137.934 72.0987 137.934 67.8608 142.442 65.2753L180.876 43.1331C183.405 41.8489 186.201 41.1797 189.037 41.1797C191.873 41.1797 194.669 41.8489 197.198 43.1331L235.632 65.3336C240.12 67.9191 240.12 72.157 235.632 74.762L197.139 96.9042C194.615 98.1699 191.831 98.8289 189.008 98.8289C186.184 98.8289 183.4 98.1699 180.876 96.9042Z" fill="url(#paint3_linear)"/>
<path d="M235.572 74.7628L197.138 96.905C194.606 98.1802 191.811 98.8444 188.977 98.8444C186.143 98.8444 183.348 98.1802 180.816 96.905L142.382 74.7045C141.543 74.3088 140.806 73.7265 140.227 73.0021C139.647 72.2777 139.241 71.4304 139.04 70.5249C138.768 72.4689 139.895 74.4129 142.382 75.7737L180.874 98.0326C183.403 99.3167 186.199 99.986 189.035 99.986C191.871 99.986 194.667 99.3167 197.196 98.0326L235.63 75.8321C236.656 75.4054 237.526 74.6724 238.121 73.7331C238.715 72.7938 239.006 71.6938 238.953 70.5832C238.746 71.4919 238.333 72.3411 237.747 73.0655C237.161 73.79 236.417 74.3706 235.572 74.7628Z" fill="white"/>
<path d="M169.677 69L82.2528 16.6831L54.4582 32.7183H54.135L0 0.809859L0.323189 0L54.4582 31.7465L82.2528 15.7113L82.8992 16.0352L170 68.1901L169.677 69Z" fill="url(#paint4_linear)"/>
<defs>
<linearGradient id="paint0_linear" x1="148.95" y1="111.116" x2="228.266" y2="156.884" gradientUnits="userSpaceOnUse">
<stop stop-color="#BCBEFF"/>
<stop offset="0.23" stop-color="#AAADF8"/>
<stop offset="0.68" stop-color="#7C83E5"/>
<stop offset="1" stop-color="#5761D7"/>
</linearGradient>
<linearGradient id="paint1_linear" x1="139.002" y1="128.437" x2="238.935" y2="128.437" gradientUnits="userSpaceOnUse">
<stop stop-color="#E9E9FD"/>
<stop offset="0.36" stop-color="#D3D2F9"/>
<stop offset="0.71" stop-color="#C5C4F7"/>
<stop offset="1" stop-color="#C0BFF6"/>
</linearGradient>
<linearGradient id="paint2_linear" x1="51995" y1="9109.62" x2="53746.4" y2="11652" gradientUnits="userSpaceOnUse">
<stop stop-color="#BCBEFF"/>
<stop offset="0.23" stop-color="#AAADF8"/>
<stop offset="0.68" stop-color="#7C83E5"/>
<stop offset="1" stop-color="#5761D7"/>
</linearGradient>
<linearGradient id="paint3_linear" x1="51452" y1="13656.8" x2="56591.7" y2="13656.8" gradientUnits="userSpaceOnUse">
<stop stop-color="#E9E9FD"/>
<stop offset="0.36" stop-color="#D3D2F9"/>
<stop offset="0.71" stop-color="#C5C4F7"/>
<stop offset="1" stop-color="#C0BFF6"/>
</linearGradient>
<linearGradient id="paint4_linear" x1="-0.0407224" y1="34.4791" x2="170.052" y2="34.4791" gradientUnits="userSpaceOnUse">
<stop stop-color="#5778FF"/>
<stop offset="0.1042" stop-color="#567FFF"/>
<stop offset="0.2607" stop-color="#5394FF"/>
<stop offset="0.4503" stop-color="#4DB6FF"/>
<stop offset="0.6638" stop-color="#46E4FF"/>
<stop offset="0.7742" stop-color="#42FFFF"/>
</linearGradient>
</defs>
</svg>
