<svg width="225" height="148" viewBox="0 0 225 148" fill="none" xmlns="http://www.w3.org/2000/svg">
<g opacity="0.3">
<path opacity="0.3" d="M99.9996 118.204V109.494L97.5889 108.153C96.9085 112.274 92.068 114.977 88.0245 115.54L60.4585 131.656L48.4446 135.991L10.0505 116.182L10.9448 115.676C7.65942 114.141 5.89036 110.641 4.12132 107.434L1.53582 108.989L4.05312e-05 109.417V118.34C0.1018 119.354 0.467642 120.324 1.06115 121.153C1.65466 121.982 2.45508 122.641 3.38259 123.064L41.835 145.264C44.3651 146.548 47.1624 147.218 49.9998 147.218C52.8371 147.218 55.6345 146.548 58.1646 145.264L96.6169 123.064C97.5314 122.649 98.3232 122.005 98.9158 121.194C99.5084 120.384 99.8817 119.434 99.9996 118.437C99.9996 118.437 99.9996 118.281 99.9996 118.204Z" fill="url(#paint0_linear)"/>
<path opacity="0.3" d="M88.024 115.578L60.458 131.694L49.9993 135.466V147.246C52.8421 147.305 55.6526 146.636 58.164 145.302L96.6164 123.102C97.5308 122.687 98.3227 122.043 98.9153 121.233C99.5079 120.422 99.8812 119.472 99.999 118.475C99.999 118.475 99.999 118.319 99.999 118.242V109.533L97.7828 108.308H97.5496C96.8108 112.313 92.0286 114.976 88.024 115.578Z" fill="#0F054C"/>
<path opacity="0.3" d="M41.8349 136.419L3.38257 114.218C-1.12752 111.613 -1.12752 107.375 3.38257 104.79L41.8349 82.5308C44.3651 81.2466 47.1624 80.5774 49.9998 80.5774C52.8371 80.5774 55.6344 81.2466 58.1646 82.5308L96.6169 104.731C101.108 107.317 101.108 111.555 96.6169 114.16L58.1646 136.419C55.6317 137.694 52.8355 138.358 49.9998 138.358C47.1641 138.358 44.3678 137.694 41.8349 136.419Z" fill="url(#paint1_linear)"/>
<g opacity="0.3">
<path opacity="0.3" d="M41.8354 136.419L3.38298 114.218C-1.12711 111.613 -1.12711 107.375 3.38298 104.79L41.8354 82.5308C44.3655 81.2466 47.1628 80.5774 50.0002 80.5774C52.8375 80.5774 55.6348 81.2466 58.165 82.5308L96.6173 104.731C101.108 107.317 101.108 111.555 96.6173 114.16L58.165 136.419C55.6321 137.694 52.8359 138.358 50.0002 138.358C47.1645 138.358 44.3682 137.694 41.8354 136.419Z" fill="#0F054C"/>
</g>
</g>
<path d="M49.9998 104.11C47.4743 104.165 44.9771 103.569 42.7486 102.379L4.29623 80.1788C3.3948 79.8559 2.61517 79.2624 2.06396 78.4794C1.51275 77.6965 1.2169 76.7624 1.2169 75.8048C1.2169 74.8473 1.51275 73.9132 2.06396 73.1302C2.61517 72.3473 3.3948 71.7537 4.29623 71.4308L42.7486 49.2303C44.9955 48.0896 47.4799 47.4951 49.9998 47.4951C52.5196 47.4951 55.0039 48.0896 57.2508 49.2303L95.7032 71.4308C96.6047 71.7537 97.3843 72.3473 97.9356 73.1302C98.4868 73.9132 98.7826 74.8473 98.7826 75.8048C98.7826 76.7624 98.4868 77.6965 97.9356 78.4794C97.3843 79.2624 96.6047 79.8559 95.7032 80.1788L57.2508 102.379C55.0224 103.569 52.5252 104.165 49.9998 104.11ZM43.0791 101.796C45.2218 102.879 47.5891 103.444 49.99 103.444C52.3909 103.444 54.7582 102.879 56.9009 101.796L95.3533 79.5956C96.2123 79.3998 96.9793 78.9182 97.5288 78.2294C98.0782 77.5407 98.3774 76.6859 98.3774 75.8048C98.3774 74.9238 98.0782 74.0689 97.5288 73.3802C96.9793 72.6915 96.2123 72.2098 95.3533 72.014L56.9009 49.8135C54.761 48.7213 52.3926 48.1518 49.99 48.1518C47.5874 48.1518 45.2191 48.7213 43.0791 49.8135L4.62674 72.014C3.76775 72.2098 3.00072 72.6915 2.4513 73.3802C1.90189 74.0689 1.60264 74.9238 1.60264 75.8048C1.60264 76.6859 1.90189 77.5407 2.4513 78.2294C3.00072 78.9182 3.76775 79.3998 4.62674 79.5956L43.0791 101.796Z" fill="#42E8E0"/>
<path opacity="0.4" d="M99.9995 67.29V54.1096L97.5889 52.7683C96.9085 56.8896 92.068 59.5917 88.0244 60.1555L60.4585 76.2713L48.4445 80.5869L10.0505 60.7776L10.9447 60.2721C7.65938 58.7363 5.89032 55.2371 4.12128 52.0295L1.53578 53.5847L0 54.0124V67.4066C0.0933683 68.4211 0.456185 69.3921 1.05091 70.2193C1.64563 71.0464 2.45061 71.6996 3.38255 72.1111L41.8349 94.3116C44.365 95.5957 47.1624 96.265 49.9998 96.265C52.8371 96.265 55.6344 95.5957 58.1645 94.3116L96.6169 72.1111C97.5313 71.6963 98.3232 71.0525 98.9158 70.2419C99.5084 69.4314 99.8817 68.4815 99.9995 67.4844C99.9995 67.4844 99.9995 67.3289 99.9995 67.2511V67.29Z" fill="#42E8E0"/>
<path d="M99.9995 55.5677V46.8586L97.5889 45.5172C96.9085 49.6385 92.068 52.3407 88.0244 52.9044L60.4585 69.0202L48.4445 73.3553L10.0505 53.5459L10.9447 53.0405C7.65938 51.5047 5.89032 48.0055 4.12128 44.8174L1.53578 46.3532L0 46.7808V55.7232C0.105005 56.7341 0.472354 57.7001 1.06568 58.5252C1.659 59.3504 2.45768 60.0063 3.38255 60.4277L41.8349 82.6282C44.365 83.9123 47.1624 84.5816 49.9998 84.5816C52.8371 84.5816 55.6344 83.9123 58.1645 82.6282L96.6169 60.4277C97.5313 60.0129 98.3232 59.3691 98.9158 58.5585C99.5084 57.748 99.8817 56.7981 99.9995 55.801C99.9995 55.801 99.9995 55.6455 99.9995 55.5677Z" fill="url(#paint2_linear)"/>
<path d="M41.8349 73.7829L3.38257 51.5823C-1.12752 48.9774 -1.12752 44.7395 3.38257 42.1539L41.8349 19.9534C44.3651 18.6693 47.1624 18 49.9998 18C52.8371 18 55.6344 18.6693 58.1646 19.9534L96.6169 42.1539C101.108 44.7589 101.108 48.9774 96.6169 51.5823L58.1646 73.7829C55.6344 75.067 52.8371 75.7362 49.9998 75.7362C47.1624 75.7362 44.3651 75.067 41.8349 73.7829Z" fill="url(#paint3_linear)"/>
<path d="M50.0001 69.7391C47.7192 69.7904 45.4633 69.2549 43.4488 68.1838L13.414 50.8433C12.5927 50.5518 11.8818 50.0131 11.3791 49.3013C10.8764 48.5894 10.6066 47.7393 10.6066 46.8678C10.6066 45.9964 10.8764 45.1463 11.3791 44.4344C11.8818 43.7226 12.5927 43.1838 13.414 42.8923L43.4488 25.5518C45.4778 24.5175 47.7228 23.9783 50.0001 23.9783C52.2775 23.9783 54.5225 24.5175 56.5514 25.5518L86.5863 42.8923C87.4075 43.1838 88.1183 43.7226 88.621 44.4344C89.1237 45.1463 89.3936 45.9964 89.3936 46.8678C89.3936 47.7393 89.1237 48.5894 88.621 49.3013C88.1183 50.0131 87.4075 50.5518 86.5863 50.8433L56.5514 68.1838C54.5369 69.2549 52.281 69.7904 50.0001 69.7391ZM43.7793 67.6006C45.7036 68.5789 47.8317 69.0888 49.9904 69.0888C52.1491 69.0888 54.2772 68.5789 56.2015 67.6006L86.2558 50.2601C86.9769 50.0323 87.6066 49.5806 88.0536 48.9706C88.5007 48.3607 88.7416 47.6241 88.7416 46.8678C88.7416 46.1116 88.5007 45.375 88.0536 44.765C87.6066 44.155 86.9769 43.7034 86.2558 43.4756L56.2015 26.1545C54.2772 25.1762 52.1491 24.6663 49.9904 24.6663C47.8317 24.6663 45.7036 25.1762 43.7793 26.1545L13.7445 43.495C13.0694 43.7885 12.4848 44.2566 12.0509 44.8511C11.6169 45.4457 11.3493 46.1452 11.2755 46.8776C11.3518 47.6116 11.6202 48.3125 12.0537 48.9097C12.4871 49.507 13.0703 49.9795 13.7445 50.2796L43.7793 67.6006Z" fill="#5351AF"/>
<path d="M96.6166 51.5827L58.1642 73.7832C55.6341 75.0674 52.8368 75.7366 49.9994 75.7366C47.1621 75.7366 44.3647 75.0674 41.8346 73.7832L3.38222 51.5827C2.54314 51.187 1.80565 50.6047 1.22613 49.8803C0.646599 49.1559 0.240377 48.3085 0.0385328 47.4031C-0.0059178 48.517 0.290322 49.6181 0.887729 50.5594C1.48514 51.5006 2.35532 52.2374 3.38222 52.6714L41.8346 74.8718C44.3674 76.147 47.1637 76.8112 49.9994 76.8112C52.8351 76.8112 55.6314 76.147 58.1642 74.8718L96.6166 52.6714C97.6432 52.2389 98.5124 51.5019 99.1069 50.5598C99.7013 49.6177 99.9924 48.5159 99.9409 47.4031C99.7425 48.3072 99.3397 49.154 98.7635 49.8785C98.1873 50.6029 97.4529 51.1859 96.6166 51.5827Z" fill="white"/>
<path d="M54.7094 66.4413L141.839 16.3078L169.723 31.3516L170.046 31.3497L224.002 0.768074L223.674 0.00190743L169.718 30.4299L141.834 15.3861L141.189 15.6971L54.3817 65.6751L54.7094 66.4413Z" fill="url(#paint4_linear)"/>
<defs>
<linearGradient id="paint0_linear" x1="43049.8" y1="11404.4" x2="44801.1" y2="13946.9" gradientUnits="userSpaceOnUse">
<stop stop-color="#BCBEFF"/>
<stop offset="0.23" stop-color="#AAADF8"/>
<stop offset="0.68" stop-color="#7C83E5"/>
<stop offset="1" stop-color="#5761D7"/>
</linearGradient>
<linearGradient id="paint1_linear" x1="42531.6" y1="17002.7" x2="47674.8" y2="17002.7" gradientUnits="userSpaceOnUse">
<stop stop-color="#E9E9FD"/>
<stop offset="0.36" stop-color="#D3D2F9"/>
<stop offset="0.71" stop-color="#C5C4F7"/>
<stop offset="1" stop-color="#C0BFF6"/>
</linearGradient>
<linearGradient id="paint2_linear" x1="43049.8" y1="10055.5" x2="44800.6" y2="12597.3" gradientUnits="userSpaceOnUse">
<stop stop-color="#BCBEFF"/>
<stop offset="0.23" stop-color="#AAADF8"/>
<stop offset="0.68" stop-color="#7C83E5"/>
<stop offset="1" stop-color="#5761D7"/>
</linearGradient>
<linearGradient id="paint3_linear" x1="42531.6" y1="15066.9" x2="47674.8" y2="15066.9" gradientUnits="userSpaceOnUse">
<stop stop-color="#E9E9FD"/>
<stop offset="0.36" stop-color="#D3D2F9"/>
<stop offset="0.71" stop-color="#C5C4F7"/>
<stop offset="1" stop-color="#C0BFF6"/>
</linearGradient>
<linearGradient id="paint4_linear" x1="224.231" y1="32.6999" x2="54.1412" y2="33.7038" gradientUnits="userSpaceOnUse">
<stop stop-color="#5778FF"/>
<stop offset="0.1042" stop-color="#567FFF"/>
<stop offset="0.2607" stop-color="#5394FF"/>
<stop offset="0.4503" stop-color="#4DB6FF"/>
<stop offset="0.6638" stop-color="#46E4FF"/>
<stop offset="0.7742" stop-color="#42FFFF"/>
</linearGradient>
</defs>
</svg>
