<svg width="221" height="329" viewBox="0 0 221 329" fill="none" xmlns="http://www.w3.org/2000/svg">
<g opacity="0.3">
<path opacity="0.3" d="M220.903 202.896V194.187L218.495 192.845C217.815 196.947 212.979 199.669 208.94 200.232L181.4 216.329L169.398 220.683L131.041 200.874L131.934 200.349C128.652 198.833 126.885 195.314 125.117 192.126L122.534 193.662L121 194.089V203.032C121.091 204.047 121.453 205.019 122.047 205.846C122.642 206.674 123.447 207.326 124.379 207.736L162.795 229.937C165.322 231.221 168.117 231.89 170.952 231.89C173.786 231.89 176.581 231.221 179.109 229.937L217.524 207.736C218.438 207.322 219.229 206.678 219.821 205.867C220.413 205.057 220.786 204.107 220.903 203.11V202.896Z" fill="url(#paint0_linear)"/>
<path opacity="0.3" d="M208.939 200.232L181.4 216.329L170.951 220.119V231.9C173.791 231.959 176.599 231.289 179.108 229.956L217.523 207.756C218.437 207.341 219.228 206.697 219.82 205.886C220.412 205.076 220.785 204.126 220.903 203.129V202.915V194.206L218.708 192.981H218.475C217.698 197.005 212.94 199.669 208.939 200.232Z" fill="#0F054C"/>
<path opacity="0.3" d="M162.794 221.091L124.476 198.891C119.97 196.286 119.97 192.067 124.476 189.462L162.794 167.184C165.322 165.9 168.117 165.231 170.951 165.231C173.786 165.231 176.581 165.9 179.108 167.184L217.524 189.385C222.029 191.99 222.029 196.208 217.524 198.813L179.108 221.014C176.587 222.31 173.795 222.992 170.961 223.006C168.126 223.019 165.328 222.363 162.794 221.091Z" fill="url(#paint1_linear)"/>
<g opacity="0.3">
<path opacity="0.3" d="M162.794 221.091L124.476 198.891C119.97 196.286 119.97 192.067 124.476 189.462L162.794 167.184C165.322 165.9 168.117 165.231 170.951 165.231C173.786 165.231 176.581 165.9 179.108 167.184L217.524 189.385C222.029 191.99 222.029 196.208 217.524 198.813L179.108 221.014C176.587 222.31 173.795 222.992 170.961 223.006C168.126 223.019 165.328 222.363 162.794 221.091Z" fill="#0F054C"/>
</g>
</g>
<path d="M170.953 194.498C168.431 194.543 165.938 193.948 163.708 192.768L125.293 170.567C124.386 170.248 123.6 169.655 123.044 168.87C122.488 168.085 122.189 167.146 122.189 166.183C122.189 165.221 122.488 164.282 123.044 163.497C123.6 162.712 124.386 162.118 125.293 161.8L163.708 139.599C165.956 138.467 168.437 137.878 170.953 137.878C173.468 137.878 175.949 138.467 178.197 139.599L216.612 161.8C217.519 162.118 218.305 162.712 218.861 163.497C219.417 164.282 219.716 165.221 219.716 166.183C219.716 167.146 219.417 168.085 218.861 168.87C218.305 169.655 217.519 170.248 216.612 170.567L178.197 192.768C175.967 193.948 173.475 194.543 170.953 194.498ZM170.953 138.53C168.552 138.488 166.18 139.057 164.058 140.182L125.623 162.383C124.826 162.648 124.132 163.158 123.64 163.84C123.148 164.522 122.883 165.342 122.883 166.183C122.883 167.025 123.148 167.844 123.64 168.527C124.132 169.209 124.826 169.719 125.623 169.984L164.058 192.184C166.199 193.267 168.564 193.832 170.962 193.832C173.361 193.832 175.726 193.267 177.867 192.184L216.282 169.984C217.08 169.719 217.773 169.209 218.265 168.527C218.757 167.844 219.022 167.025 219.022 166.183C219.022 165.342 218.757 164.522 218.265 163.84C217.773 163.158 217.08 162.648 216.282 162.383L177.867 140.182C175.738 139.057 173.36 138.488 170.953 138.53Z" fill="#42E8E0"/>
<path opacity="0.4" d="M220.903 157.659V144.498L218.495 143.156C217.815 147.258 212.979 149.98 208.94 150.544L181.4 166.659L169.398 171.072L131.041 151.263L131.934 150.757C128.652 149.222 126.885 145.722 125.117 142.515L122.534 144.051L121 144.498V157.873C121.124 158.883 121.51 159.844 122.12 160.659C122.73 161.474 123.542 162.115 124.476 162.519L162.795 184.68C165.322 185.964 168.117 186.634 170.952 186.634C173.786 186.634 176.581 185.964 179.109 184.68L217.524 162.48C218.438 162.065 219.229 161.421 219.821 160.611C220.413 159.8 220.786 158.85 220.903 157.853V157.62V157.659Z" fill="#42E8E0"/>
<path d="M220.903 145.956V137.247L218.495 135.905C217.815 140.007 212.979 142.729 208.94 143.292L181.4 159.408L169.398 163.743L131.041 143.856L131.934 143.351C128.652 141.815 126.885 138.316 125.117 135.108L122.534 136.644L121 137.091V146.014C121.102 147.028 121.467 147.998 122.06 148.827C122.653 149.656 123.453 150.315 124.379 150.738L162.795 173.016C165.325 174.291 168.119 174.956 170.952 174.956C173.785 174.956 176.578 174.291 179.109 173.016L217.524 150.816C218.438 150.401 219.229 149.757 219.821 148.947C220.413 148.136 220.786 147.186 220.903 146.189V145.956Z" fill="url(#paint2_linear)"/>
<path opacity="0.3" d="M208.939 143.293L181.4 159.409L170.951 163.18V174.961C173.791 175.019 176.599 174.35 179.108 173.017L217.523 150.816C218.437 150.402 219.228 149.758 219.82 148.947C220.412 148.137 220.785 147.187 220.903 146.19V145.956V137.247L218.708 136.022H218.475C217.698 140.066 212.94 142.729 208.939 143.293Z" fill="#0F054C"/>
<path d="M131.934 143.428L168.349 122.472C169.16 122.065 170.054 121.853 170.961 121.853C171.868 121.853 172.763 122.065 173.573 122.472L209.328 143.137L208.94 143.37C212.979 142.806 217.815 140.084 218.495 135.983L178.351 113.627L166.698 110.536L157.182 116.134L125.137 135.263C126.885 138.393 128.652 141.912 131.934 143.428Z" fill="url(#paint3_linear)"/>
<path opacity="0.3" d="M170.951 111.605L166.679 110.458L157.162 116.057L125.117 135.186C126.884 138.393 128.652 141.893 131.934 143.428L168.349 122.472C169.145 122.033 170.043 121.811 170.951 121.83V111.605Z" fill="#0F054C"/>
<path d="M162.794 164.152L124.476 141.912C119.97 139.327 119.97 135.089 124.476 132.484L162.891 110.283C165.422 109.008 168.215 108.344 171.048 108.344C173.881 108.344 176.675 109.008 179.205 110.283L217.621 132.484C222.127 135.089 222.127 139.327 217.621 141.912L179.205 164.113C176.668 165.419 173.858 166.104 171.005 166.11C168.152 166.117 165.338 165.446 162.794 164.152ZM173.573 113.608C172.762 113.201 171.868 112.989 170.961 112.989C170.054 112.989 169.16 113.201 168.349 113.608L129.933 135.808C129.613 135.912 129.335 136.115 129.137 136.387C128.939 136.66 128.832 136.988 128.832 137.324C128.832 137.661 128.939 137.989 129.137 138.262C129.335 138.534 129.613 138.737 129.933 138.841L168.349 161.041C169.16 161.448 170.054 161.66 170.961 161.66C171.868 161.66 172.762 161.448 173.573 161.041L211.989 138.841C212.3 138.728 212.568 138.521 212.758 138.25C212.948 137.979 213.05 137.656 213.05 137.324C213.05 136.993 212.948 136.67 212.758 136.399C212.568 136.128 212.3 135.921 211.989 135.808L173.573 113.608Z" fill="url(#paint4_linear)"/>
<path d="M211.988 135.73L173.573 113.53C172.762 113.123 171.867 112.911 170.96 112.911C170.054 112.911 169.159 113.123 168.348 113.53L129.933 135.73C128.962 136.294 128.651 137.071 128.962 137.791C129.181 137.377 129.519 137.038 129.933 136.819L168.348 114.696C169.159 114.289 170.054 114.077 170.96 114.077C171.867 114.077 172.762 114.289 173.573 114.696L211.988 136.897C212.397 137.116 212.729 137.455 212.94 137.869C213.25 137.071 212.94 136.294 211.988 135.73Z" fill="white"/>
<path d="M217.525 141.912L179.11 164.112C176.582 165.397 173.787 166.066 170.953 166.066C168.118 166.066 165.323 165.397 162.796 164.112L124.477 141.912C123.639 141.522 122.901 140.944 122.322 140.222C121.743 139.501 121.337 138.655 121.137 137.752C121.094 138.863 121.391 139.961 121.988 140.899C122.584 141.837 123.453 142.57 124.477 143.001L162.796 165.24C165.323 166.524 168.118 167.193 170.953 167.193C173.787 167.193 176.582 166.524 179.11 165.24L217.525 143.039C218.549 142.609 219.418 141.876 220.015 140.938C220.612 140 220.909 138.902 220.866 137.791C220.66 138.687 220.252 139.525 219.673 140.239C219.094 140.953 218.359 141.526 217.525 141.912Z" fill="white"/>
<path d="M163.882 163.53L125.466 141.329C121.582 139.074 121.582 135.497 125.466 133.164L163.882 110.964C166.07 109.844 168.493 109.261 170.951 109.261C173.409 109.261 175.832 109.844 178.02 110.964L216.436 133.164C220.32 135.419 220.32 138.996 216.436 141.329L178.02 163.53C175.832 164.649 173.409 165.233 170.951 165.233C168.493 165.233 166.07 164.649 163.882 163.53ZM174.641 112.986C173.499 112.4 172.234 112.095 170.951 112.095C169.668 112.095 168.403 112.4 167.261 112.986L128.846 135.108C128.398 135.258 128.008 135.546 127.732 135.929C127.456 136.313 127.308 136.774 127.308 137.247C127.308 137.72 127.456 138.18 127.732 138.564C128.008 138.948 128.398 139.235 128.846 139.385L167.203 161.586C168.348 162.16 169.612 162.46 170.893 162.46C172.174 162.46 173.438 162.16 174.583 161.586L213.018 139.385C213.466 139.235 213.855 138.948 214.131 138.564C214.407 138.18 214.555 137.72 214.555 137.247C214.555 136.774 214.407 136.313 214.131 135.929C213.855 135.546 213.466 135.258 213.018 135.108L174.641 112.986Z" fill="url(#paint5_linear)"/>
<path opacity="0.4" d="M173.574 113.53C172.764 113.123 171.869 112.911 170.962 112.911C170.055 112.911 169.161 113.123 168.35 113.53L129.935 135.73C129.614 135.834 129.336 136.037 129.138 136.309C128.94 136.582 128.833 136.91 128.833 137.246C128.833 137.583 128.94 137.911 129.138 138.184C129.336 138.456 129.614 138.659 129.935 138.763L168.35 160.963C169.161 161.37 170.055 161.582 170.962 161.582C171.869 161.582 172.764 161.37 173.574 160.963L211.99 138.763C212.301 138.65 212.569 138.443 212.759 138.172C212.949 137.901 213.051 137.578 213.051 137.246C213.051 136.915 212.949 136.592 212.759 136.321C212.569 136.05 212.301 135.843 211.99 135.73L173.574 113.53Z" fill="#42E8E0"/>
<path d="M144.594 181.78L55.5744 231.333L55.564 263.421L55.4024 263.701L0.701359 294.629L0.161594 293.944L54.7223 262.935L54.7328 230.847L55.3365 230.449L144.054 181.095L144.594 181.78Z" fill="url(#paint6_linear)"/>
<defs>
<linearGradient id="paint0_linear" x1="26228.7" y1="5161.86" x2="27980.1" y2="7702.14" gradientUnits="userSpaceOnUse">
<stop stop-color="#BCBEFF"/>
<stop offset="0.23" stop-color="#AAADF8"/>
<stop offset="0.68" stop-color="#7C83E5"/>
<stop offset="1" stop-color="#5761D7"/>
</linearGradient>
<linearGradient id="paint1_linear" x1="25692.4" y1="7900.77" x2="30826.5" y2="7900.77" gradientUnits="userSpaceOnUse">
<stop stop-color="#E9E9FD"/>
<stop offset="0.36" stop-color="#D3D2F9"/>
<stop offset="0.71" stop-color="#C5C4F7"/>
<stop offset="1" stop-color="#C0BFF6"/>
</linearGradient>
<linearGradient id="paint2_linear" x1="26228.7" y1="3948.11" x2="27985.1" y2="6490.26" gradientUnits="userSpaceOnUse">
<stop stop-color="#BCBEFF"/>
<stop offset="0.23" stop-color="#AAADF8"/>
<stop offset="0.68" stop-color="#7C83E5"/>
<stop offset="1" stop-color="#5761D7"/>
</linearGradient>
<linearGradient id="paint3_linear" x1="135.702" y1="116.854" x2="206.41" y2="157.638" gradientUnits="userSpaceOnUse">
<stop offset="0.24" stop-color="#5761D7"/>
<stop offset="0.39" stop-color="#7A82E5"/>
<stop offset="0.55" stop-color="#979CF0"/>
<stop offset="0.7" stop-color="#ACAFF8"/>
<stop offset="0.85" stop-color="#B8BAFD"/>
<stop offset="1" stop-color="#BCBEFF"/>
</linearGradient>
<linearGradient id="paint4_linear" x1="25717.3" y1="6150.71" x2="30856.3" y2="6150.71" gradientUnits="userSpaceOnUse">
<stop stop-color="#E9E9FD"/>
<stop offset="0.36" stop-color="#D3D2F9"/>
<stop offset="0.71" stop-color="#C5C4F7"/>
<stop offset="1" stop-color="#C0BFF6"/>
</linearGradient>
<linearGradient id="paint5_linear" x1="24999.1" y1="5963.93" x2="29825.3" y2="5963.93" gradientUnits="userSpaceOnUse">
<stop stop-color="#E9E9FD"/>
<stop offset="0.36" stop-color="#D3D2F9"/>
<stop offset="0.71" stop-color="#C5C4F7"/>
<stop offset="1" stop-color="#C0BFF6"/>
</linearGradient>
<linearGradient id="paint6_linear" x1="29.8394" y1="311.499" x2="114.886" y2="164.194" gradientUnits="userSpaceOnUse">
<stop stop-color="#5778FF"/>
<stop offset="0.1042" stop-color="#567FFF"/>
<stop offset="0.2607" stop-color="#5394FF"/>
<stop offset="0.4503" stop-color="#4DB6FF"/>
<stop offset="0.6638" stop-color="#46E4FF"/>
<stop offset="0.7742" stop-color="#42FFFF"/>
</linearGradient>
</defs>
</svg>
