<svg width="20" height="18" viewBox="0 0 20 18" fill="none" xmlns="http://www.w3.org/2000/svg">
<mask id="path-1-inside-1" fill="white">
<path fill-rule="evenodd" clip-rule="evenodd" d="M10.8812 0.641917C10.4875 0.230526 9.83016 0.230526 9.4364 0.641917L0.611116 9.86236C0.0023669 10.4984 0.453149 11.5538 1.33354 11.5538H5.32548V14.8872C5.32548 15.8206 5.32548 16.2873 5.50714 16.6438C5.66693 16.9574 5.9219 17.2124 6.2355 17.3722C6.59202 17.5538 7.05873 17.5538 7.99215 17.5538H12.3255C13.2589 17.5538 13.7256 17.5538 14.0821 17.3722C14.3957 17.2124 14.6507 16.9574 14.8105 16.6438C14.9922 16.2873 14.9922 15.8206 14.9922 14.8872V11.5538H18.9841C19.8645 11.5538 20.3153 10.4984 19.7065 9.86236L10.8812 0.641917Z"/>
</mask>
<path d="M9.4364 0.641917L8.47318 -0.280026L9.4364 0.641917ZM10.8812 0.641917L9.91801 1.56386L10.8812 0.641917ZM0.611116 9.86236L-0.352107 8.94042H-0.352107L0.611116 9.86236ZM5.32548 11.5538H6.65882V10.2205H5.32548V11.5538ZM5.50714 16.6438L6.69515 16.0385L6.69515 16.0385L5.50714 16.6438ZM6.2355 17.3722L5.63018 18.5602L5.63018 18.5602L6.2355 17.3722ZM14.0821 17.3722L14.6875 18.5602L14.6875 18.5602L14.0821 17.3722ZM14.8105 16.6438L13.6225 16.0385L13.6225 16.0385L14.8105 16.6438ZM14.9922 11.5538V10.2205H13.6588V11.5538H14.9922ZM19.7065 9.86236L20.6697 8.94042V8.94042L19.7065 9.86236ZM10.3996 1.56386C10.2684 1.70099 10.0493 1.70099 9.91801 1.56386L11.8445 -0.280025C10.9257 -1.23994 9.39195 -1.23994 8.47318 -0.280026L10.3996 1.56386ZM1.57434 10.7843L10.3996 1.56386L8.47318 -0.280026L-0.352107 8.94042L1.57434 10.7843ZM1.33354 10.2205C1.627 10.2205 1.77726 10.5723 1.57434 10.7843L-0.352107 8.94042C-1.77252 10.4244 -0.720698 12.8872 1.33354 12.8872V10.2205ZM5.32548 10.2205H1.33354V12.8872H5.32548V10.2205ZM6.65882 14.8872V11.5538H3.99215V14.8872H6.65882ZM6.69515 16.0385C6.71605 16.0795 6.69307 16.0687 6.6771 15.8732C6.65985 15.6622 6.65882 15.3759 6.65882 14.8872H3.99215C3.99215 15.3319 3.99111 15.7456 4.01929 16.0904C4.04873 16.4508 4.11657 16.8516 4.31913 17.2491L6.69515 16.0385ZM6.84082 16.1842C6.7781 16.1522 6.72711 16.1012 6.69515 16.0385L4.31913 17.2491C4.60675 17.8136 5.06569 18.2726 5.63018 18.5602L6.84082 16.1842ZM7.99215 16.2205C7.50344 16.2205 7.21709 16.2194 7.00606 16.2022C6.8106 16.1862 6.79979 16.1632 6.84082 16.1842L5.63018 18.5602C6.02773 18.7627 6.42854 18.8306 6.78891 18.86C7.13372 18.8882 7.54744 18.8872 7.99215 18.8872V16.2205ZM12.3255 16.2205H7.99215V18.8872H12.3255V16.2205ZM13.4768 16.1842C13.5178 16.1632 13.507 16.1862 13.3116 16.2022C13.1005 16.2194 12.8142 16.2205 12.3255 16.2205V18.8872C12.7702 18.8872 13.1839 18.8882 13.5287 18.86C13.8891 18.8306 14.2899 18.7627 14.6875 18.5602L13.4768 16.1842ZM13.6225 16.0385C13.5905 16.1012 13.5395 16.1522 13.4768 16.1842L14.6875 18.5602C15.2519 18.2726 15.7109 17.8136 15.9985 17.2491L13.6225 16.0385ZM13.6588 14.8872C13.6588 15.3759 13.6578 15.6622 13.6405 15.8732C13.6246 16.0687 13.6016 16.0795 13.6225 16.0385L15.9985 17.2491C16.2011 16.8516 16.2689 16.4508 16.2983 16.0904C16.3265 15.7456 16.3255 15.3319 16.3255 14.8872H13.6588ZM13.6588 11.5538V14.8872H16.3255V11.5538H13.6588ZM18.9841 10.2205H14.9922V12.8872H18.9841V10.2205ZM18.7433 10.7843C18.5404 10.5723 18.6906 10.2205 18.9841 10.2205V12.8872C21.0383 12.8872 22.0902 10.4244 20.6697 8.94042L18.7433 10.7843ZM9.91801 1.56386L18.7433 10.7843L20.6697 8.94042L11.8445 -0.280025L9.91801 1.56386Z" fill="black" mask="url(#path-1-inside-1)"/>
</svg>
