<svg width="798" height="239" viewBox="0 0 798 239" fill="none" xmlns="http://www.w3.org/2000/svg">
<g filter="url(#filter0_d)">
<rect x="79.9999" y="60.0001" width="610" height="79" rx="16" fill="#4610AD"/>
<path d="M222.409 119H229.523V117.75H223.818V113.796H229.068V112.546H223.818V108.614H229.432V107.364H222.409V119ZM235.745 110.273H233.882V108.182H232.541V110.273H231.222V111.409H232.541V116.864C232.541 118.386 233.768 119.114 234.904 119.114C235.404 119.114 235.722 119.023 235.904 118.955L235.632 117.75C235.518 117.773 235.336 117.818 235.041 117.818C234.45 117.818 233.882 117.636 233.882 116.5V111.409H235.745V110.273ZM239.451 113.75C239.451 112.227 240.422 111.364 241.746 111.364C243.007 111.364 243.769 112.159 243.769 113.546V119H245.11V113.455C245.11 111.21 243.917 110.159 242.132 110.159C240.757 110.159 239.973 110.733 239.564 111.636H239.451V107.364H238.11V119H239.451V113.75ZM251.382 119.182C253.155 119.182 254.45 118.296 254.859 116.977L253.564 116.614C253.223 117.523 252.433 117.977 251.382 117.977C249.808 117.977 248.723 116.96 248.66 115.091H254.996V114.523C254.996 111.273 253.064 110.159 251.246 110.159C248.882 110.159 247.314 112.023 247.314 114.705C247.314 117.386 248.859 119.182 251.382 119.182ZM248.66 113.932C248.751 112.574 249.711 111.364 251.246 111.364C252.7 111.364 253.632 112.455 253.632 113.932H248.66ZM257.195 119H258.536V113.477C258.536 112.296 259.468 111.432 260.741 111.432C261.099 111.432 261.468 111.5 261.559 111.523V110.159C261.406 110.148 261.053 110.136 260.854 110.136C259.809 110.136 258.9 110.727 258.582 111.591H258.491V110.273H257.195V119ZM266.702 119.182C268.475 119.182 269.77 118.296 270.179 116.977L268.884 116.614C268.543 117.523 267.753 117.977 266.702 117.977C265.128 117.977 264.043 116.96 263.98 115.091H270.316V114.523C270.316 111.273 268.384 110.159 266.566 110.159C264.202 110.159 262.634 112.023 262.634 114.705C262.634 117.386 264.179 119.182 266.702 119.182ZM263.98 113.932C264.071 112.574 265.031 111.364 266.566 111.364C268.02 111.364 268.952 112.455 268.952 113.932H263.98ZM278.015 115.432C278.015 117.068 276.765 117.818 275.765 117.818C274.652 117.818 273.856 117 273.856 115.727V110.273H272.515V115.818C272.515 118.046 273.697 119.114 275.334 119.114C276.652 119.114 277.515 118.409 277.924 117.523H278.015V119H279.356V110.273H278.015V115.432ZM281.972 119H283.313V113.546C283.313 112.267 284.245 111.364 285.29 111.364C286.307 111.364 287.018 112.029 287.018 113.023V119H288.381V113.318C288.381 112.193 289.086 111.364 290.313 111.364C291.268 111.364 292.086 111.869 292.086 113.159V119H293.427V113.159C293.427 111.108 292.324 110.159 290.768 110.159C289.518 110.159 288.603 110.733 288.154 111.636H288.063C287.631 110.705 286.87 110.159 285.722 110.159C284.586 110.159 283.745 110.705 283.381 111.636H283.268V110.273H281.972V119Z" fill="#F2F2F2"/>
<path d="M222.264 95.0001H232.094V92.4646H225.339V88.9916H231.561V86.4561H225.339V82.9902H232.065V80.4547H222.264V95.0001ZM233.956 82.9902H238.409V95.0001H241.449V82.9902H245.902V80.4547H233.956V82.9902ZM247.87 95.0001H250.945V88.9916H257.188V95.0001H260.256V80.4547H257.188V86.4561H250.945V80.4547H247.87V95.0001Z" fill="white"/>
<path d="M159.891 100C159.891 110.988 150.984 119.895 139.997 119.895C129.009 119.895 120.102 110.988 120.102 100C120.102 89.0125 129.009 80.1055 139.997 80.1055C150.984 80.1055 159.891 89.0125 159.891 100Z" fill="#6374C3"/>
<path d="M139.933 90.769L139.81 91.1867V103.306L139.933 103.429L145.559 100.104L139.933 90.769Z" fill="white"/>
<path d="M139.933 90.769L134.307 100.104L139.933 103.429V97.5466V90.769Z" fill="white"/>
<path d="M139.933 105.259L139.863 105.343V109.661L139.933 109.863L145.562 101.935L139.933 105.259Z" fill="white"/>
<path d="M139.933 109.863V105.259L134.307 101.935L139.933 109.863Z" fill="white"/>
<path d="M139.933 103.43L145.559 100.105L139.933 97.5476V103.43Z" fill="white"/>
<path d="M134.307 100.105L139.933 103.43V97.5476L134.307 100.105Z" fill="white"/>
<path d="M350.636 106.455H351.568V105.188C353.955 105.023 355.295 103.614 355.295 101.841C355.295 99.6592 353.227 98.9547 352.023 98.6365L351.568 98.5115V94.4717C352.773 94.591 353.648 95.2388 353.773 96.2728H355.136C355.08 94.6138 353.625 93.3524 351.568 93.216V91.9092H350.636V93.2331C348.688 93.4319 347.227 94.6706 347.227 96.4547C347.227 98.0228 348.364 98.9547 350.182 99.4774L350.636 99.6081V103.909C349.443 103.784 348.466 103.171 348.364 102H346.909C347.04 103.79 348.403 105.04 350.636 105.188V106.455ZM351.568 103.909V99.8751L351.614 99.8865C352.841 100.227 353.932 100.659 353.932 101.818C353.932 102.96 352.943 103.756 351.568 103.909ZM350.636 98.2615C349.773 98.0172 348.591 97.5399 348.591 96.3865C348.591 95.4035 349.386 94.6535 350.636 94.4888V98.2615ZM361.499 93.3638H360.089L357.18 95.2956V96.7274L360.021 94.841H360.089V105H361.499V93.3638ZM368.482 105.159C370.697 105.159 372.322 103.523 372.322 101.296C372.322 99.0399 370.754 97.3865 368.618 97.3865C367.834 97.3865 367.072 97.6649 366.595 98.0456H366.527L366.936 94.6138H371.8V93.3638H365.754L365.05 99.091L366.368 99.2501C366.851 98.9035 367.675 98.6535 368.391 98.6592C369.874 98.6706 370.959 99.7956 370.959 101.318C370.959 102.813 369.913 103.909 368.482 103.909C367.288 103.909 366.339 103.142 366.232 102.091H364.868C364.953 103.864 366.482 105.159 368.482 105.159ZM378.443 105.159C380.795 105.188 382.33 103.415 382.33 101.25C382.33 99.0001 380.665 97.3865 378.67 97.3865C377.472 97.3865 376.443 97.9717 375.807 98.9319H375.716C375.722 96.0967 376.824 94.4547 378.625 94.4547C379.852 94.4547 380.591 95.2274 380.852 96.2728H382.239C381.955 94.466 380.58 93.2047 378.625 93.2047C376.006 93.2047 374.398 95.5228 374.398 99.6365C374.398 103.938 376.534 105.136 378.443 105.159ZM378.443 103.909C376.983 103.909 375.915 102.665 375.92 101.273C375.926 99.8808 377.045 98.6365 378.489 98.6365C379.915 98.6365 380.966 99.8069 380.966 101.25C380.966 102.727 379.869 103.909 378.443 103.909ZM385.017 105.091C385.58 105.091 386.04 104.631 386.04 104.068C386.04 103.506 385.58 103.046 385.017 103.046C384.455 103.046 383.994 103.506 383.994 104.068C383.994 104.631 384.455 105.091 385.017 105.091ZM391.791 105.159C394.115 105.159 395.734 103.801 395.746 101.909C395.734 100.438 394.751 99.1876 393.496 98.9547V98.8865C394.587 98.6024 395.303 97.5342 395.314 96.2956C395.303 94.5228 393.814 93.2047 391.791 93.2047C389.746 93.2047 388.257 94.5228 388.268 96.2956C388.257 97.5342 388.973 98.6024 390.087 98.8865V98.9547C388.808 99.1876 387.825 100.438 387.837 101.909C387.825 103.801 389.445 105.159 391.791 105.159ZM391.791 103.909C390.195 103.909 389.212 103.091 389.223 101.841C389.212 100.529 390.297 99.591 391.791 99.591C393.263 99.591 394.348 100.529 394.359 101.841C394.348 103.091 393.365 103.909 391.791 103.909ZM391.791 98.3865C390.518 98.3865 389.621 97.591 389.632 96.3865C389.621 95.2047 390.484 94.4319 391.791 94.4319C393.075 94.4319 393.939 95.2047 393.95 96.3865C393.939 97.591 393.041 98.3865 391.791 98.3865ZM401.855 105.159C404.111 105.159 405.787 103.744 405.787 101.841C405.787 100.364 404.912 99.2899 403.446 99.0456V98.9547C404.622 98.5967 405.355 97.6308 405.355 96.3183C405.355 94.6706 404.054 93.2047 401.901 93.2047C399.889 93.2047 398.219 94.4433 398.151 96.2728H399.514C399.565 95.1138 400.668 94.4319 401.878 94.4319C403.162 94.4319 403.991 95.2103 403.991 96.3865C403.991 97.6138 403.031 98.4092 401.651 98.4092H400.719V99.6592H401.651C403.418 99.6592 404.401 100.557 404.401 101.841C404.401 103.074 403.327 103.909 401.832 103.909C400.486 103.909 399.418 103.216 399.332 102.091H397.901C397.986 103.921 399.599 105.159 401.855 105.159Z" fill="#F2F2F2"/>
<circle opacity="0.1" cx="521" cy="100" r="8" fill="#FF7676"/>
<path d="M524.207 97.9298H517.793C517.601 97.9298 517.493 98.1329 517.612 98.2716L520.819 101.99C520.911 102.097 521.088 102.097 521.181 101.99L524.388 98.2716C524.507 98.1329 524.399 97.9298 524.207 97.9298Z" fill="#FF7676"/>
<path d="M543.227 98.5569H538.136V99.8069H543.227V98.5569ZM549.359 105.159C551.928 105.159 553.405 102.983 553.405 99.1819C553.405 95.4092 551.905 93.2047 549.359 93.2047C546.814 93.2047 545.314 95.4092 545.314 99.1819C545.314 102.983 546.791 105.159 549.359 105.159ZM549.359 103.909C547.666 103.909 546.678 102.21 546.678 99.1819C546.678 96.1592 547.678 94.4319 549.359 94.4319C551.041 94.4319 552.041 96.1592 552.041 99.1819C552.041 102.21 551.053 103.909 549.359 103.909ZM556.158 105.091C556.72 105.091 557.18 104.631 557.18 104.068C557.18 103.506 556.72 103.046 556.158 103.046C555.595 103.046 555.135 103.506 555.135 104.068C555.135 104.631 555.595 105.091 556.158 105.091ZM563.159 93.2047C560.795 93.1763 559.273 94.9547 559.273 97.091C559.273 99.341 560.932 100.955 562.932 100.955C564.136 100.955 565.159 100.364 565.795 99.4092H565.886C565.886 102.273 564.773 103.909 562.977 103.909C561.75 103.909 561 103.136 560.75 102.068H559.364C559.636 103.909 561.023 105.159 562.977 105.159C565.591 105.159 567.205 102.841 567.205 98.7047C567.205 94.4319 565.068 93.2274 563.159 93.2047ZM563.159 94.4547C564.614 94.4547 565.682 95.7047 565.682 97.0683C565.682 98.4547 564.545 99.7047 563.114 99.7047C561.682 99.7047 560.636 98.5456 560.636 97.091C560.636 95.6365 561.727 94.4547 563.159 94.4547ZM575.371 102.818C575.371 104.091 576.166 105.159 577.643 105.159C579.098 105.159 579.893 104.091 579.893 102.818V102.205C579.893 100.932 579.121 99.8638 577.643 99.8638C576.189 99.8638 575.371 100.932 575.371 102.205V102.818ZM569.575 96.1592C569.575 97.4319 570.371 98.5001 571.848 98.5001C573.303 98.5001 574.098 97.4319 574.098 96.1592V95.5456C574.098 94.2728 573.325 93.2047 571.848 93.2047C570.393 93.2047 569.575 94.2728 569.575 95.5456V96.1592ZM570.007 105H571.303L579.303 93.3638H578.007L570.007 105ZM576.53 102.205C576.53 101.5 576.848 100.841 577.643 100.841C578.462 100.841 578.734 101.5 578.734 102.205V102.818C578.734 103.523 578.439 104.182 577.643 104.182C576.825 104.182 576.53 103.523 576.53 102.818V102.205ZM570.734 95.5456C570.734 94.841 571.053 94.1819 571.848 94.1819C572.666 94.1819 572.939 94.841 572.939 95.5456V96.1592C572.939 96.8638 572.643 97.5228 571.848 97.5228C571.03 97.5228 570.734 96.8638 570.734 96.1592V95.5456Z" fill="#FF7676"/>
<path d="M703.636 106.455H704.568V105.188C706.955 105.023 708.295 103.614 708.295 101.841C708.295 99.6592 706.227 98.9547 705.023 98.6365L704.568 98.5115V94.4717C705.773 94.591 706.648 95.2388 706.773 96.2728H708.136C708.08 94.6138 706.625 93.3524 704.568 93.216V91.9092H703.636V93.2331C701.688 93.4319 700.227 94.6706 700.227 96.4547C700.227 98.0228 701.364 98.9547 703.182 99.4774L703.636 99.6081V103.909C702.443 103.784 701.466 103.171 701.364 102H699.909C700.04 103.79 701.403 105.04 703.636 105.188V106.455ZM704.568 103.909V99.8751L704.614 99.8865C705.841 100.227 706.932 100.659 706.932 101.818C706.932 102.96 705.943 103.756 704.568 103.909ZM703.636 98.2615C702.773 98.0172 701.591 97.5399 701.591 96.3865C701.591 95.4035 702.386 94.6535 703.636 94.4888V98.2615ZM714.499 93.3638H713.089L710.18 95.2956V96.7274L713.021 94.841H713.089V105H714.499V93.3638ZM721.572 105.159C723.896 105.159 725.516 103.801 725.527 101.909C725.516 100.438 724.533 99.1876 723.277 98.9547V98.8865C724.368 98.6024 725.084 97.5342 725.095 96.2956C725.084 94.5228 723.595 93.2047 721.572 93.2047C719.527 93.2047 718.038 94.5228 718.05 96.2956C718.038 97.5342 718.754 98.6024 719.868 98.8865V98.9547C718.589 99.1876 717.607 100.438 717.618 101.909C717.607 103.801 719.226 105.159 721.572 105.159ZM721.572 103.909C719.976 103.909 718.993 103.091 719.004 101.841C718.993 100.529 720.078 99.591 721.572 99.591C723.044 99.591 724.129 100.529 724.141 101.841C724.129 103.091 723.146 103.909 721.572 103.909ZM721.572 98.3865C720.3 98.3865 719.402 97.591 719.413 96.3865C719.402 95.2047 720.266 94.4319 721.572 94.4319C722.857 94.4319 723.72 95.2047 723.732 96.3865C723.72 97.591 722.822 98.3865 721.572 98.3865ZM731.795 93.3638H730.386L727.477 95.2956V96.7274L730.318 94.841H730.386V105H731.795V93.3638ZM735.142 105H742.483V103.75H737.074V103.659L739.688 100.864C741.688 98.7217 742.278 97.7217 742.278 96.4319C742.278 94.6365 740.824 93.2047 738.778 93.2047C736.739 93.2047 735.188 94.591 735.188 96.6365H736.528C736.528 95.3126 737.386 94.4319 738.733 94.4319C739.994 94.4319 740.96 95.2047 740.96 96.4319C740.96 97.5058 740.33 98.3013 738.983 99.7728L735.142 103.977V105ZM748.761 105.159C751.017 105.159 752.693 103.744 752.693 101.841C752.693 100.364 751.818 99.2899 750.352 99.0456V98.9547C751.528 98.5967 752.261 97.6308 752.261 96.3183C752.261 94.6706 750.96 93.2047 748.807 93.2047C746.795 93.2047 745.125 94.4433 745.057 96.2728H746.42C746.472 95.1138 747.574 94.4319 748.784 94.4319C750.068 94.4319 750.898 95.2103 750.898 96.3865C750.898 97.6138 749.938 98.4092 748.557 98.4092H747.625V99.6592H748.557C750.324 99.6592 751.307 100.557 751.307 101.841C751.307 103.074 750.233 103.909 748.739 103.909C747.392 103.909 746.324 103.216 746.239 102.091H744.807C744.892 103.921 746.506 105.159 748.761 105.159ZM758.653 105.159C760.869 105.159 762.494 103.523 762.494 101.296C762.494 99.0399 760.926 97.3865 758.79 97.3865C758.006 97.3865 757.244 97.6649 756.767 98.0456H756.699L757.108 94.6138H761.972V93.3638H755.926L755.222 99.091L756.54 99.2501C757.023 98.9035 757.847 98.6535 758.562 98.6592C760.045 98.6706 761.131 99.7956 761.131 101.318C761.131 102.813 760.085 103.909 758.653 103.909C757.46 103.909 756.511 103.142 756.403 102.091H755.04C755.125 103.864 756.653 105.159 758.653 105.159ZM768.547 105.159C771.115 105.159 772.592 102.983 772.592 99.1819C772.592 95.4092 771.092 93.2047 768.547 93.2047C766.001 93.2047 764.501 95.4092 764.501 99.1819C764.501 102.983 765.979 105.159 768.547 105.159ZM768.547 103.909C766.854 103.909 765.865 102.21 765.865 99.1819C765.865 96.1592 766.865 94.4319 768.547 94.4319C770.229 94.4319 771.229 96.1592 771.229 99.1819C771.229 102.21 770.24 103.909 768.547 103.909Z" fill="#F2F2F2"/>
</g>
<defs>
<filter id="filter0_d" x="-6.10352e-05" y="0.00012207" width="852.592" height="239" filterUnits="userSpaceOnUse" color-interpolation-filters="sRGB">
<feFlood flood-opacity="0" result="BackgroundImageFix"/>
<feColorMatrix in="SourceAlpha" type="matrix" values="0 0 0 0 0 0 0 0 0 0 0 0 0 0 0 0 0 0 127 0" result="hardAlpha"/>
<feOffset dy="20"/>
<feGaussianBlur stdDeviation="40"/>
<feColorMatrix type="matrix" values="0 0 0 0 0.211765 0 0 0 0 0.443137 0 0 0 0 0.913725 0 0 0 0.1 0"/>
<feBlend mode="normal" in2="BackgroundImageFix" result="effect1_dropShadow"/>
<feBlend mode="normal" in="SourceGraphic" in2="effect1_dropShadow" result="shape"/>
</filter>
</defs>
</svg>
