<svg width="25" height="25" viewBox="0 0 25 25" fill="none" xmlns="http://www.w3.org/2000/svg">
<path d="M10.5641 17.4069C10.4325 17.4077 10.3021 17.3824 10.1802 17.3327C10.0584 17.2829 9.94759 17.2096 9.85415 17.1169C9.76042 17.0239 9.68603 16.9133 9.63526 16.7915C9.58449 16.6696 9.55835 16.5389 9.55835 16.4069C9.55835 16.2749 9.58449 16.1442 9.63526 16.0223C9.68603 15.9005 9.76042 15.7899 9.85415 15.6969L13.1641 12.4069L9.98415 9.09691C9.7979 8.90955 9.69336 8.6561 9.69336 8.39191C9.69336 8.12773 9.7979 7.87427 9.98415 7.68691C10.0771 7.59318 10.1877 7.51879 10.3096 7.46802C10.4314 7.41725 10.5621 7.39111 10.6941 7.39111C10.8262 7.39111 10.9569 7.41725 11.0787 7.46802C11.2006 7.51879 11.3112 7.59318 11.4041 7.68691L15.2641 11.6869C15.4474 11.8738 15.55 12.1252 15.55 12.3869C15.55 12.6487 15.4474 12.9 15.2641 13.0869L11.2641 17.0869C11.1744 17.1838 11.0663 17.262 10.9462 17.317C10.826 17.3719 10.6962 17.4025 10.5641 17.4069Z" fill="#3671E9"/>
</svg>
