<svg width="109" height="23" viewBox="0 0 109 23" fill="none" xmlns="http://www.w3.org/2000/svg">
<g filter="url(#filter0_d)">
<path d="M10.3389 13.9937C8.69492 13.9937 7.41092 13.5677 6.48692 12.7157C5.57492 11.8637 5.08892 10.6757 5.02892 9.15172C5.01692 8.80372 5.01092 8.24572 5.01092 7.47772C5.01092 6.70972 5.01692 6.15172 5.02892 5.80372C5.08892 4.31572 5.58092 3.15172 6.50492 2.31172C7.44092 1.45972 8.71892 1.03372 10.3389 1.03372C11.4429 1.03372 12.3909 1.21972 13.1829 1.59172C13.9749 1.96372 14.5749 2.43172 14.9829 2.99572C15.3909 3.54772 15.6069 4.09372 15.6309 4.63372V4.66972C15.6309 4.76572 15.5949 4.84972 15.5229 4.92172C15.4509 4.98172 15.3609 5.01172 15.2529 5.01172H13.3989C13.2789 5.01172 13.1889 4.99372 13.1289 4.95772C13.0689 4.90972 13.0149 4.83172 12.9669 4.72372C12.7989 4.27972 12.5049 3.90172 12.0849 3.58972C11.6649 3.26572 11.0829 3.10372 10.3389 3.10372C9.49892 3.10372 8.83892 3.33172 8.35892 3.78772C7.89092 4.24372 7.63892 4.94572 7.60292 5.89372C7.59092 6.24172 7.58492 6.76972 7.58492 7.47772C7.58492 8.17372 7.59092 8.70172 7.60292 9.06172C7.67492 10.9697 8.59892 11.9237 10.3749 11.9237C11.2269 11.9237 11.9109 11.6957 12.4269 11.2397C12.9429 10.7717 13.2009 10.0817 13.2009 9.16972V8.61172H11.0049C10.8729 8.61172 10.7649 8.56972 10.6809 8.48572C10.6089 8.40172 10.5729 8.29372 10.5729 8.16172V7.20772C10.5729 7.07572 10.6089 6.96772 10.6809 6.88372C10.7649 6.79972 10.8729 6.75772 11.0049 6.75772H15.3069C15.4389 6.75772 15.5409 6.79972 15.6129 6.88372C15.6969 6.96772 15.7389 7.07572 15.7389 7.20772V9.09772C15.7389 10.0937 15.5169 10.9637 15.0729 11.7077C14.6409 12.4397 14.0169 13.0037 13.2009 13.3997C12.3849 13.7957 11.4309 13.9937 10.3389 13.9937ZM21.8624 13.9937C20.5304 13.9937 19.4684 13.6097 18.6764 12.8417C17.8964 12.0617 17.4824 10.9697 17.4344 9.56572L17.4164 9.11572L17.4344 8.66572C17.4944 7.29772 17.9144 6.22372 18.6944 5.44372C19.4864 4.66372 20.5424 4.27372 21.8624 4.27372C23.2784 4.27372 24.3704 4.70572 25.1384 5.56972C25.9184 6.43372 26.3084 7.58572 26.3084 9.02572V9.40372C26.3084 9.52372 26.2664 9.62572 26.1824 9.70972C26.0984 9.79372 25.9904 9.83572 25.8584 9.83572H19.8824V9.97972C19.9064 10.6397 20.0864 11.1977 20.4224 11.6537C20.7704 12.0977 21.2444 12.3197 21.8444 12.3197C22.5524 12.3197 23.1224 12.0437 23.5544 11.4917C23.6624 11.3597 23.7464 11.2757 23.8064 11.2397C23.8784 11.2037 23.9804 11.1857 24.1124 11.1857H25.6604C25.7684 11.1857 25.8584 11.2217 25.9304 11.2937C26.0144 11.3537 26.0564 11.4317 26.0564 11.5277C26.0564 11.8157 25.8824 12.1577 25.5344 12.5537C25.1984 12.9377 24.7124 13.2737 24.0764 13.5617C23.4404 13.8497 22.7024 13.9937 21.8624 13.9937ZM23.8604 8.32372V8.26972C23.8604 7.56172 23.6804 6.99172 23.3204 6.55972C22.9724 6.12772 22.4864 5.91172 21.8624 5.91172C21.2384 5.91172 20.7524 6.12772 20.4044 6.55972C20.0564 6.99172 19.8824 7.56172 19.8824 8.26972V8.32372H23.8604ZM32.4139 13.8137C31.3219 13.8137 30.4999 13.5317 29.9479 12.9677C29.4079 12.3917 29.1379 11.5517 29.1379 10.4477V6.36172H27.7159C27.5959 6.36172 27.4939 6.31972 27.4099 6.23572C27.3259 6.13972 27.2839 6.03172 27.2839 5.91172V4.88572C27.2839 4.76572 27.3259 4.66372 27.4099 4.57972C27.4939 4.49572 27.5959 4.45372 27.7159 4.45372H29.1379V1.46572C29.1379 1.33372 29.1799 1.23172 29.2639 1.15972C29.3479 1.07572 29.4499 1.03372 29.5699 1.03372H31.0279C31.1599 1.03372 31.2619 1.07572 31.3339 1.15972C31.4179 1.23172 31.4599 1.33372 31.4599 1.46572V4.45372H33.7099C33.8419 4.45372 33.9439 4.49572 34.0159 4.57972C34.0999 4.65172 34.1419 4.75372 34.1419 4.88572V5.91172C34.1419 6.04372 34.0999 6.15172 34.0159 6.23572C33.9319 6.31972 33.8299 6.36172 33.7099 6.36172H31.4599V10.2677C31.4599 10.7837 31.5499 11.1737 31.7299 11.4377C31.9099 11.7017 32.2099 11.8337 32.6299 11.8337H33.8719C33.9919 11.8337 34.0939 11.8757 34.1779 11.9597C34.2619 12.0437 34.3039 12.1457 34.3039 12.2657V13.3817C34.3039 13.5017 34.2619 13.6037 34.1779 13.6877C34.1059 13.7717 34.0039 13.8137 33.8719 13.8137H32.4139ZM44.604 13.9937C43.536 13.9937 42.618 13.8317 41.85 13.5077C41.082 13.1837 40.5 12.7577 40.104 12.2297C39.708 11.7017 39.498 11.1317 39.474 10.5197C39.474 10.4117 39.51 10.3217 39.582 10.2497C39.654 10.1777 39.744 10.1417 39.852 10.1417H41.454C41.598 10.1417 41.706 10.1717 41.778 10.2317C41.862 10.2797 41.94 10.3637 42.012 10.4837C42.132 10.8917 42.408 11.2337 42.84 11.5097C43.272 11.7857 43.86 11.9237 44.604 11.9237C45.456 11.9237 46.098 11.7857 46.53 11.5097C46.962 11.2217 47.178 10.8257 47.178 10.3217C47.178 9.98572 47.064 9.70972 46.836 9.49372C46.62 9.27772 46.29 9.09172 45.846 8.93572C45.414 8.77972 44.766 8.58772 43.902 8.35972C42.486 8.02372 41.448 7.57972 40.788 7.02772C40.14 6.46372 39.816 5.66572 39.816 4.63372C39.816 3.93772 40.002 3.31972 40.374 2.77972C40.758 2.23972 41.304 1.81372 42.012 1.50172C42.732 1.18972 43.566 1.03372 44.514 1.03372C45.498 1.03372 46.35 1.20772 47.07 1.55572C47.79 1.90372 48.336 2.34172 48.708 2.86972C49.092 3.38572 49.296 3.90172 49.32 4.41772C49.32 4.52572 49.284 4.61572 49.212 4.68772C49.14 4.75972 49.05 4.79572 48.942 4.79572H47.268C47.016 4.79572 46.842 4.68172 46.746 4.45372C46.674 4.06972 46.434 3.75172 46.026 3.49972C45.618 3.23572 45.114 3.10372 44.514 3.10372C43.842 3.10372 43.314 3.22972 42.93 3.48172C42.546 3.73372 42.354 4.09972 42.354 4.57972C42.354 4.91572 42.45 5.19172 42.642 5.40772C42.834 5.62372 43.134 5.81572 43.542 5.98372C43.962 6.15172 44.562 6.33772 45.342 6.54172C46.398 6.78172 47.238 7.05172 47.862 7.35172C48.498 7.65172 48.966 8.02972 49.266 8.48572C49.566 8.94172 49.716 9.52372 49.716 10.2317C49.716 10.9997 49.5 11.6717 49.068 12.2477C48.648 12.8117 48.048 13.2437 47.268 13.5437C46.5 13.8437 45.612 13.9937 44.604 13.9937ZM55.7929 13.8137C54.7009 13.8137 53.8789 13.5317 53.3269 12.9677C52.7869 12.3917 52.5169 11.5517 52.5169 10.4477V6.36172H51.0949C50.9749 6.36172 50.8729 6.31972 50.7889 6.23572C50.7049 6.13972 50.6629 6.03172 50.6629 5.91172V4.88572C50.6629 4.76572 50.7049 4.66372 50.7889 4.57972C50.8729 4.49572 50.9749 4.45372 51.0949 4.45372H52.5169V1.46572C52.5169 1.33372 52.5589 1.23172 52.6429 1.15972C52.7269 1.07572 52.8289 1.03372 52.9489 1.03372H54.4069C54.5389 1.03372 54.6409 1.07572 54.7129 1.15972C54.7969 1.23172 54.8389 1.33372 54.8389 1.46572V4.45372H57.0889C57.2209 4.45372 57.3229 4.49572 57.3949 4.57972C57.4789 4.65172 57.5209 4.75372 57.5209 4.88572V5.91172C57.5209 6.04372 57.4789 6.15172 57.3949 6.23572C57.3109 6.31972 57.2089 6.36172 57.0889 6.36172H54.8389V10.2677C54.8389 10.7837 54.9289 11.1737 55.1089 11.4377C55.2889 11.7017 55.5889 11.8337 56.0089 11.8337H57.2509C57.3709 11.8337 57.4729 11.8757 57.5569 11.9597C57.6409 12.0437 57.6829 12.1457 57.6829 12.2657V13.3817C57.6829 13.5017 57.6409 13.6037 57.5569 13.6877C57.4849 13.7717 57.3829 13.8137 57.2509 13.8137H55.7929ZM61.9977 13.9937C61.3857 13.9937 60.8217 13.8737 60.3057 13.6337C59.8017 13.3817 59.3997 13.0457 59.0997 12.6257C58.8117 12.2057 58.6677 11.7437 58.6677 11.2397C58.6677 10.4237 58.9977 9.76372 59.6577 9.25972C60.3177 8.75572 61.2237 8.41372 62.3757 8.23372L64.8417 7.87372V7.49572C64.8417 6.96772 64.7097 6.57172 64.4457 6.30772C64.1817 6.04372 63.7557 5.91172 63.1677 5.91172C62.7717 5.91172 62.4477 5.98972 62.1957 6.14572C61.9557 6.28972 61.7637 6.43372 61.6197 6.57772C61.4757 6.73372 61.3797 6.83572 61.3317 6.88372C61.2837 7.02772 61.1937 7.09972 61.0617 7.09972H59.6757C59.5677 7.09972 59.4717 7.06372 59.3877 6.99172C59.3157 6.91972 59.2797 6.82372 59.2797 6.70372C59.2917 6.40372 59.4357 6.06172 59.7117 5.67772C59.9997 5.29372 60.4377 4.96372 61.0257 4.68772C61.6137 4.41172 62.3337 4.27372 63.1857 4.27372C64.6017 4.27372 65.6337 4.59172 66.2817 5.22772C66.9297 5.86372 67.2537 6.69772 67.2537 7.72972V13.3817C67.2537 13.5017 67.2117 13.6037 67.1277 13.6877C67.0557 13.7717 66.9537 13.8137 66.8217 13.8137H65.3637C65.2437 13.8137 65.1417 13.7717 65.0577 13.6877C64.9737 13.6037 64.9317 13.5017 64.9317 13.3817V12.6797C64.6677 13.0637 64.2897 13.3817 63.7977 13.6337C63.3177 13.8737 62.7177 13.9937 61.9977 13.9937ZM62.6097 12.2837C63.2697 12.2837 63.8097 12.0677 64.2297 11.6357C64.6497 11.2037 64.8597 10.5737 64.8597 9.74572V9.36772L63.0597 9.65572C62.3637 9.76372 61.8357 9.93772 61.4757 10.1777C61.1277 10.4177 60.9537 10.7117 60.9537 11.0597C60.9537 11.4437 61.1157 11.7437 61.4397 11.9597C61.7637 12.1757 62.1537 12.2837 62.6097 12.2837ZM69.9949 13.8137C69.8749 13.8137 69.7729 13.7717 69.6889 13.6877C69.6049 13.6037 69.5629 13.5017 69.5629 13.3817V4.90372C69.5629 4.78372 69.6049 4.68172 69.6889 4.59772C69.7729 4.50172 69.8749 4.45372 69.9949 4.45372H71.4529C71.5849 4.45372 71.6929 4.49572 71.7769 4.57972C71.8609 4.66372 71.9029 4.77172 71.9029 4.90372V5.64172C72.1909 5.25772 72.5509 4.96372 72.9829 4.75972C73.4269 4.55572 73.9309 4.45372 74.4949 4.45372H75.2329C75.3649 4.45372 75.4669 4.49572 75.5389 4.57972C75.6229 4.65172 75.6649 4.75372 75.6649 4.88572V6.18172C75.6649 6.30172 75.6229 6.40372 75.5389 6.48772C75.4669 6.57172 75.3649 6.61372 75.2329 6.61372H73.8289C73.2649 6.61372 72.8209 6.77572 72.4969 7.09972C72.1729 7.42372 72.0109 7.86772 72.0109 8.43172V13.3817C72.0109 13.5017 71.9689 13.6037 71.8849 13.6877C71.8009 13.7717 71.6929 13.8137 71.5609 13.8137H69.9949ZM81.2987 13.8137C80.2067 13.8137 79.3847 13.5317 78.8327 12.9677C78.2927 12.3917 78.0227 11.5517 78.0227 10.4477V6.36172H76.6007C76.4807 6.36172 76.3787 6.31972 76.2947 6.23572C76.2107 6.13972 76.1687 6.03172 76.1687 5.91172V4.88572C76.1687 4.76572 76.2107 4.66372 76.2947 4.57972C76.3787 4.49572 76.4807 4.45372 76.6007 4.45372H78.0227V1.46572C78.0227 1.33372 78.0647 1.23172 78.1487 1.15972C78.2327 1.07572 78.3347 1.03372 78.4547 1.03372H79.9127C80.0447 1.03372 80.1467 1.07572 80.2187 1.15972C80.3027 1.23172 80.3447 1.33372 80.3447 1.46572V4.45372H82.5947C82.7267 4.45372 82.8287 4.49572 82.9007 4.57972C82.9847 4.65172 83.0267 4.75372 83.0267 4.88572V5.91172C83.0267 6.04372 82.9847 6.15172 82.9007 6.23572C82.8167 6.31972 82.7147 6.36172 82.5947 6.36172H80.3447V10.2677C80.3447 10.7837 80.4347 11.1737 80.6147 11.4377C80.7947 11.7017 81.0947 11.8337 81.5147 11.8337H82.7567C82.8767 11.8337 82.9787 11.8757 83.0627 11.9597C83.1467 12.0437 83.1887 12.1457 83.1887 12.2657V13.3817C83.1887 13.5017 83.1467 13.6037 83.0627 13.6877C82.9907 13.7717 82.8887 13.8137 82.7567 13.8137H81.2987ZM88.8175 13.9937C87.4855 13.9937 86.4235 13.6097 85.6315 12.8417C84.8515 12.0617 84.4375 10.9697 84.3895 9.56572L84.3715 9.11572L84.3895 8.66572C84.4495 7.29772 84.8695 6.22372 85.6495 5.44372C86.4415 4.66372 87.4975 4.27372 88.8175 4.27372C90.2335 4.27372 91.3255 4.70572 92.0935 5.56972C92.8735 6.43372 93.2635 7.58572 93.2635 9.02572V9.40372C93.2635 9.52372 93.2215 9.62572 93.1375 9.70972C93.0535 9.79372 92.9455 9.83572 92.8135 9.83572H86.8375V9.97972C86.8615 10.6397 87.0415 11.1977 87.3775 11.6537C87.7255 12.0977 88.1995 12.3197 88.7995 12.3197C89.5075 12.3197 90.0775 12.0437 90.5095 11.4917C90.6175 11.3597 90.7015 11.2757 90.7615 11.2397C90.8335 11.2037 90.9355 11.1857 91.0675 11.1857H92.6155C92.7235 11.1857 92.8135 11.2217 92.8855 11.2937C92.9695 11.3537 93.0115 11.4317 93.0115 11.5277C93.0115 11.8157 92.8375 12.1577 92.4895 12.5537C92.1535 12.9377 91.6675 13.2737 91.0315 13.5617C90.3955 13.8497 89.6575 13.9937 88.8175 13.9937ZM90.8155 8.32372V8.26972C90.8155 7.56172 90.6355 6.99172 90.2755 6.55972C89.9275 6.12772 89.4415 5.91172 88.8175 5.91172C88.1935 5.91172 87.7075 6.12772 87.3595 6.55972C87.0115 6.99172 86.8375 7.56172 86.8375 8.26972V8.32372H90.8155ZM98.6482 13.9937C97.4362 13.9937 96.5062 13.6037 95.8582 12.8237C95.2102 12.0437 94.8622 11.0057 94.8142 9.70972L94.7962 9.11572L94.8142 8.53972C94.8502 7.27972 95.1922 6.25372 95.8402 5.46172C96.5002 4.66972 97.4362 4.27372 98.6482 4.27372C99.8122 4.27372 100.736 4.66972 101.42 5.46172V1.46572C101.42 1.33372 101.462 1.23172 101.546 1.15972C101.63 1.07572 101.732 1.03372 101.852 1.03372H103.382C103.514 1.03372 103.616 1.07572 103.688 1.15972C103.772 1.23172 103.814 1.33372 103.814 1.46572V13.3817C103.814 13.5017 103.772 13.6037 103.688 13.6877C103.616 13.7717 103.514 13.8137 103.382 13.8137H101.96C101.84 13.8137 101.738 13.7717 101.654 13.6877C101.57 13.6037 101.528 13.5017 101.528 13.3817V12.7157C100.844 13.5677 99.8842 13.9937 98.6482 13.9937ZM99.3142 12.0677C100.01 12.0677 100.526 11.8457 100.862 11.4017C101.198 10.9577 101.384 10.4117 101.42 9.76372C101.432 9.61972 101.438 9.38572 101.438 9.06172C101.438 8.74972 101.432 8.52172 101.42 8.37772C101.396 7.77772 101.204 7.26772 100.844 6.84772C100.496 6.41572 99.9862 6.19972 99.3142 6.19972C98.0182 6.19972 97.3282 6.99772 97.2442 8.59372L97.2262 9.13372L97.2442 9.67372C97.3282 11.2697 98.0182 12.0677 99.3142 12.0677Z" fill="white"/>
<path d="M6.48692 12.7157L5.80424 13.4465L5.80903 13.4509L6.48692 12.7157ZM5.02892 9.15172L4.0295 9.18618L4.02969 9.19106L5.02892 9.15172ZM5.02892 5.80372L4.02971 5.76343L4.02951 5.76926L5.02892 5.80372ZM6.50492 2.31172L7.17759 3.05166L7.17806 3.05123L6.50492 2.31172ZM14.9829 2.99572L14.1727 3.58187L14.1787 3.59011L14.9829 2.99572ZM15.6309 4.63372H16.6309V4.61151L16.6299 4.58932L15.6309 4.63372ZM15.5229 4.92172L16.1631 5.68994L16.1979 5.6609L16.23 5.62883L15.5229 4.92172ZM13.1289 4.95772L12.5042 5.73859L12.5567 5.78061L12.6144 5.81522L13.1289 4.95772ZM12.9669 4.72372L12.0316 5.07761L12.0416 5.10404L12.0531 5.12986L12.9669 4.72372ZM12.0849 3.58972L11.4741 4.3815L11.4813 4.38705L11.4886 4.39246L12.0849 3.58972ZM8.35892 3.78772L7.67011 3.06266L7.66105 3.07149L8.35892 3.78772ZM7.60292 5.89372L6.60363 5.85577L6.60351 5.85926L7.60292 5.89372ZM7.60292 9.06172L6.60346 9.09504L6.60363 9.09943L7.60292 9.06172ZM12.4269 11.2397L13.0892 11.9891L13.0987 11.9804L12.4269 11.2397ZM13.2009 8.61172H14.2009V7.61172H13.2009V8.61172ZM10.6809 8.48572L9.92166 9.13651L9.94666 9.16567L9.97381 9.19283L10.6809 8.48572ZM10.6809 6.88372L9.97381 6.17661L9.94666 6.20377L9.92166 6.23293L10.6809 6.88372ZM15.6129 6.88372L14.8537 7.53451L14.8787 7.56367L14.9058 7.59083L15.6129 6.88372ZM15.0729 11.7077L14.2142 11.1953L14.2117 11.1995L15.0729 11.7077ZM13.2009 13.3997L12.7643 12.5001L13.2009 13.3997ZM10.3389 12.9937C8.86662 12.9937 7.85298 12.6151 7.1648 11.9806L5.80903 13.4509C6.96885 14.5203 8.52322 14.9937 10.3389 14.9937V12.9937ZM7.16958 11.985C6.4911 11.3511 6.08023 10.4353 6.02814 9.11238L4.02969 9.19106C4.09761 10.9161 4.65873 12.3763 5.80426 13.4465L7.16958 11.985ZM6.02832 9.11726C6.01696 8.78776 6.01092 8.2445 6.01092 7.47772H4.01092C4.01092 8.24694 4.01687 8.81968 4.02951 9.18618L6.02832 9.11726ZM6.01092 7.47772C6.01092 6.71094 6.01696 6.16768 6.02832 5.83818L4.02951 5.76926C4.01687 6.13576 4.01092 6.7085 4.01092 7.47772H6.01092ZM6.0281 5.84401C6.07955 4.56816 6.48926 3.67742 7.17759 3.05166L5.83224 1.57178C4.67258 2.62602 4.09828 4.06328 4.02973 5.76343L6.0281 5.84401ZM7.17806 3.05123C7.88284 2.40971 8.89589 2.03372 10.3389 2.03372V0.03372C8.54194 0.03372 6.999 0.509735 5.83177 1.57221L7.17806 3.05123ZM10.3389 2.03372C11.3333 2.03372 12.1289 2.20145 12.7578 2.49685L13.6081 0.686591C12.653 0.237988 11.5526 0.03372 10.3389 0.03372V2.03372ZM12.7578 2.49685C13.4352 2.81503 13.8863 3.186 14.1727 3.58184L15.7931 2.4096C15.2635 1.67744 14.5146 1.11241 13.6081 0.686591L12.7578 2.49685ZM14.1787 3.59011C14.5004 4.02527 14.6188 4.38421 14.6319 4.67812L16.6299 4.58932C16.595 3.80323 16.2815 3.07017 15.7871 2.40133L14.1787 3.59011ZM14.6309 4.63372V4.66972H16.6309V4.63372H14.6309ZM14.6309 4.66972C14.6309 4.58925 14.6468 4.49952 14.6848 4.4108C14.7223 4.32324 14.7721 4.25831 14.8158 4.21461L16.23 5.62883C16.4769 5.38192 16.6309 5.04828 16.6309 4.66972H14.6309ZM14.8827 4.1535C14.9437 4.10268 15.0134 4.06448 15.0852 4.04054C15.1552 4.01721 15.2141 4.01172 15.2529 4.01172V6.01172C15.5572 6.01172 15.8845 5.92214 16.1631 5.68994L14.8827 4.1535ZM15.2529 4.01172H13.3989V6.01172H15.2529V4.01172ZM13.3989 4.01172C13.3859 4.01172 13.4018 4.01049 13.4375 4.01764C13.4719 4.0245 13.5499 4.04409 13.6434 4.10022L12.6144 5.81522C12.9048 5.98944 13.2116 6.01172 13.3989 6.01172V4.01172ZM13.7536 4.17685C13.8147 4.2257 13.8498 4.27116 13.8656 4.29401C13.8816 4.31709 13.8853 4.32775 13.8807 4.31758L12.0531 5.12986C12.1343 5.31258 12.2698 5.55108 12.5042 5.73859L13.7536 4.17685ZM13.9022 4.36983C13.6597 3.72881 13.2386 3.201 12.6812 2.78698L11.4886 4.39246C11.7713 4.60244 11.9382 4.83063 12.0316 5.07761L13.9022 4.36983ZM12.6957 2.79794C12.0424 2.29398 11.2169 2.10372 10.3389 2.10372V4.10372C10.949 4.10372 11.2874 4.23746 11.4741 4.3815L12.6957 2.79794ZM10.3389 2.10372C9.31442 2.10372 8.38228 2.38621 7.67017 3.06272L9.04767 4.51272C9.29555 4.27723 9.68342 4.10372 10.3389 4.10372V2.10372ZM7.66105 3.07149C6.94069 3.77338 6.645 4.76648 6.60364 5.85577L8.6022 5.93167C8.63283 5.12496 8.84114 4.71406 9.05678 4.50395L7.66105 3.07149ZM6.60351 5.85926C6.59089 6.22523 6.58492 6.76739 6.58492 7.47772H8.58492C8.58492 6.77205 8.59094 6.25821 8.60232 5.92818L6.60351 5.85926ZM6.58492 7.47772C6.58492 8.17664 6.5909 8.718 6.60347 9.09504L8.60236 9.02841C8.59093 8.68544 8.58492 8.1708 8.58492 7.47772H6.58492ZM6.60363 9.09943C6.64491 10.1932 6.93595 11.1857 7.63161 11.9039C8.33901 12.6343 9.31087 12.9237 10.3749 12.9237V10.9237C9.66297 10.9237 9.28483 10.7361 9.06823 10.5125C8.83989 10.2767 8.63293 9.83821 8.60221 9.02401L6.60363 9.09943ZM10.3749 12.9237C11.4106 12.9237 12.3498 12.6424 13.0891 11.989L11.7647 10.4904C11.4721 10.749 11.0432 10.9237 10.3749 10.9237V12.9237ZM13.0987 11.9804C13.8834 11.2688 14.2009 10.2717 14.2009 9.16972H12.2009C12.2009 9.89171 12.0024 10.2747 11.7551 10.499L13.0987 11.9804ZM14.2009 9.16972V8.61172H12.2009V9.16972H14.2009ZM13.2009 7.61172H11.0049V9.61172H13.2009V7.61172ZM11.0049 7.61172C11.0458 7.61172 11.1109 7.61847 11.1874 7.64822C11.2659 7.67876 11.3345 7.72509 11.388 7.77861L9.97381 9.19283C10.267 9.48603 10.64 9.61172 11.0049 9.61172V7.61172ZM11.4402 7.83493C11.4908 7.89401 11.5269 7.9604 11.5486 8.02549C11.5695 8.08825 11.5729 8.13702 11.5729 8.16172H9.57292C9.57292 8.48411 9.66551 8.83768 9.92166 9.13651L11.4402 7.83493ZM11.5729 8.16172V7.20772H9.57292V8.16172H11.5729ZM11.5729 7.20772C11.5729 7.23242 11.5695 7.28119 11.5486 7.34395C11.5269 7.40904 11.4908 7.47543 11.4402 7.53451L9.92166 6.23293C9.66551 6.53177 9.57292 6.88533 9.57292 7.20772H11.5729ZM11.388 7.59083C11.3345 7.64435 11.2659 7.69068 11.1874 7.72122C11.1109 7.75097 11.0458 7.75772 11.0049 7.75772V5.75772C10.64 5.75772 10.267 5.88341 9.97381 6.17661L11.388 7.59083ZM11.0049 7.75772H15.3069V5.75772H11.0049V7.75772ZM15.3069 7.75772C15.2674 7.75772 15.1927 7.75138 15.1017 7.7139C15.0062 7.67459 14.9201 7.61204 14.8537 7.53451L16.3722 6.23293C16.0732 5.88418 15.6688 5.75772 15.3069 5.75772V7.75772ZM14.9058 7.59083C14.8523 7.53731 14.806 7.4687 14.7754 7.39017C14.7457 7.31369 14.7389 7.24862 14.7389 7.20772H16.7389C16.7389 6.8428 16.6132 6.46982 16.32 6.17661L14.9058 7.59083ZM14.7389 7.20772V9.09772H16.7389V7.20772H14.7389ZM14.7389 9.09772C14.7389 9.94073 14.5526 10.6282 14.2142 11.1953L15.9316 12.2202C16.4812 11.2992 16.7389 10.2467 16.7389 9.09772H14.7389ZM14.2117 11.1995C13.8865 11.7505 13.4158 12.1839 12.7643 12.5001L13.6375 14.2994C14.618 13.8236 15.3953 13.1289 15.9341 12.216L14.2117 11.1995ZM12.7643 12.5001C12.1094 12.8179 11.3101 12.9937 10.3389 12.9937V14.9937C11.5517 14.9937 12.6605 14.7735 13.6375 14.2994L12.7643 12.5001ZM18.6764 12.8417L17.9693 13.5488L17.9748 13.5543L17.9803 13.5596L18.6764 12.8417ZM17.4344 9.56572L18.4339 9.53155L18.4336 9.52575L17.4344 9.56572ZM17.4164 9.11572L16.4172 9.07575L16.4156 9.11572L16.4172 9.15569L17.4164 9.11572ZM17.4344 8.66572L16.4354 8.6219L16.4352 8.62575L17.4344 8.66572ZM18.6944 5.44372L17.9927 4.73122L17.9873 4.73661L18.6944 5.44372ZM25.1384 5.56972L24.391 6.2341L24.3962 6.23982L25.1384 5.56972ZM26.1824 9.70972L26.8895 10.4168L26.8895 10.4168L26.1824 9.70972ZM19.8824 9.83572V8.83572H18.8824V9.83572H19.8824ZM19.8824 9.97972H18.8824V9.9979L18.8831 10.0161L19.8824 9.97972ZM20.4224 11.6537L19.6174 12.2469L19.6262 12.2589L19.6354 12.2706L20.4224 11.6537ZM23.5544 11.4917L22.7805 10.8585L22.7736 10.8669L22.7669 10.8754L23.5544 11.4917ZM23.8064 11.2397L23.3592 10.3453L23.3249 10.3625L23.2919 10.3822L23.8064 11.2397ZM25.9304 11.2937L25.2233 12.0008L25.2818 12.0593L25.3492 12.1075L25.9304 11.2937ZM25.5344 12.5537L24.7833 11.8936L24.7819 11.8952L25.5344 12.5537ZM24.0764 13.5617L24.4889 14.4727L24.0764 13.5617ZM23.8604 8.32372V9.32372H24.8604V8.32372H23.8604ZM23.3204 6.55972L22.5417 7.18705L22.5469 7.19352L22.5522 7.1999L23.3204 6.55972ZM20.4044 6.55972L19.6257 5.93239V5.93239L20.4044 6.55972ZM19.8824 8.32372H18.8824V9.32372H19.8824V8.32372ZM21.8624 12.9937C20.733 12.9937 19.9406 12.6746 19.3726 12.1238L17.9803 13.5596C18.9963 14.5449 20.3278 14.9937 21.8624 14.9937V12.9937ZM19.3835 12.1346C18.8279 11.5789 18.4757 10.7543 18.4338 9.53155L16.435 9.59989C16.4892 11.1852 16.965 12.5445 17.9693 13.5488L19.3835 12.1346ZM18.4336 9.52575L18.4156 9.07575L16.4172 9.15569L16.4352 9.60569L18.4336 9.52575ZM18.4156 9.15569L18.4336 8.70569L16.4352 8.62575L16.4172 9.07575L18.4156 9.15569ZM18.4335 8.70954C18.4853 7.52837 18.8384 6.71398 19.4015 6.15083L17.9873 4.73661C16.9905 5.73347 16.5036 7.06708 16.4354 8.6219L18.4335 8.70954ZM19.3961 6.1562C19.9666 5.59441 20.7523 5.27372 21.8624 5.27372V3.27372C20.3326 3.27372 19.0063 3.73303 17.9927 4.73124L19.3961 6.1562ZM21.8624 5.27372C23.0624 5.27372 23.8546 5.63061 24.391 6.23408L25.8858 4.90536C24.8863 3.78083 23.4944 3.27372 21.8624 3.27372V5.27372ZM24.3962 6.23982C24.9733 6.87916 25.3084 7.77202 25.3084 9.02572H27.3084C27.3084 7.39942 26.8635 5.98828 25.8807 4.89962L24.3962 6.23982ZM25.3084 9.02572V9.40372H27.3084V9.02572H25.3084ZM25.3084 9.40372C25.3084 9.34466 25.3193 9.26949 25.3523 9.18947C25.3853 9.10925 25.4312 9.04672 25.4753 9.00261L26.8895 10.4168C27.1632 10.1432 27.3084 9.78591 27.3084 9.40372H25.3084ZM25.4753 9.00261C25.5288 8.94909 25.5975 8.90276 25.676 8.87222C25.7525 8.84247 25.8175 8.83572 25.8584 8.83572V10.8357C26.2234 10.8357 26.5963 10.71 26.8895 10.4168L25.4753 9.00261ZM25.8584 8.83572H19.8824V10.8357H25.8584V8.83572ZM18.8824 9.83572V9.97972H20.8824V9.83572H18.8824ZM18.8831 10.0161C18.9132 10.8428 19.1433 11.6035 19.6174 12.2469L21.2275 11.0605C21.0296 10.7919 20.8997 10.4367 20.8818 9.94338L18.8831 10.0161ZM19.6354 12.2706C20.1864 12.9737 20.9597 13.3197 21.8444 13.3197V11.3197C21.5291 11.3197 21.3544 11.2218 21.2095 11.0368L19.6354 12.2706ZM21.8444 13.3197C22.8563 13.3197 23.7182 12.9051 24.3419 12.108L22.7669 10.8754C22.5267 11.1824 22.2485 11.3197 21.8444 11.3197V13.3197ZM24.3284 12.125C24.3482 12.1007 24.3648 12.0813 24.3783 12.0661C24.392 12.0507 24.401 12.0414 24.4055 12.0368C24.4077 12.0347 24.4082 12.0342 24.4071 12.0353C24.406 12.0363 24.4027 12.0393 24.3971 12.0439C24.3916 12.0485 24.3829 12.0556 24.371 12.0642C24.3592 12.0728 24.3424 12.0843 24.3209 12.0972L23.2919 10.3822C23.0665 10.5175 22.8862 10.7293 22.7805 10.8585L24.3284 12.125ZM24.2537 12.1341C24.1827 12.1696 24.129 12.1808 24.1107 12.184C24.0913 12.1874 24.0897 12.1857 24.1124 12.1857V10.1857C23.9129 10.1857 23.6316 10.2091 23.3592 10.3453L24.2537 12.1341ZM24.1124 12.1857H25.6604V10.1857H24.1124V12.1857ZM25.6604 12.1857C25.6017 12.1857 25.5234 12.1755 25.4375 12.1412C25.3505 12.1064 25.2782 12.0557 25.2233 12.0008L26.6375 10.5866C26.3657 10.3148 26.0158 10.1857 25.6604 10.1857V12.1857ZM25.3492 12.1075C25.2873 12.0632 25.207 11.9875 25.1445 11.8713C25.0805 11.7526 25.0564 11.631 25.0564 11.5277H27.0564C27.0564 11.0813 26.8353 10.7111 26.5117 10.48L25.3492 12.1075ZM25.0564 11.5277C25.0564 11.4706 25.0729 11.4715 25.0347 11.5468C24.9967 11.6214 24.9211 11.7368 24.7833 11.8936L26.2856 13.2138C26.6755 12.7702 27.0564 12.1924 27.0564 11.5277H25.0564ZM24.7819 11.8952C24.5678 12.1399 24.215 12.4012 23.6639 12.6508L24.4889 14.4727C25.2099 14.1462 25.8291 13.7356 26.287 13.2122L24.7819 11.8952ZM23.6639 12.6508C23.1811 12.8694 22.5886 12.9937 21.8624 12.9937V14.9937C22.8163 14.9937 23.6997 14.83 24.4889 14.4727L23.6639 12.6508ZM24.8604 8.32372V8.26972H22.8604V8.32372H24.8604ZM24.8604 8.26972C24.8604 7.38997 24.6339 6.57385 24.0887 5.91954L22.5522 7.1999C22.727 7.40959 22.8604 7.73347 22.8604 8.26972H24.8604ZM24.0992 5.93239C23.5361 5.23333 22.7463 4.91172 21.8624 4.91172V6.91172C22.2266 6.91172 22.4088 7.02211 22.5417 7.18705L24.0992 5.93239ZM21.8624 4.91172C20.9786 4.91172 20.1888 5.23333 19.6257 5.93239L21.1832 7.18705C21.3161 7.02211 21.4983 6.91172 21.8624 6.91172V4.91172ZM19.6257 5.93239C19.0989 6.58636 18.8824 7.39762 18.8824 8.26972H20.8824C20.8824 7.72582 21.014 7.39708 21.1832 7.18705L19.6257 5.93239ZM18.8824 8.26972V8.32372H20.8824V8.26972H18.8824ZM19.8824 9.32372H23.8604V7.32372H19.8824V9.32372ZM29.9479 12.9677L29.2184 13.6517L29.2258 13.6595L29.2333 13.6672L29.9479 12.9677ZM29.1379 6.36172H30.1379V5.36172H29.1379V6.36172ZM27.41 6.23572L26.6574 6.89423L26.6793 6.91928L26.7028 6.94283L27.41 6.23572ZM27.41 4.57972L28.1171 5.28683L28.1171 5.28683L27.41 4.57972ZM29.1379 4.45372V5.45372H30.1379V4.45372H29.1379ZM29.264 1.15972L29.9147 1.91898L29.9439 1.89398L29.9711 1.86683L29.264 1.15972ZM31.334 1.15972L30.5747 1.81051L30.6248 1.86892L30.6832 1.91898L31.334 1.15972ZM31.4599 4.45372H30.4599V5.45372H31.4599V4.45372ZM34.0159 4.57972L33.2567 5.23051L33.3068 5.28892L33.3652 5.33898L34.0159 4.57972ZM31.4599 6.36172V5.36172H30.4599V6.36172H31.4599ZM31.7299 11.4377L30.9037 12.0011V12.0011L31.7299 11.4377ZM34.1779 11.9597L34.8851 11.2526V11.2526L34.1779 11.9597ZM34.1779 13.6877L33.4708 12.9806L33.4437 13.0078L33.4187 13.0369L34.1779 13.6877ZM32.4139 12.8137C31.4853 12.8137 30.9637 12.5758 30.6626 12.2683L29.2333 13.6672C30.0362 14.4876 31.1586 14.8137 32.4139 14.8137V12.8137ZM30.6775 12.2838C30.3702 11.956 30.1379 11.3994 30.1379 10.4477H28.1379C28.1379 11.704 28.4457 12.8275 29.2184 13.6517L30.6775 12.2838ZM30.1379 10.4477V6.36172H28.1379V10.4477H30.1379ZM29.1379 5.36172H27.716V7.36172H29.1379V5.36172ZM27.716 5.36172C27.775 5.36172 27.8502 5.37259 27.9302 5.40554C28.0104 5.43857 28.073 5.48451 28.1171 5.52861L26.7028 6.94283C26.9765 7.21649 27.3338 7.36172 27.716 7.36172V5.36172ZM28.1625 5.57722C28.1894 5.60792 28.2223 5.65552 28.2475 5.72027C28.273 5.78594 28.2839 5.85222 28.2839 5.91172H26.2839C26.2839 6.29004 26.4248 6.62842 26.6574 6.89423L28.1625 5.57722ZM28.2839 5.91172V4.88572H26.2839V5.91172H28.2839ZM28.2839 4.88572C28.2839 4.94479 28.2731 5.01995 28.2401 5.09997C28.2071 5.18019 28.1612 5.24273 28.1171 5.28683L26.7028 3.87261C26.4292 4.14628 26.2839 4.50353 26.2839 4.88572H28.2839ZM28.1171 5.28683C28.073 5.33093 28.0104 5.37686 27.9302 5.4099C27.8502 5.44285 27.775 5.45372 27.716 5.45372V3.45372C27.3338 3.45372 26.9765 3.59895 26.7028 3.87261L28.1171 5.28683ZM27.716 5.45372H29.1379V3.45372H27.716V5.45372ZM30.1379 4.45372V1.46572H28.1379V4.45372H30.1379ZM30.1379 1.46572C30.1379 1.50519 30.1316 1.57993 30.0941 1.67097C30.0548 1.76645 29.9923 1.85252 29.9147 1.91898L28.6132 0.400463C28.2644 0.699394 28.1379 1.1038 28.1379 1.46572H30.1379ZM29.9711 1.86683C29.927 1.91093 29.8644 1.95686 29.7842 1.9899C29.7042 2.02285 29.629 2.03372 29.57 2.03372V0.03372C29.1878 0.03372 28.8305 0.178948 28.5568 0.452615L29.9711 1.86683ZM29.57 2.03372H31.028V0.03372H29.57V2.03372ZM31.028 2.03372C30.9885 2.03372 30.9137 2.02738 30.8227 1.9899C30.7272 1.95058 30.6411 1.88804 30.5747 1.81051L32.0932 0.508931C31.7943 0.160177 31.3899 0.03372 31.028 0.03372V2.03372ZM30.6832 1.91898C30.6056 1.85252 30.5431 1.76645 30.5038 1.67097C30.4663 1.57993 30.4599 1.50519 30.4599 1.46572H32.4599C32.4599 1.1038 32.3335 0.699394 31.9847 0.400463L30.6832 1.91898ZM30.4599 1.46572V4.45372H32.4599V1.46572H30.4599ZM31.4599 5.45372H33.7099V3.45372H31.4599V5.45372ZM33.7099 5.45372C33.6705 5.45372 33.5957 5.44738 33.5047 5.4099C33.4092 5.37058 33.3231 5.30804 33.2567 5.23051L34.7752 3.92893C34.4763 3.58018 34.0719 3.45372 33.7099 3.45372V5.45372ZM33.3652 5.33898C33.2876 5.27252 33.2251 5.18644 33.1858 5.09097C33.1483 4.99993 33.1419 4.92519 33.1419 4.88572H35.1419C35.1419 4.5238 35.0155 4.11939 34.6667 3.82046L33.3652 5.33898ZM33.1419 4.88572V5.91172H35.1419V4.88572H33.1419ZM33.1419 5.91172C33.1419 5.87082 33.1487 5.80575 33.1784 5.72927C33.209 5.65074 33.2553 5.58213 33.3088 5.52861L34.7231 6.94283C35.0163 6.64962 35.1419 6.27664 35.1419 5.91172H33.1419ZM33.3088 5.52861C33.3529 5.48451 33.4155 5.43857 33.4957 5.40554C33.5757 5.37259 33.6509 5.36172 33.7099 5.36172V7.36172C34.0921 7.36172 34.4494 7.21649 34.7231 6.94283L33.3088 5.52861ZM33.7099 5.36172H31.4599V7.36172H33.7099V5.36172ZM30.4599 6.36172V10.2677H32.4599V6.36172H30.4599ZM30.4599 10.2677C30.4599 10.8719 30.5603 11.4974 30.9037 12.0011L32.5562 10.8744C32.5396 10.85 32.4599 10.6955 32.4599 10.2677H30.4599ZM30.9037 12.0011C31.3267 12.6214 31.9946 12.8337 32.6299 12.8337V10.8337C32.5211 10.8337 32.4854 10.8162 32.4927 10.8194C32.4973 10.8214 32.5092 10.8276 32.5238 10.8396C32.5386 10.8518 32.5495 10.8645 32.5562 10.8744L30.9037 12.0011ZM32.6299 12.8337H33.8719V10.8337H32.6299V12.8337ZM33.8719 12.8337C33.8129 12.8337 33.7377 12.8228 33.6577 12.7899C33.5775 12.7569 33.5149 12.7109 33.4708 12.6668L34.8851 11.2526C34.6114 10.9789 34.2541 10.8337 33.8719 10.8337V12.8337ZM33.4708 12.6668C33.4267 12.6227 33.3808 12.5602 33.3478 12.48C33.3148 12.4 33.3039 12.3248 33.3039 12.2657H35.3039C35.3039 11.8835 35.1587 11.5263 34.8851 11.2526L33.4708 12.6668ZM33.3039 12.2657V13.3817H35.3039V12.2657H33.3039ZM33.3039 13.3817C33.3039 13.3227 33.3148 13.2475 33.3478 13.1675C33.3808 13.0872 33.4267 13.0247 33.4708 12.9806L34.8851 14.3948C35.1587 14.1212 35.3039 13.7639 35.3039 13.3817H33.3039ZM33.4187 13.0369C33.4851 12.9594 33.5712 12.8969 33.6667 12.8575C33.7577 12.8201 33.8325 12.8137 33.8719 12.8137V14.8137C34.2339 14.8137 34.6383 14.6873 34.9372 14.3385L33.4187 13.0369ZM33.8719 12.8137H32.4139V14.8137H33.8719V12.8137ZM41.85 13.5077L42.2387 12.5864L41.85 13.5077ZM40.104 12.2297L40.904 11.6297L40.104 12.2297ZM39.474 10.5197H38.474V10.5393L38.4748 10.5589L39.474 10.5197ZM39.582 10.2497L38.8749 9.54261L39.582 10.2497ZM41.778 10.2317L41.1378 10.9999L41.2055 11.0563L41.2819 11.1L41.778 10.2317ZM42.012 10.4837L42.9714 10.2016L42.9353 10.0789L42.8695 9.96922L42.012 10.4837ZM46.53 11.5097L47.0684 12.3524L47.0766 12.3472L47.0847 12.3418L46.53 11.5097ZM46.836 9.49372L46.1289 10.2008L46.1385 10.2104L46.1483 10.2197L46.836 9.49372ZM45.846 8.93572L45.5064 9.87631L45.5145 9.87918L45.846 8.93572ZM43.902 8.35972L44.1572 7.39282L44.1451 7.38963L44.1329 7.38674L43.902 8.35972ZM40.788 7.02772L40.1315 7.78203L40.1389 7.78849L40.1465 7.7948L40.788 7.02772ZM40.374 2.77972L39.5591 2.2002L39.5547 2.20627L39.5505 2.21241L40.374 2.77972ZM42.012 1.50172L41.6144 0.584147L41.6088 0.586634L42.012 1.50172ZM47.07 1.55572L47.5052 0.655371V0.655371L47.07 1.55572ZM48.708 2.86972L47.8905 3.44567L47.898 3.4563L47.9058 3.46673L48.708 2.86972ZM49.32 4.41772H50.32V4.39448L50.3189 4.37126L49.32 4.41772ZM46.746 4.45372L45.7632 4.63801L45.7829 4.74317L45.8244 4.84178L46.746 4.45372ZM46.026 3.49972L45.4828 4.33929L45.4916 4.345L45.5005 4.35052L46.026 3.49972ZM42.93 3.48172L43.4787 4.31777V4.31777L42.93 3.48172ZM42.642 5.40772L41.8946 6.07208V6.07209L42.642 5.40772ZM43.542 5.98372L43.1613 6.90845L43.1706 6.9122L43.542 5.98372ZM45.342 6.54172L45.089 7.50918L45.1046 7.51327L45.1204 7.51685L45.342 6.54172ZM47.862 7.35172L47.4287 8.253L47.4354 8.25615L47.862 7.35172ZM49.266 8.48572L50.1014 7.9361V7.9361L49.266 8.48572ZM49.068 12.2477L48.268 11.6477L48.266 11.6505L49.068 12.2477ZM47.268 13.5437L46.909 12.6104L46.9042 12.6123L47.268 13.5437ZM44.604 12.9937C43.6335 12.9937 42.8544 12.8461 42.2387 12.5864L41.4613 14.4291C42.3817 14.8174 43.4385 14.9937 44.604 14.9937V12.9937ZM42.2387 12.5864C41.5916 12.3133 41.1693 11.9834 40.904 11.6297L39.304 12.8297C39.8308 13.532 40.5725 14.0541 41.4613 14.4291L42.2387 12.5864ZM40.904 11.6297C40.6199 11.2509 40.4887 10.8738 40.4733 10.4805L38.4748 10.5589C38.5074 11.3897 38.7962 12.1526 39.304 12.8297L40.904 11.6297ZM40.474 10.5197C40.474 10.5784 40.4639 10.6567 40.4295 10.7426C40.3947 10.8297 40.344 10.902 40.2891 10.9568L38.8749 9.54261C38.6031 9.81441 38.474 10.1644 38.474 10.5197H40.474ZM40.2891 10.9568C40.2343 11.0117 40.162 11.0624 40.0749 11.0972C39.989 11.1315 39.9107 11.1417 39.852 11.1417V9.14172C39.4967 9.14172 39.1467 9.27082 38.8749 9.54261L40.2891 10.9568ZM39.852 11.1417H41.454V9.14172H39.852V11.1417ZM41.454 11.1417C41.4599 11.1417 41.4292 11.1427 41.3754 11.1277C41.3191 11.1121 41.23 11.0767 41.1378 10.9999L42.4182 9.4635C42.0921 9.19175 41.7123 9.14172 41.454 9.14172V11.1417ZM41.2819 11.1C41.2215 11.0654 41.1843 11.0301 41.1667 11.0112C41.1495 10.9926 41.1467 10.9852 41.1545 10.9982L42.8695 9.96922C42.7462 9.76373 42.5587 9.52609 42.2742 9.36348L41.2819 11.1ZM41.0527 10.7659C41.2541 11.4508 41.71 11.9744 42.3016 12.3524L43.3784 10.667C43.106 10.493 43.01 10.3327 42.9714 10.2016L41.0527 10.7659ZM42.3016 12.3524C42.9515 12.7676 43.7507 12.9237 44.604 12.9237V10.9237C43.9693 10.9237 43.5925 10.8038 43.3784 10.667L42.3016 12.3524ZM44.604 12.9237C45.5337 12.9237 46.4013 12.7786 47.0684 12.3524L45.9916 10.667C45.7947 10.7928 45.3784 10.9237 44.604 10.9237V12.9237ZM47.0847 12.3418C47.7848 11.875 48.178 11.172 48.178 10.3217H46.178C46.178 10.4794 46.1392 10.5684 45.9753 10.6777L47.0847 12.3418ZM48.178 10.3217C48.178 9.73254 47.9661 9.18686 47.5238 8.76777L46.1483 10.2197C46.158 10.2289 46.1627 10.235 46.1645 10.2377C46.1663 10.2403 46.1673 10.2422 46.1683 10.2445C46.1694 10.2472 46.178 10.2684 46.178 10.3217H48.178ZM47.5431 8.78661C47.1794 8.4229 46.6938 8.17366 46.1775 7.99226L45.5145 9.87918C45.8862 10.0098 46.0606 10.1325 46.1289 10.2008L47.5431 8.78661ZM46.1857 7.99517C45.7109 7.82373 45.0284 7.62273 44.1572 7.39282L43.6469 9.32662C44.5036 9.55271 45.1171 9.73571 45.5064 9.87627L46.1857 7.99517ZM44.1329 7.38674C42.7769 7.06497 41.9151 6.6667 41.4296 6.26064L40.1465 7.7948C40.981 8.49274 42.1952 8.98247 43.6712 9.3327L44.1329 7.38674ZM41.4446 6.27342C41.0586 5.93752 40.816 5.44018 40.816 4.63372H38.816C38.816 5.89126 39.2214 6.98992 40.1315 7.78203L41.4446 6.27342ZM40.816 4.63372C40.816 4.1272 40.9477 3.70967 41.1975 3.34702L39.5505 2.21241C39.0563 2.92977 38.816 3.74824 38.816 4.63372H40.816ZM41.189 3.35924C41.4521 2.98924 41.8443 2.66844 42.4153 2.41681L41.6088 0.586634C40.7638 0.958995 40.064 1.4902 39.5591 2.2002L41.189 3.35924ZM42.4096 2.41928C42.9809 2.17174 43.6749 2.03372 44.514 2.03372V0.03372C43.4571 0.03372 42.4832 0.2077 41.6144 0.584165L42.4096 2.41928ZM44.514 2.03372C45.3813 2.03372 46.0782 2.18701 46.6349 2.45607L47.5052 0.655371C46.6219 0.228432 45.6147 0.03372 44.514 0.03372V2.03372ZM46.6349 2.45607C47.2379 2.74754 47.6371 3.08588 47.8905 3.44567L49.5255 2.29377C49.035 1.59756 48.3421 1.0599 47.5052 0.655371L46.6349 2.45607ZM47.9058 3.46673C48.2001 3.86225 48.3084 4.19112 48.3211 4.46418L50.3189 4.37126C50.2836 3.61232 49.9839 2.90919 49.5103 2.27271L47.9058 3.46673ZM48.32 4.41772C48.32 4.359 48.3302 4.28071 48.3645 4.19483C48.3994 4.10779 48.4501 4.03545 48.5049 3.98061L49.9191 5.39483C50.1909 5.12303 50.32 4.77308 50.32 4.41772H48.32ZM48.5049 3.98061C48.5598 3.92577 48.6321 3.87506 48.7191 3.84024C48.805 3.80589 48.8833 3.79572 48.942 3.79572V5.79572C49.2974 5.79572 49.6473 5.66662 49.9191 5.39483L48.5049 3.98061ZM48.942 3.79572H47.268V5.79572H48.942V3.79572ZM47.268 3.79572C47.2952 3.79572 47.3891 3.80335 47.4966 3.87376C47.6053 3.94502 47.6534 4.03171 47.6677 4.06566L45.8244 4.84178C45.9347 5.10373 46.1177 5.36142 46.4005 5.54668C46.682 5.73109 46.9889 5.79572 47.268 5.79572V3.79572ZM47.7289 4.26943C47.5935 3.54751 47.1402 3.01254 46.5515 2.64892L45.5005 4.35052C45.7278 4.4909 45.7545 4.59193 45.7632 4.63801L47.7289 4.26943ZM46.5693 2.66015C45.9652 2.26925 45.2614 2.10372 44.514 2.10372V4.10372C44.9666 4.10372 45.2709 4.20219 45.4828 4.33929L46.5693 2.66015ZM44.514 2.10372C43.7325 2.10372 42.9875 2.2479 42.3814 2.64567L43.4787 4.31777C43.6406 4.21154 43.9516 4.10372 44.514 4.10372V2.10372ZM42.3814 2.64567C41.7008 3.09231 41.354 3.78102 41.354 4.57972H43.354C43.354 4.47535 43.374 4.42793 43.3836 4.40977C43.3922 4.39342 43.4126 4.36115 43.4787 4.31777L42.3814 2.64567ZM41.354 4.57972C41.354 5.11833 41.5138 5.64371 41.8946 6.07208L43.3894 4.74336C43.3862 4.73973 43.354 4.71311 43.354 4.57972H41.354ZM41.8946 6.07209C42.2266 6.44559 42.68 6.71023 43.1613 6.9084L43.9228 5.05904C43.588 4.92121 43.4414 4.80185 43.3894 4.74336L41.8946 6.07209ZM43.1706 6.9122C43.648 7.10312 44.2946 7.30142 45.089 7.50918L45.5951 5.57426C44.8294 5.37402 44.2761 5.20032 43.9134 5.05524L43.1706 6.9122ZM45.1204 7.51685C46.1393 7.74843 46.899 7.99829 47.4287 8.25297L48.2953 6.45047C47.5771 6.10515 46.6567 5.81501 45.5636 5.56659L45.1204 7.51685ZM47.4354 8.25615C47.9523 8.49995 48.2569 8.77132 48.4306 9.03534L50.1014 7.9361C49.6751 7.28812 49.0438 6.8035 48.2886 6.44729L47.4354 8.25615ZM48.4306 9.03534C48.5956 9.28605 48.716 9.66172 48.716 10.2317H50.716C50.716 9.38572 50.5365 8.59739 50.1014 7.9361L48.4306 9.03534ZM48.716 10.2317C48.716 10.7987 48.5613 11.2567 48.268 11.6477L49.868 12.8477C50.4388 12.0867 50.716 11.2007 50.716 10.2317H48.716ZM48.266 11.6505C47.9787 12.0362 47.5462 12.3653 46.909 12.6104L47.627 14.4771C48.5498 14.1221 49.3174 13.5872 49.8701 12.845L48.266 11.6505ZM46.9042 12.6123C46.2748 12.8581 45.5144 12.9937 44.604 12.9937V14.9937C45.7097 14.9937 46.7253 14.8293 47.6319 14.4752L46.9042 12.6123ZM53.3269 12.9677L52.5973 13.6517L52.6047 13.6595L52.6122 13.6672L53.3269 12.9677ZM52.5169 6.36172H53.5169V5.36172H52.5169V6.36172ZM50.7889 6.23572L50.0363 6.89423L50.0582 6.91928L50.0817 6.94283L50.7889 6.23572ZM50.7889 4.57972L51.496 5.28683V5.28683L50.7889 4.57972ZM52.5169 4.45372V5.45372H53.5169V4.45372H52.5169ZM52.6429 1.15972L53.2936 1.91898L53.3228 1.89398L53.35 1.86683L52.6429 1.15972ZM54.7129 1.15972L53.9536 1.81051L54.0037 1.86892L54.0621 1.91898L54.7129 1.15972ZM54.8389 4.45372H53.8389V5.45372H54.8389V4.45372ZM57.3949 4.57972L56.6356 5.23051L56.6857 5.28892L56.7441 5.33898L57.3949 4.57972ZM54.8389 6.36172V5.36172H53.8389V6.36172H54.8389ZM55.1089 11.4377L54.2826 12.0011V12.0011L55.1089 11.4377ZM57.5569 11.9597L58.264 11.2526V11.2526L57.5569 11.9597ZM57.5569 13.6877L56.8497 12.9806L56.8226 13.0078L56.7976 13.0369L57.5569 13.6877ZM55.7929 12.8137C54.8643 12.8137 54.3426 12.5758 54.0415 12.2683L52.6122 13.6672C53.4151 14.4876 54.5375 14.8137 55.7929 14.8137V12.8137ZM54.0564 12.2838C53.7491 11.956 53.5169 11.3994 53.5169 10.4477H51.5169C51.5169 11.704 51.8246 12.8275 52.5973 13.6517L54.0564 12.2838ZM53.5169 10.4477V6.36172H51.5169V10.4477H53.5169ZM52.5169 5.36172H51.0949V7.36172H52.5169V5.36172ZM51.0949 5.36172C51.1539 5.36172 51.2291 5.37259 51.3091 5.40554C51.3893 5.43857 51.4519 5.48451 51.496 5.52861L50.0817 6.94283C50.3554 7.21649 50.7127 7.36172 51.0949 7.36172V5.36172ZM51.5414 5.57722C51.5683 5.60792 51.6012 5.65552 51.6264 5.72027C51.6519 5.78594 51.6629 5.85222 51.6629 5.91172H49.6629C49.6629 6.29004 49.8037 6.62842 50.0363 6.89423L51.5414 5.57722ZM51.6629 5.91172V4.88572H49.6629V5.91172H51.6629ZM51.6629 4.88572C51.6629 4.94479 51.652 5.01995 51.619 5.09997C51.586 5.18019 51.5401 5.24273 51.496 5.28683L50.0817 3.87261C49.8081 4.14628 49.6629 4.50353 49.6629 4.88572H51.6629ZM51.496 5.28683C51.4519 5.33093 51.3893 5.37686 51.3091 5.4099C51.2291 5.44285 51.1539 5.45372 51.0949 5.45372V3.45372C50.7127 3.45372 50.3554 3.59895 50.0817 3.87261L51.496 5.28683ZM51.0949 5.45372H52.5169V3.45372H51.0949V5.45372ZM53.5169 4.45372V1.46572H51.5169V4.45372H53.5169ZM53.5169 1.46572C53.5169 1.50519 53.5105 1.57993 53.473 1.67097C53.4337 1.76645 53.3712 1.85252 53.2936 1.91898L51.9921 0.400463C51.6433 0.699394 51.5169 1.1038 51.5169 1.46572H53.5169ZM53.35 1.86683C53.3059 1.91093 53.2433 1.95686 53.1631 1.9899C53.0831 2.02285 53.0079 2.03372 52.9489 2.03372V0.03372C52.5667 0.03372 52.2094 0.178948 51.9357 0.452615L53.35 1.86683ZM52.9489 2.03372H54.4069V0.03372H52.9489V2.03372ZM54.4069 2.03372C54.3674 2.03372 54.2926 2.02738 54.2016 1.9899C54.1061 1.95058 54.0201 1.88804 53.9536 1.81051L55.4721 0.508931C55.1732 0.160177 54.7688 0.03372 54.4069 0.03372V2.03372ZM54.0621 1.91898C53.9845 1.85252 53.922 1.76645 53.8827 1.67097C53.8452 1.57993 53.8389 1.50519 53.8389 1.46572H55.8389C55.8389 1.1038 55.7124 0.699394 55.3636 0.400463L54.0621 1.91898ZM53.8389 1.46572V4.45372H55.8389V1.46572H53.8389ZM54.8389 5.45372H57.0889V3.45372H54.8389V5.45372ZM57.0889 5.45372C57.0494 5.45372 56.9746 5.44738 56.8836 5.4099C56.7881 5.37058 56.7021 5.30804 56.6356 5.23051L58.1541 3.92893C57.8552 3.58018 57.4508 3.45372 57.0889 3.45372V5.45372ZM56.7441 5.33898C56.6665 5.27252 56.604 5.18644 56.5647 5.09097C56.5272 4.99993 56.5209 4.92519 56.5209 4.88572H58.5209C58.5209 4.5238 58.3944 4.11939 58.0456 3.82046L56.7441 5.33898ZM56.5209 4.88572V5.91172H58.5209V4.88572H56.5209ZM56.5209 5.91172C56.5209 5.87082 56.5276 5.80575 56.5574 5.72927C56.5879 5.65074 56.6342 5.58213 56.6878 5.52861L58.102 6.94283C58.3952 6.64962 58.5209 6.27664 58.5209 5.91172H56.5209ZM56.6878 5.52861C56.7318 5.48451 56.7944 5.43857 56.8746 5.40554C56.9546 5.37259 57.0298 5.36172 57.0889 5.36172V7.36172C57.471 7.36172 57.8283 7.21649 58.102 6.94283L56.6878 5.52861ZM57.0889 5.36172H54.8389V7.36172H57.0889V5.36172ZM53.8389 6.36172V10.2677H55.8389V6.36172H53.8389ZM53.8389 10.2677C53.8389 10.8719 53.9392 11.4974 54.2826 12.0011L55.9351 10.8744C55.9185 10.85 55.8389 10.6955 55.8389 10.2677H53.8389ZM54.2826 12.0011C54.7056 12.6214 55.3735 12.8337 56.0089 12.8337V10.8337C55.9 10.8337 55.8643 10.8162 55.8716 10.8194C55.8762 10.8214 55.8881 10.8276 55.9027 10.8396C55.9175 10.8518 55.9284 10.8645 55.9351 10.8744L54.2826 12.0011ZM56.0089 12.8337H57.2509V10.8337H56.0089V12.8337ZM57.2509 12.8337C57.1918 12.8337 57.1166 12.8228 57.0366 12.7899C56.9564 12.7569 56.8939 12.7109 56.8497 12.6668L58.264 11.2526C57.9903 10.9789 57.633 10.8337 57.2509 10.8337V12.8337ZM56.8497 12.6668C56.8056 12.6227 56.7597 12.5602 56.7267 12.48C56.6937 12.4 56.6829 12.3248 56.6829 12.2657H58.6829C58.6829 11.8835 58.5376 11.5263 58.264 11.2526L56.8497 12.6668ZM56.6829 12.2657V13.3817H58.6829V12.2657H56.6829ZM56.6829 13.3817C56.6829 13.3227 56.6937 13.2475 56.7267 13.1675C56.7597 13.0872 56.8056 13.0247 56.8497 12.9806L58.264 14.3948C58.5376 14.1212 58.6829 13.7639 58.6829 13.3817H56.6829ZM56.7976 13.0369C56.8641 12.9594 56.9501 12.8969 57.0456 12.8575C57.1366 12.8201 57.2114 12.8137 57.2509 12.8137V14.8137C57.6128 14.8137 58.0172 14.6873 58.3161 14.3385L56.7976 13.0369ZM57.2509 12.8137H55.7929V14.8137H57.2509V12.8137ZM60.3056 13.6337L59.8584 14.5281L59.8711 14.5345L59.8839 14.5404L60.3056 13.6337ZM59.0997 12.6257L58.2749 13.1912L58.2803 13.1992L58.2859 13.207L59.0997 12.6257ZM59.6577 9.25972L59.0507 8.46495L59.6577 9.25972ZM62.3756 8.23372L62.2312 7.24416L62.2213 7.24571L62.3756 8.23372ZM64.8417 7.87372L64.9861 8.86323L65.8417 8.73833V7.87372H64.8417ZM62.1957 6.14572L62.7102 7.0033L62.722 6.99599L62.1957 6.14572ZM61.6197 6.57772L60.9125 5.87062L60.8984 5.88475L60.8848 5.89944L61.6197 6.57772ZM61.3316 6.88372L60.6245 6.17661L60.4576 6.34354L60.383 6.56749L61.3316 6.88372ZM59.3876 6.99172L58.6805 7.69883L58.7077 7.72598L58.7369 7.75098L59.3876 6.99172ZM59.2797 6.70372L58.2804 6.66375L58.2797 6.68373V6.70372H59.2797ZM59.7117 5.67772L58.9117 5.07772L58.9056 5.08584L58.8996 5.09408L59.7117 5.67772ZM61.0257 4.68772L60.6007 3.78248L61.0257 4.68772ZM67.1277 13.6877L66.4205 12.9806L66.3934 13.0078L66.3684 13.0369L67.1277 13.6877ZM64.9317 12.6797H65.9317V9.46004L64.1076 12.1132L64.9317 12.6797ZM63.7977 13.6337L64.2449 14.5282L64.2535 14.5238L63.7977 13.6337ZM64.2297 11.6357L63.5127 10.9386L64.2297 11.6357ZM64.8596 9.36772H65.8596V8.195L64.7017 8.38028L64.8596 9.36772ZM63.0597 9.65572L63.213 10.6439L63.2176 10.6432L63.0597 9.65572ZM61.4757 10.1777L60.921 9.34567L60.9144 9.35004L60.9079 9.35451L61.4757 10.1777ZM61.4397 11.9597L60.8849 12.7918L61.4397 11.9597ZM61.9977 12.9937C61.5202 12.9937 61.1015 12.901 60.7274 12.727L59.8839 14.5404C60.5418 14.8464 61.2511 14.9937 61.9977 14.9937V12.9937ZM60.7529 12.7393C60.3811 12.5534 60.1101 12.3198 59.9134 12.0445L58.2859 13.207C58.6892 13.7716 59.2222 14.21 59.8584 14.5281L60.7529 12.7393ZM59.9244 12.0602C59.7493 11.8048 59.6676 11.5396 59.6676 11.2397H57.6676C57.6676 11.9478 57.874 12.6066 58.2749 13.1912L59.9244 12.0602ZM59.6676 11.2397C59.6676 10.7418 59.8472 10.3732 60.2646 10.0545L59.0507 8.46495C58.1481 9.1542 57.6676 10.1056 57.6676 11.2397H59.6676ZM60.2646 10.0545C60.7495 9.68419 61.4798 9.38583 62.53 9.22173L62.2213 7.24571C60.9675 7.44161 59.8858 7.82725 59.0507 8.46495L60.2646 10.0545ZM62.5201 9.22323L64.9861 8.86323L64.6972 6.88421L62.2312 7.24421L62.5201 9.22323ZM65.8417 7.87372V7.49572H63.8417V7.87372H65.8417ZM65.8417 7.49572C65.8417 6.81358 65.6704 6.11829 65.1528 5.60061L63.7385 7.01483C63.7489 7.02515 63.8417 7.12187 63.8417 7.49572H65.8417ZM65.1528 5.60061C64.6177 5.06557 63.8732 4.91172 63.1676 4.91172V6.91172C63.3913 6.91172 63.54 6.93734 63.6322 6.96592C63.6767 6.97972 63.7042 6.99302 63.7195 7.00178C63.7271 7.00615 63.732 7.00954 63.7347 7.0116C63.7374 7.01363 63.7385 7.01474 63.7385 7.01483L65.1528 5.60061ZM63.1676 4.91172C62.6465 4.91172 62.1242 5.01388 61.6693 5.29545L62.722 6.99599C62.7712 6.96556 62.8968 6.91172 63.1676 6.91172V4.91172ZM61.6812 5.28823C61.3952 5.45982 61.1313 5.65182 60.9125 5.87062L62.3268 7.28483C62.396 7.21562 62.5161 7.11962 62.7101 7.00321L61.6812 5.28823ZM60.8848 5.89944C60.7382 6.05835 60.6559 6.14525 60.6245 6.17661L62.0388 7.59083C62.1034 7.52619 62.2131 7.40909 62.3545 7.256L60.8848 5.89944ZM60.383 6.56749C60.401 6.5135 60.4571 6.38193 60.6035 6.26485C60.7611 6.13875 60.9353 6.09972 61.0617 6.09972V8.09972C61.32 8.09972 61.6052 8.02469 61.8528 7.82659C62.0892 7.63751 62.2143 7.39794 62.2803 7.19995L60.383 6.56749ZM61.0617 6.09972H59.6757V8.09972H61.0617V6.09972ZM59.6757 6.09972C59.7351 6.09972 59.8036 6.11007 59.8738 6.13639C59.9436 6.16258 59.9987 6.19841 60.0384 6.23246L58.7369 7.75098C58.9973 7.97418 59.3226 8.09972 59.6757 8.09972V6.09972ZM60.0948 6.28461C60.1604 6.35027 60.2112 6.42989 60.243 6.5146C60.2736 6.59623 60.2797 6.66386 60.2797 6.70372H58.2797C58.2797 7.03798 58.3878 7.40609 58.6805 7.69883L60.0948 6.28461ZM60.2789 6.74369C60.2797 6.72199 60.3015 6.57041 60.5237 6.26136L58.8996 5.09408C58.5698 5.55304 58.3036 6.08545 58.2804 6.66375L60.2789 6.74369ZM60.5117 6.27772C60.673 6.06263 60.9607 5.82289 61.4506 5.59296L60.6007 3.78248C59.9146 4.10455 59.3263 4.52481 58.9117 5.07772L60.5117 6.27772ZM61.4506 5.59296C61.8709 5.39564 62.4367 5.27372 63.1857 5.27372V3.27372C62.2306 3.27372 61.3564 3.4278 60.6007 3.78248L61.4506 5.59296ZM63.1857 5.27372C64.4819 5.27372 65.2017 5.56892 65.5812 5.9414L66.9821 4.51404C66.0656 3.61452 64.7215 3.27372 63.1857 3.27372V5.27372ZM65.5812 5.9414C66.0108 6.36306 66.2537 6.92615 66.2537 7.72972H68.2537C68.2537 6.46929 67.8485 5.36438 66.9821 4.51404L65.5812 5.9414ZM66.2537 7.72972V13.3817H68.2537V7.72972H66.2537ZM66.2537 13.3817C66.2537 13.3227 66.2645 13.2475 66.2975 13.1675C66.3305 13.0872 66.3764 13.0247 66.4205 12.9806L67.8348 14.3948C68.1084 14.1212 68.2537 13.7639 68.2537 13.3817H66.2537ZM66.3684 13.0369C66.4349 12.9594 66.5209 12.8969 66.6164 12.8575C66.7074 12.8201 66.7822 12.8137 66.8217 12.8137V14.8137C67.1836 14.8137 67.588 14.6873 67.8869 14.3385L66.3684 13.0369ZM66.8217 12.8137H65.3637V14.8137H66.8217V12.8137ZM65.3637 12.8137C65.4227 12.8137 65.4979 12.8246 65.5779 12.8575C65.6581 12.8906 65.7207 12.9365 65.7648 12.9806L64.3505 14.3948C64.6242 14.6685 64.9815 14.8137 65.3637 14.8137V12.8137ZM65.7648 12.9806C65.8089 13.0247 65.8548 13.0872 65.8878 13.1675C65.9208 13.2475 65.9317 13.3227 65.9317 13.3817H63.9317C63.9317 13.7639 64.0769 14.1212 64.3505 14.3948L65.7648 12.9806ZM65.9317 13.3817V12.6797H63.9317V13.3817H65.9317ZM64.1076 12.1132C63.9537 12.3371 63.7136 12.5532 63.3418 12.7437L64.2535 14.5238C64.8657 14.2102 65.3817 13.7903 65.7557 13.2463L64.1076 12.1132ZM63.3504 12.7393C63.0484 12.8903 62.613 12.9937 61.9977 12.9937V14.9937C62.8223 14.9937 63.5869 14.8571 64.2449 14.5281L63.3504 12.7393ZM62.6096 13.2837C63.5113 13.2837 64.3194 12.978 64.9466 12.3328L63.5127 10.9386C63.2999 11.1575 63.028 11.2837 62.6096 11.2837V13.2837ZM64.9466 12.3328C65.6071 11.6534 65.8596 10.7349 65.8596 9.74572H63.8596C63.8596 10.4125 63.6922 10.754 63.5127 10.9386L64.9466 12.3328ZM65.8596 9.74572V9.36772H63.8596V9.74572H65.8596ZM64.7017 8.38028L62.9017 8.66828L63.2176 10.6432L65.0176 10.3552L64.7017 8.38028ZM62.9063 8.66755C62.1462 8.78549 61.4544 8.99001 60.921 9.34567L62.0303 11.0098C62.2169 10.8854 62.5811 10.742 63.213 10.6439L62.9063 8.66755ZM60.9079 9.35451C60.3554 9.73558 59.9537 10.3101 59.9537 11.0597H61.9537C61.9537 11.057 61.9539 11.0615 61.9515 11.0704C61.949 11.0794 61.9458 11.0857 61.9447 11.0875C61.9426 11.0911 61.961 11.0578 62.0434 11.0009L60.9079 9.35451ZM59.9537 11.0597C59.9537 11.7837 60.2875 12.3934 60.8849 12.7918L61.9944 11.1277C61.9703 11.1117 61.9589 11.1005 61.955 11.0963C61.9514 11.0926 61.9527 11.0931 61.9551 11.0976C61.9575 11.1021 61.9578 11.1044 61.9571 11.1015C61.9563 11.0981 61.9537 11.0852 61.9537 11.0597H59.9537ZM60.8849 12.7918C61.3998 13.135 61.9908 13.2837 62.6096 13.2837V11.2837C62.3166 11.2837 62.1275 11.2165 61.9944 11.1277L60.8849 12.7918ZM69.6889 13.6877L70.396 12.9806H70.396L69.6889 13.6877ZM69.6889 4.59772L70.396 5.30483L70.4195 5.28128L70.4414 5.25622L69.6889 4.59772ZM71.7769 4.57972L71.0697 5.28683V5.28683L71.7769 4.57972ZM71.9029 5.64172H70.9029V8.64172L72.7029 6.24172L71.9029 5.64172ZM72.9829 4.75972L72.5653 3.85099L72.5558 3.85547L72.9829 4.75972ZM75.5389 4.57972L74.7796 5.23051L74.8297 5.28892L74.8881 5.33898L75.5389 4.57972ZM75.5389 6.48772L74.8317 5.78062L74.8046 5.80777L74.7796 5.83693L75.5389 6.48772ZM72.4969 7.09972L71.7897 6.39261L72.4969 7.09972ZM71.8849 13.6877L71.1777 12.9806L71.8849 13.6877ZM69.9949 12.8137C70.0539 12.8137 70.1291 12.8246 70.2091 12.8575C70.2893 12.8906 70.3519 12.9365 70.396 12.9806L68.9818 14.3948C69.2554 14.6685 69.6127 14.8137 69.9949 14.8137V12.8137ZM70.396 12.9806C70.4401 13.0247 70.486 13.0872 70.519 13.1675C70.552 13.2475 70.5629 13.3227 70.5629 13.3817H68.5629C68.5629 13.7639 68.7081 14.1212 68.9818 14.3948L70.396 12.9806ZM70.5629 13.3817V4.90372H68.5629V13.3817H70.5629ZM70.5629 4.90372C70.5629 4.96279 70.552 5.03795 70.519 5.11797C70.486 5.19819 70.4401 5.26072 70.396 5.30483L68.9818 3.89061C68.7081 4.16428 68.5629 4.52153 68.5629 4.90372H70.5629ZM70.4414 5.25622C70.4046 5.29834 70.3433 5.35258 70.2542 5.39454C70.1635 5.43722 70.0724 5.45372 69.9949 5.45372V3.45372C69.5665 3.45372 69.1966 3.64171 68.9363 3.93922L70.4414 5.25622ZM69.9949 5.45372H71.4529V3.45372H69.9949V5.45372ZM71.4529 5.45372C71.412 5.45372 71.3469 5.44697 71.2704 5.41722C71.1919 5.38668 71.1233 5.34035 71.0697 5.28683L72.484 3.87261C72.1908 3.57941 71.8178 3.45372 71.4529 3.45372V5.45372ZM71.0697 5.28683C71.0162 5.23331 70.9699 5.1647 70.9394 5.08617C70.9096 5.00969 70.9029 4.94462 70.9029 4.90372H72.9029C72.9029 4.5388 72.7772 4.16582 72.484 3.87261L71.0697 5.28683ZM70.9029 4.90372V5.64172H72.9029V4.90372H70.9029ZM72.7029 6.24172C72.8936 5.98735 73.1258 5.79809 73.4099 5.66397L72.5558 3.85547C71.9759 4.12935 71.4881 4.52809 71.1029 5.04172L72.7029 6.24172ZM73.4004 5.6684C73.6947 5.53317 74.0528 5.45372 74.4949 5.45372V3.45372C73.8089 3.45372 73.159 3.57827 72.5654 3.85104L73.4004 5.6684ZM74.4949 5.45372H75.2329V3.45372H74.4949V5.45372ZM75.2329 5.45372C75.1934 5.45372 75.1186 5.44738 75.0276 5.4099C74.9321 5.37058 74.8461 5.30804 74.7796 5.23051L76.2981 3.92893C75.9992 3.58018 75.5948 3.45372 75.2329 3.45372V5.45372ZM74.8881 5.33898C74.8105 5.27252 74.748 5.18644 74.7087 5.09097C74.6712 4.99993 74.6649 4.92519 74.6649 4.88572H76.6649C76.6649 4.5238 76.5384 4.11939 76.1896 3.82046L74.8881 5.33898ZM74.6649 4.88572V6.18172H76.6649V4.88572H74.6649ZM74.6649 6.18172C74.6649 6.12265 74.6757 6.04749 74.7087 5.96747C74.7417 5.88725 74.7876 5.82472 74.8317 5.78062L76.246 7.19483C76.5196 6.92116 76.6649 6.56391 76.6649 6.18172H74.6649ZM74.7796 5.83693C74.8461 5.7594 74.9321 5.69685 75.0276 5.65754C75.1186 5.62006 75.1934 5.61372 75.2329 5.61372V7.61372C75.5948 7.61372 75.9992 7.48727 76.2981 7.13851L74.7796 5.83693ZM75.2329 5.61372H73.8289V7.61372H75.2329V5.61372ZM73.8289 5.61372C73.0647 5.61372 72.3427 5.83963 71.7897 6.39261L73.204 7.80683C73.299 7.71181 73.4651 7.61372 73.8289 7.61372V5.61372ZM71.7897 6.39261C71.2368 6.9456 71.0109 7.66751 71.0109 8.43172H73.0109C73.0109 8.06793 73.1089 7.90184 73.204 7.80683L71.7897 6.39261ZM71.0109 8.43172V13.3817H73.0109V8.43172H71.0109ZM71.0109 13.3817C71.0109 13.3227 71.0217 13.2475 71.0547 13.1675C71.0877 13.0872 71.1336 13.0247 71.1777 12.9806L72.592 14.3948C72.8656 14.1212 73.0109 13.7639 73.0109 13.3817H71.0109ZM71.1777 12.9806C71.2313 12.9271 71.2999 12.8808 71.3784 12.8502C71.4549 12.8205 71.52 12.8137 71.5609 12.8137V14.8137C71.9258 14.8137 72.2988 14.688 72.592 14.3948L71.1777 12.9806ZM71.5609 12.8137H69.9949V14.8137H71.5609V12.8137ZM78.8327 12.9677L78.1032 13.6517L78.1105 13.6595L78.118 13.6672L78.8327 12.9677ZM78.0227 6.36172H79.0227V5.36172H78.0227V6.36172ZM76.2947 6.23572L75.5421 6.89423L75.5641 6.91928L75.5876 6.94283L76.2947 6.23572ZM76.2947 4.57972L77.0018 5.28683V5.28683L76.2947 4.57972ZM78.0227 4.45372V5.45372H79.0227V4.45372H78.0227ZM78.1487 1.15972L78.7995 1.91898L78.8287 1.89398L78.8558 1.86683L78.1487 1.15972ZM80.2187 1.15972L79.4595 1.81051L79.5095 1.86892L79.5679 1.91898L80.2187 1.15972ZM80.3447 4.45372H79.3447V5.45372H80.3447V4.45372ZM82.9007 4.57972L82.1415 5.23051L82.1915 5.28892L82.2499 5.33898L82.9007 4.57972ZM80.3447 6.36172V5.36172H79.3447V6.36172H80.3447ZM80.6147 11.4377L79.7885 12.0011V12.0011L80.6147 11.4377ZM83.0627 11.9597L83.7698 11.2526V11.2526L83.0627 11.9597ZM83.0627 13.6877L82.3556 12.9806L82.3285 13.0078L82.3035 13.0369L83.0627 13.6877ZM81.2987 12.8137C80.3701 12.8137 79.8484 12.5758 79.5474 12.2683L78.118 13.6672C78.921 14.4876 80.0433 14.8137 81.2987 14.8137V12.8137ZM79.5622 12.2838C79.2549 11.956 79.0227 11.3994 79.0227 10.4477H77.0227C77.0227 11.704 77.3305 12.8275 78.1032 13.6517L79.5622 12.2838ZM79.0227 10.4477V6.36172H77.0227V10.4477H79.0227ZM78.0227 5.36172H76.6007V7.36172H78.0227V5.36172ZM76.6007 5.36172C76.6598 5.36172 76.7349 5.37259 76.815 5.40554C76.8952 5.43857 76.9577 5.48451 77.0018 5.52861L75.5876 6.94283C75.8613 7.21649 76.2185 7.36172 76.6007 7.36172V5.36172ZM77.0473 5.57722C77.0742 5.60792 77.107 5.65552 77.1322 5.72027C77.1578 5.78594 77.1687 5.85222 77.1687 5.91172H75.1687C75.1687 6.29004 75.3096 6.62842 75.5421 6.89423L77.0473 5.57722ZM77.1687 5.91172V4.88572H75.1687V5.91172H77.1687ZM77.1687 4.88572C77.1687 4.94479 77.1578 5.01995 77.1249 5.09997C77.0919 5.18019 77.0459 5.24273 77.0018 5.28683L75.5876 3.87261C75.3139 4.14628 75.1687 4.50353 75.1687 4.88572H77.1687ZM77.0018 5.28683C76.9577 5.33093 76.8952 5.37686 76.815 5.4099C76.7349 5.44285 76.6598 5.45372 76.6007 5.45372V3.45372C76.2185 3.45372 75.8613 3.59895 75.5876 3.87261L77.0018 5.28683ZM76.6007 5.45372H78.0227V3.45372H76.6007V5.45372ZM79.0227 4.45372V1.46572H77.0227V4.45372H79.0227ZM79.0227 1.46572C79.0227 1.50519 79.0164 1.57993 78.9789 1.67097C78.9396 1.76645 78.877 1.85252 78.7995 1.91898L77.4979 0.400463C77.1492 0.699394 77.0227 1.1038 77.0227 1.46572H79.0227ZM78.8558 1.86683C78.8117 1.91093 78.7492 1.95686 78.669 1.9899C78.5889 2.02285 78.5138 2.03372 78.4547 2.03372V0.03372C78.0725 0.03372 77.7153 0.178948 77.4416 0.452615L78.8558 1.86683ZM78.4547 2.03372H79.9127V0.03372H78.4547V2.03372ZM79.9127 2.03372C79.8732 2.03372 79.7985 2.02738 79.7075 1.9899C79.612 1.95058 79.5259 1.88804 79.4595 1.81051L80.978 0.508931C80.679 0.160177 80.2746 0.03372 79.9127 0.03372V2.03372ZM79.5679 1.91898C79.4904 1.85252 79.4278 1.76645 79.3885 1.67097C79.3511 1.57993 79.3447 1.50519 79.3447 1.46572H81.3447C81.3447 1.1038 81.2183 0.699394 80.8695 0.400463L79.5679 1.91898ZM79.3447 1.46572V4.45372H81.3447V1.46572H79.3447ZM80.3447 5.45372H82.5947V3.45372H80.3447V5.45372ZM82.5947 5.45372C82.5552 5.45372 82.4805 5.44738 82.3895 5.4099C82.294 5.37058 82.2079 5.30804 82.1415 5.23051L83.66 3.92893C83.361 3.58018 82.9566 3.45372 82.5947 3.45372V5.45372ZM82.2499 5.33898C82.1724 5.27252 82.1098 5.18644 82.0705 5.09097C82.0331 4.99993 82.0267 4.92519 82.0267 4.88572H84.0267C84.0267 4.5238 83.9003 4.11939 83.5515 3.82046L82.2499 5.33898ZM82.0267 4.88572V5.91172H84.0267V4.88572H82.0267ZM82.0267 5.91172C82.0267 5.87082 82.0335 5.80575 82.0632 5.72927C82.0938 5.65074 82.1401 5.58213 82.1936 5.52861L83.6078 6.94283C83.901 6.64962 84.0267 6.27664 84.0267 5.91172H82.0267ZM82.1936 5.52861C82.2377 5.48451 82.3002 5.43857 82.3805 5.40554C82.4605 5.37259 82.5357 5.36172 82.5947 5.36172V7.36172C82.9769 7.36172 83.3342 7.21649 83.6078 6.94283L82.1936 5.52861ZM82.5947 5.36172H80.3447V7.36172H82.5947V5.36172ZM79.3447 6.36172V10.2677H81.3447V6.36172H79.3447ZM79.3447 10.2677C79.3447 10.8719 79.4451 11.4974 79.7885 12.0011L81.4409 10.8744C81.4243 10.85 81.3447 10.6955 81.3447 10.2677H79.3447ZM79.7885 12.0011C80.2115 12.6214 80.8794 12.8337 81.5147 12.8337V10.8337C81.4059 10.8337 81.3702 10.8162 81.3775 10.8194C81.3821 10.8214 81.394 10.8276 81.4086 10.8396C81.4233 10.8518 81.4342 10.8645 81.4409 10.8744L79.7885 12.0011ZM81.5147 12.8337H82.7567V10.8337H81.5147V12.8337ZM82.7567 12.8337C82.6976 12.8337 82.6225 12.8228 82.5425 12.7899C82.4622 12.7569 82.3997 12.7109 82.3556 12.6668L83.7698 11.2526C83.4962 10.9789 83.1389 10.8337 82.7567 10.8337V12.8337ZM82.3556 12.6668C82.3115 12.6227 82.2656 12.5602 82.2325 12.48C82.1996 12.4 82.1887 12.3248 82.1887 12.2657H84.1887C84.1887 11.8835 84.0435 11.5263 83.7698 11.2526L82.3556 12.6668ZM82.1887 12.2657V13.3817H84.1887V12.2657H82.1887ZM82.1887 13.3817C82.1887 13.3227 82.1996 13.2475 82.2325 13.1675C82.2656 13.0872 82.3115 13.0247 82.3556 12.9806L83.7698 14.3948C84.0435 14.1212 84.1887 13.7639 84.1887 13.3817H82.1887ZM82.3035 13.0369C82.3699 12.9594 82.456 12.8969 82.5515 12.8575C82.6425 12.8201 82.7172 12.8137 82.7567 12.8137V14.8137C83.1186 14.8137 83.523 14.6873 83.822 14.3385L82.3035 13.0369ZM82.7567 12.8137H81.2987V14.8137H82.7567V12.8137ZM85.6315 12.8417L84.9244 13.5488L84.9298 13.5543L84.9354 13.5596L85.6315 12.8417ZM84.3895 9.56572L85.3889 9.53155L85.3887 9.52575L84.3895 9.56572ZM84.3715 9.11572L83.3723 9.07575L83.3707 9.11572L83.3723 9.15569L84.3715 9.11572ZM84.3895 8.66572L83.3905 8.6219L83.3903 8.62575L84.3895 8.66572ZM85.6495 5.44372L84.9478 4.73122L84.9424 4.73661L85.6495 5.44372ZM92.0935 5.56972L91.3461 6.2341L91.3512 6.23982L92.0935 5.56972ZM93.1375 9.70972L93.8446 10.4168V10.4168L93.1375 9.70972ZM86.8375 9.83572V8.83572H85.8375V9.83572H86.8375ZM86.8375 9.97972H85.8375V9.9979L85.8382 10.0161L86.8375 9.97972ZM87.3775 11.6537L86.5725 12.2469L86.5813 12.2589L86.5905 12.2706L87.3775 11.6537ZM90.5095 11.4917L89.7356 10.8585L89.7287 10.8669L89.722 10.8754L90.5095 11.4917ZM90.7615 11.2397L90.3143 10.3453L90.2799 10.3625L90.247 10.3822L90.7615 11.2397ZM92.8855 11.2937L92.1784 12.0008L92.2369 12.0593L92.3043 12.1075L92.8855 11.2937ZM92.4895 12.5537L91.7383 11.8936L91.7369 11.8952L92.4895 12.5537ZM91.0315 13.5617L91.444 14.4727L91.0315 13.5617ZM90.8155 8.32372V9.32372H91.8155V8.32372H90.8155ZM90.2755 6.55972L89.4968 7.18705L89.502 7.19352L89.5073 7.1999L90.2755 6.55972ZM87.3595 6.55972L86.5808 5.93239V5.93239L87.3595 6.55972ZM86.8375 8.32372H85.8375V9.32372H86.8375V8.32372ZM88.8175 12.9937C87.6881 12.9937 86.8956 12.6746 86.3277 12.1238L84.9354 13.5596C85.9514 14.5449 87.2829 14.9937 88.8175 14.9937V12.9937ZM86.3386 12.1346C85.7829 11.5789 85.4307 10.7543 85.3889 9.53155L83.3901 9.59989C83.4443 11.1852 83.9201 12.5445 84.9244 13.5488L86.3386 12.1346ZM85.3887 9.52575L85.3707 9.07575L83.3723 9.15569L83.3903 9.60569L85.3887 9.52575ZM85.3707 9.15569L85.3887 8.70569L83.3903 8.62575L83.3723 9.07575L85.3707 9.15569ZM85.3885 8.70954C85.4404 7.52837 85.7935 6.71398 86.3566 6.15083L84.9424 4.73661C83.9456 5.73347 83.4587 7.06708 83.3905 8.6219L85.3885 8.70954ZM86.3512 6.1562C86.9216 5.59441 87.7074 5.27372 88.8175 5.27372V3.27372C87.2877 3.27372 85.9614 3.73303 84.9478 4.73124L86.3512 6.1562ZM88.8175 5.27372C90.0175 5.27372 90.8097 5.63061 91.3461 6.23408L92.8409 4.90536C91.8413 3.78083 90.4495 3.27372 88.8175 3.27372V5.27372ZM91.3512 6.23982C91.9284 6.87916 92.2635 7.77202 92.2635 9.02572H94.2635C94.2635 7.39942 93.8186 5.98828 92.8358 4.89962L91.3512 6.23982ZM92.2635 9.02572V9.40372H94.2635V9.02572H92.2635ZM92.2635 9.40372C92.2635 9.34466 92.2744 9.26949 92.3073 9.18947C92.3404 9.10925 92.3863 9.04672 92.4304 9.00261L93.8446 10.4168C94.1183 10.1432 94.2635 9.78591 94.2635 9.40372H92.2635ZM92.4304 9.00261C92.4839 8.94909 92.5525 8.90276 92.6311 8.87222C92.7075 8.84247 92.7726 8.83572 92.8135 8.83572V10.8357C93.1784 10.8357 93.5514 10.71 93.8446 10.4168L92.4304 9.00261ZM92.8135 8.83572H86.8375V10.8357H92.8135V8.83572ZM85.8375 9.83572V9.97972H87.8375V9.83572H85.8375ZM85.8382 10.0161C85.8682 10.8428 86.0984 11.6035 86.5725 12.2469L88.1826 11.0605C87.9847 10.7919 87.8548 10.4367 87.8369 9.94338L85.8382 10.0161ZM86.5905 12.2706C87.1415 12.9737 87.9148 13.3197 88.7995 13.3197V11.3197C88.4842 11.3197 88.3095 11.2218 88.1646 11.0368L86.5905 12.2706ZM88.7995 13.3197C89.8114 13.3197 90.6733 12.9051 91.297 12.108L89.722 10.8754C89.4818 11.1824 89.2036 11.3197 88.7995 11.3197V13.3197ZM91.2835 12.125C91.3033 12.1007 91.3199 12.0813 91.3334 12.0661C91.3471 12.0507 91.356 12.0414 91.3606 12.0368C91.3628 12.0347 91.3633 12.0342 91.3622 12.0353C91.3611 12.0363 91.3577 12.0393 91.3522 12.0439C91.3467 12.0485 91.338 12.0556 91.3261 12.0642C91.3143 12.0728 91.2975 12.0843 91.276 12.0972L90.247 10.3822C90.0216 10.5175 89.8413 10.7293 89.7356 10.8585L91.2835 12.125ZM91.2087 12.1341C91.1378 12.1696 91.0841 12.1808 91.0658 12.184C91.0463 12.1874 91.0448 12.1857 91.0675 12.1857V10.1857C90.868 10.1857 90.5867 10.2091 90.3143 10.3453L91.2087 12.1341ZM91.0675 12.1857H92.6155V10.1857H91.0675V12.1857ZM92.6155 12.1857C92.5568 12.1857 92.4785 12.1755 92.3926 12.1412C92.3056 12.1064 92.2332 12.0557 92.1784 12.0008L93.5926 10.5866C93.3208 10.3148 92.9709 10.1857 92.6155 10.1857V12.1857ZM92.3043 12.1075C92.2424 12.0632 92.1621 11.9875 92.0995 11.8713C92.0356 11.7526 92.0115 11.631 92.0115 11.5277H94.0115C94.0115 11.0813 93.7904 10.7111 93.4668 10.48L92.3043 12.1075ZM92.0115 11.5277C92.0115 11.4706 92.028 11.4715 91.9897 11.5468C91.9517 11.6214 91.8762 11.7368 91.7383 11.8936L93.2407 13.2138C93.6305 12.7702 94.0115 12.1924 94.0115 11.5277H92.0115ZM91.7369 11.8952C91.5229 12.1399 91.17 12.4012 90.619 12.6508L91.444 14.4727C92.165 14.1462 92.7842 13.7356 93.2421 13.2122L91.7369 11.8952ZM90.619 12.6508C90.1362 12.8694 89.5436 12.9937 88.8175 12.9937V14.9937C89.7714 14.9937 90.6548 14.83 91.444 14.4727L90.619 12.6508ZM91.8155 8.32372V8.26972H89.8155V8.32372H91.8155ZM91.8155 8.26972C91.8155 7.38997 91.589 6.57385 91.0437 5.91954L89.5073 7.1999C89.682 7.40959 89.8155 7.73347 89.8155 8.26972H91.8155ZM91.0543 5.93239C90.4911 5.23333 89.7013 4.91172 88.8175 4.91172V6.91172C89.1817 6.91172 89.3639 7.02211 89.4968 7.18705L91.0543 5.93239ZM88.8175 4.91172C87.9337 4.91172 87.1439 5.23333 86.5808 5.93239L88.1383 7.18705C88.2711 7.02211 88.4533 6.91172 88.8175 6.91172V4.91172ZM86.5808 5.93239C86.0539 6.58636 85.8375 7.39762 85.8375 8.26972H87.8375C87.8375 7.72582 87.9691 7.39708 88.1383 7.18705L86.5808 5.93239ZM85.8375 8.26972V8.32372H87.8375V8.26972H85.8375ZM86.8375 9.32372H90.8155V7.32372H86.8375V9.32372ZM95.8582 12.8237L95.089 13.4627L95.8582 12.8237ZM94.8142 9.70972L93.8146 9.74001L93.8149 9.74673L94.8142 9.70972ZM94.7962 9.11572L93.7967 9.08449L93.7957 9.11525L93.7966 9.14601L94.7962 9.11572ZM94.8142 8.53972L95.8137 8.57096L95.8138 8.56828L94.8142 8.53972ZM95.8402 5.46172L95.0719 4.82151L95.0662 4.82848L95.8402 5.46172ZM101.42 5.46172L100.663 6.11534L102.42 8.14956V5.46172H101.42ZM101.546 1.15972L102.197 1.91898L102.226 1.89398L102.253 1.86683L101.546 1.15972ZM103.688 1.15972L102.929 1.81051L102.979 1.86891L103.037 1.91898L103.688 1.15972ZM103.688 13.6877L102.981 12.9806L102.954 13.0078L102.929 13.0369L103.688 13.6877ZM101.528 12.7157H102.528V9.87275L100.748 12.0897L101.528 12.7157ZM100.862 11.4017L101.66 12.0052L100.862 11.4017ZM101.42 9.76372L100.424 9.68067L100.422 9.69445L100.422 9.70825L101.42 9.76372ZM101.42 8.37772L100.421 8.41769L100.422 8.43926L100.424 8.46077L101.42 8.37772ZM100.844 6.84772L100.065 7.47505L100.075 7.48693L100.085 7.49851L100.844 6.84772ZM97.2442 8.59372L96.2456 8.54116L96.2451 8.55078L96.2447 8.56041L97.2442 8.59372ZM97.2262 9.13372L96.2267 9.10041L96.2256 9.13372L96.2267 9.16704L97.2262 9.13372ZM97.2442 9.67372L96.2447 9.70704L96.2451 9.71666L96.2456 9.72628L97.2442 9.67372ZM98.6482 12.9937C97.6693 12.9937 97.0479 12.6909 96.6274 12.1847L95.089 13.4627C95.9645 14.5166 97.203 14.9937 98.6482 14.9937V12.9937ZM96.6274 12.1847C96.1556 11.6168 95.8556 10.8103 95.8135 9.67271L93.8149 9.74673C93.8687 11.2011 94.2648 12.4706 95.089 13.4627L96.6274 12.1847ZM95.8137 9.67943L95.7957 9.08543L93.7966 9.14601L93.8146 9.74001L95.8137 9.67943ZM95.7957 9.14696L95.8137 8.57096L93.8147 8.50849L93.7967 9.08449L95.7957 9.14696ZM95.8138 8.56828C95.845 7.47682 96.136 6.6793 96.6141 6.09496L95.0662 4.82848C94.2483 5.82814 93.8554 7.08262 93.8146 8.51116L95.8138 8.56828ZM96.6084 6.1019C97.0442 5.57891 97.6751 5.27372 98.6482 5.27372V3.27372C97.1973 3.27372 95.9561 3.76054 95.072 4.82154L96.6084 6.1019ZM98.6482 5.27372C99.5582 5.27372 100.192 5.56957 100.663 6.11534L102.177 4.8081C101.28 3.76987 100.066 3.27372 98.6482 3.27372V5.27372ZM102.42 5.46172V1.46572H100.42V5.46172H102.42ZM102.42 1.46572C102.42 1.50519 102.414 1.57993 102.376 1.67097C102.337 1.76645 102.275 1.85252 102.197 1.91898L100.895 0.400463C100.547 0.699394 100.42 1.1038 100.42 1.46572H102.42ZM102.253 1.86683C102.209 1.91093 102.147 1.95686 102.066 1.9899C101.986 2.02285 101.911 2.03372 101.852 2.03372V0.03372C101.47 0.03372 101.113 0.178949 100.839 0.452615L102.253 1.86683ZM101.852 2.03372H103.382V0.03372H101.852V2.03372ZM103.382 2.03372C103.343 2.03372 103.268 2.02738 103.177 1.9899C103.081 1.95058 102.995 1.88804 102.929 1.81051L104.447 0.508932C104.149 0.160176 103.744 0.03372 103.382 0.03372V2.03372ZM103.037 1.91898C102.96 1.85252 102.897 1.76644 102.858 1.67097C102.821 1.57993 102.814 1.50519 102.814 1.46572H104.814C104.814 1.1038 104.688 0.699396 104.339 0.400465L103.037 1.91898ZM102.814 1.46572V13.3817H104.814V1.46572H102.814ZM102.814 13.3817C102.814 13.3227 102.825 13.2475 102.858 13.1675C102.891 13.0872 102.937 13.0247 102.981 12.9806L104.395 14.3948C104.669 14.1212 104.814 13.7639 104.814 13.3817H102.814ZM102.929 13.0369C102.995 12.9594 103.081 12.8969 103.177 12.8575C103.268 12.8201 103.343 12.8137 103.382 12.8137V14.8137C103.744 14.8137 104.149 14.6873 104.447 14.3385L102.929 13.0369ZM103.382 12.8137H101.96V14.8137H103.382V12.8137ZM101.96 12.8137C102.019 12.8137 102.094 12.8246 102.174 12.8575C102.255 12.8906 102.317 12.9365 102.361 12.9806L100.947 14.3948C101.221 14.6685 101.578 14.8137 101.96 14.8137V12.8137ZM102.361 12.9806C102.405 13.0247 102.451 13.0872 102.484 13.1675C102.517 13.2475 102.528 13.3227 102.528 13.3817H100.528C100.528 13.7639 100.673 14.1212 100.947 14.3948L102.361 12.9806ZM102.528 13.3817V12.7157H100.528V13.3817H102.528ZM100.748 12.0897C100.281 12.6723 99.626 12.9937 98.6482 12.9937V14.9937C100.142 14.9937 101.408 14.4632 102.308 13.3418L100.748 12.0897ZM99.3142 13.0677C100.237 13.0677 101.088 12.7608 101.66 12.0052L100.065 10.7983C99.9646 10.9306 99.7837 11.0677 99.3142 11.0677V13.0677ZM101.66 12.0052C102.134 11.3776 102.373 10.6321 102.419 9.81919L100.422 9.70825C100.395 10.1914 100.262 10.5378 100.065 10.7983L101.66 12.0052ZM102.417 9.84677C102.432 9.65801 102.438 9.3881 102.438 9.06172H100.438C100.438 9.38334 100.432 9.58143 100.424 9.68067L102.417 9.84677ZM102.438 9.06172C102.438 8.7461 102.432 8.48287 102.417 8.29467L100.424 8.46077C100.432 8.56057 100.438 8.75334 100.438 9.06172H102.438ZM102.419 8.33775C102.387 7.53345 102.123 6.8027 101.603 6.19693L100.085 7.49851C100.286 7.73274 100.405 8.02199 100.421 8.41769L102.419 8.33775ZM101.623 6.22039C101.045 5.50265 100.218 5.19972 99.3142 5.19972V7.19972C99.7544 7.19972 99.9476 7.32879 100.065 7.47505L101.623 6.22039ZM99.3142 5.19972C98.448 5.19972 97.6458 5.47619 97.0682 6.14416C96.52 6.7782 96.2935 7.62994 96.2456 8.54116L98.2428 8.64628C98.2788 7.9615 98.4394 7.61624 98.5811 7.45228C98.6936 7.32225 98.8844 7.19972 99.3142 7.19972V5.19972ZM96.2447 8.56041L96.2267 9.10041L98.2256 9.16704L98.2436 8.62704L96.2447 8.56041ZM96.2267 9.16704L96.2447 9.70704L98.2436 9.64041L98.2256 9.10041L96.2267 9.16704ZM96.2456 9.72628C96.2935 10.6375 96.52 11.4892 97.0682 12.1233C97.6458 12.7913 98.448 13.0677 99.3142 13.0677V11.0677C98.8844 11.0677 98.6936 10.9452 98.5811 10.8152C98.4394 10.6512 98.2788 10.3059 98.2428 9.62116L96.2456 9.72628Z" fill="black"/>
</g>
<defs>
<filter id="filter0_d" x="0.0109253" y="0.0336914" width="108.803" height="22.96" filterUnits="userSpaceOnUse" color-interpolation-filters="sRGB">
<feFlood flood-opacity="0" result="BackgroundImageFix"/>
<feColorMatrix in="SourceAlpha" type="matrix" values="0 0 0 0 0 0 0 0 0 0 0 0 0 0 0 0 0 0 127 0" result="hardAlpha"/>
<feOffset dy="4"/>
<feGaussianBlur stdDeviation="2"/>
<feComposite in2="hardAlpha" operator="out"/>
<feColorMatrix type="matrix" values="0 0 0 0 0 0 0 0 0 0 0 0 0 0 0 0 0 0 0.25 0"/>
<feBlend mode="normal" in2="BackgroundImageFix" result="effect1_dropShadow"/>
<feBlend mode="normal" in="SourceGraphic" in2="effect1_dropShadow" result="shape"/>
</filter>
</defs>
</svg>
