<svg width="500" height="290" viewBox="0 0 500 290" fill="none" xmlns="http://www.w3.org/2000/svg">
<g opacity="0.05">
<path opacity="0.05" d="M249.961 222.254C326.786 222.254 389.065 186.265 389.065 141.87C389.065 97.4752 326.786 61.4861 249.961 61.4861C173.136 61.4861 110.857 97.4752 110.857 141.87C110.857 186.265 173.136 222.254 249.961 222.254Z" fill="url(#paint0_linear)"/>
<g opacity="0.05">
<path opacity="0.05" d="M1.49073 141.528L0 140.658L242.337 0.623047L243.828 1.4934L1.49073 141.528Z" fill="#91A2FA"/>
<path opacity="0.05" d="M5.76075 143.983L4.27002 143.128L246.607 3.09375L248.098 3.94857L5.76075 143.983Z" fill="#91A2FA"/>
<path opacity="0.05" d="M10.0317 146.455L8.54102 145.6L250.878 5.56567L252.369 6.42047L10.0317 146.455Z" fill="#91A2FA"/>
<path opacity="0.05" d="M14.3018 148.926L12.811 148.071L255.148 8.03662L256.639 8.89144L14.3018 148.926Z" fill="#91A2FA"/>
<path opacity="0.05" d="M18.5723 151.397L17.0815 150.527L259.418 10.4924L260.909 11.3628L18.5723 151.397Z" fill="#91A2FA"/>
<path opacity="0.05" d="M22.8423 153.853L21.3516 152.998L263.688 12.9634L265.179 13.8182L22.8423 153.853Z" fill="#91A2FA"/>
<path opacity="0.05" d="M27.1128 156.324L25.6221 155.469L267.959 15.4343L269.434 16.2891L27.1128 156.324Z" fill="#91A2FA"/>
<path opacity="0.05" d="M31.3833 158.795L29.8926 157.94L272.229 17.9058L273.705 18.7606L31.3833 158.795Z" fill="#91A2FA"/>
<path opacity="0.05" d="M35.6533 161.267L34.1626 160.396L276.499 20.3621L277.975 21.2169L35.6533 161.267Z" fill="#91A2FA"/>
<path opacity="0.05" d="M39.9238 163.722L38.4331 162.867L280.77 22.833L282.245 23.6878L39.9238 163.722Z" fill="#91A2FA"/>
<path opacity="0.05" d="M44.1783 166.193L42.7031 165.338L285.04 25.3037L286.515 26.1585L44.1783 166.193Z" fill="#91A2FA"/>
<path opacity="0.05" d="M48.4488 168.664L46.9736 167.81L289.311 27.7751L290.786 28.63L48.4488 168.664Z" fill="#91A2FA"/>
<path opacity="0.05" d="M52.7193 171.12L51.2441 170.265L293.581 30.2305L295.056 31.0853L52.7193 171.12Z" fill="#91A2FA"/>
<path opacity="0.05" d="M56.9898 173.591L55.5146 172.736L297.852 32.7019L299.327 33.5567L56.9898 173.591Z" fill="#91A2FA"/>
<path opacity="0.05" d="M61.2599 176.062L59.7847 175.207L302.122 35.1729L303.597 36.0277L61.2599 176.062Z" fill="#91A2FA"/>
<path opacity="0.05" d="M65.5308 178.533L64.04 177.679L306.377 37.6287L307.868 38.499L65.5308 178.533Z" fill="#91A2FA"/>
<path opacity="0.05" d="M69.8008 181.005L68.3101 180.135L310.647 40.1001L312.138 40.9549L69.8008 181.005Z" fill="#91A2FA"/>
<path opacity="0.05" d="M74.0713 183.461L72.5806 182.606L314.917 42.5715L316.408 43.4264L74.0713 183.461Z" fill="#91A2FA"/>
<path opacity="0.05" d="M78.3413 185.932L76.8506 185.077L319.187 45.0425L320.678 45.8973L78.3413 185.932Z" fill="#91A2FA"/>
<path opacity="0.05" d="M82.6118 188.403L81.1211 187.533L323.458 47.498L324.949 48.3684L82.6118 188.403Z" fill="#91A2FA"/>
<path opacity="0.05" d="M86.8823 190.858L85.3916 190.003L327.728 49.969L329.219 50.8238L86.8823 190.858Z" fill="#91A2FA"/>
<path opacity="0.05" d="M91.1524 193.33L89.6616 192.475L331.998 52.4404L333.489 53.2953L91.1524 193.33Z" fill="#91A2FA"/>
<path opacity="0.05" d="M95.4229 195.801L93.9321 194.946L336.269 54.9119L337.76 55.7667L95.4229 195.801Z" fill="#91A2FA"/>
<path opacity="0.05" d="M99.6929 198.272L98.2021 197.417L340.539 57.3672L342.03 58.2375L99.6929 198.272Z" fill="#91A2FA"/>
<path opacity="0.05" d="M103.963 200.727L102.473 199.873L344.81 59.8381L346.3 60.693L103.963 200.727Z" fill="#91A2FA"/>
<path opacity="0.05" d="M108.234 203.198L106.743 202.344L349.08 62.3091L350.555 63.1639L108.234 203.198Z" fill="#91A2FA"/>
<path opacity="0.05" d="M112.504 205.67L111.014 204.815L353.351 64.7805L354.826 65.6353L112.504 205.67Z" fill="#91A2FA"/>
<path opacity="0.05" d="M116.759 208.141L115.284 207.271L357.621 67.2363L359.096 68.1067L116.759 208.141Z" fill="#91A2FA"/>
<path opacity="0.05" d="M121.029 210.597L119.554 209.742L361.891 69.7075L363.366 70.5623L121.029 210.597Z" fill="#91A2FA"/>
<path opacity="0.05" d="M125.299 213.068L123.824 212.213L366.161 72.1785L367.636 73.0333L125.299 213.068Z" fill="#91A2FA"/>
<path opacity="0.05" d="M129.57 215.539L128.095 214.684L370.432 74.6494L371.907 75.5042L129.57 215.539Z" fill="#91A2FA"/>
<path opacity="0.05" d="M133.84 218.01L132.365 217.14L374.702 77.1057L376.177 77.9605L133.84 218.01Z" fill="#91A2FA"/>
<path opacity="0.05" d="M138.11 220.466L136.635 219.611L378.957 79.5767L380.447 80.4315L138.11 220.466Z" fill="#91A2FA"/>
<path opacity="0.05" d="M142.38 222.937L140.905 222.083L383.242 82.0481L384.717 82.9029L142.38 222.937Z" fill="#91A2FA"/>
<path opacity="0.05" d="M146.651 225.409L145.176 224.554L387.497 84.5039L388.988 85.3743L146.651 225.409Z" fill="#91A2FA"/>
<path opacity="0.05" d="M150.921 227.88L149.446 227.009L391.768 86.9749L393.258 87.8452L150.921 227.88Z" fill="#91A2FA"/>
<path opacity="0.05" d="M155.192 230.335L153.701 229.48L396.038 89.4458L397.529 90.3006L155.192 230.335Z" fill="#91A2FA"/>
<path opacity="0.05" d="M159.462 232.807L157.972 231.952L400.309 91.9177L401.799 92.7725L159.462 232.807Z" fill="#91A2FA"/>
<path opacity="0.05" d="M163.733 235.278L162.242 234.423L404.579 94.3728L406.07 95.2432L163.733 235.278Z" fill="#91A2FA"/>
<path opacity="0.05" d="M168.002 237.749L166.512 236.879L408.849 96.8442L410.339 97.7146L168.002 237.749Z" fill="#91A2FA"/>
<path opacity="0.05" d="M172.273 240.204L170.782 239.35L413.119 99.3152L414.61 100.17L172.273 240.204Z" fill="#91A2FA"/>
<path opacity="0.05" d="M176.544 242.675L175.054 241.821L417.391 101.786L418.881 102.641L176.544 242.675Z" fill="#91A2FA"/>
<path opacity="0.05" d="M180.814 245.147L179.323 244.293L421.66 104.258L423.151 105.113L180.814 245.147Z" fill="#91A2FA"/>
<path opacity="0.05" d="M185.084 247.619L183.594 246.748L425.931 106.714L427.421 107.569L185.084 247.619Z" fill="#91A2FA"/>
<path opacity="0.05" d="M189.355 250.074L187.864 249.219L430.201 109.185L431.692 110.04L189.355 250.074Z" fill="#91A2FA"/>
<path opacity="0.05" d="M193.626 252.545L192.135 251.69L434.472 111.656L435.962 112.511L193.626 252.545Z" fill="#91A2FA"/>
<path opacity="0.05" d="M197.895 255.016L196.404 254.161L438.741 114.111L440.232 114.982L197.895 255.016Z" fill="#91A2FA"/>
<path opacity="0.05" d="M202.166 257.472L200.675 256.617L443.012 116.582L444.487 117.437L202.166 257.472Z" fill="#91A2FA"/>
<path opacity="0.05" d="M206.436 259.943L204.945 259.089L447.282 119.054L448.757 119.909L206.436 259.943Z" fill="#91A2FA"/>
<path opacity="0.05" d="M210.69 262.414L209.215 261.56L451.552 121.525L453.027 122.38L210.69 262.414Z" fill="#91A2FA"/>
<path opacity="0.05" d="M214.961 264.886L213.485 264.031L455.822 123.981L457.297 124.851L214.961 264.886Z" fill="#91A2FA"/>
<path opacity="0.05" d="M219.232 267.341L217.757 266.486L460.094 126.452L461.569 127.307L219.232 267.341Z" fill="#91A2FA"/>
<path opacity="0.05" d="M223.503 269.812L222.027 268.957L464.364 128.923L465.839 129.778L223.503 269.812Z" fill="#91A2FA"/>
<path opacity="0.05" d="M227.772 272.284L226.297 271.429L468.634 131.395L470.109 132.25L227.772 272.284Z" fill="#91A2FA"/>
<path opacity="0.05" d="M232.042 274.755L230.551 273.885L472.888 133.851L474.378 134.721L232.042 274.755Z" fill="#91A2FA"/>
<path opacity="0.05" d="M236.312 277.211L234.821 276.356L477.158 136.321L478.649 137.176L236.312 277.211Z" fill="#91A2FA"/>
<path opacity="0.05" d="M240.583 279.681L239.092 278.827L481.429 138.792L482.919 139.647L240.583 279.681Z" fill="#91A2FA"/>
<path opacity="0.05" d="M244.852 282.153L243.361 281.298L485.698 141.264L487.189 142.118L244.852 282.153Z" fill="#91A2FA"/>
<path opacity="0.05" d="M249.123 284.623L247.632 283.753L489.969 143.719L491.459 144.589L249.123 284.623Z" fill="#91A2FA"/>
<path opacity="0.05" d="M253.393 287.08L251.902 286.225L494.239 146.191L495.73 147.046L253.393 287.08Z" fill="#91A2FA"/>
<path opacity="0.05" d="M257.663 289.551L256.172 288.696L498.509 148.662L499.999 149.517L257.663 289.551Z" fill="#91A2FA"/>
</g>
</g>
<defs>
<linearGradient id="paint0_linear" x1="225.442" y1="19.2271" x2="303.293" y2="407.925" gradientUnits="userSpaceOnUse">
<stop stop-color="#42E8E0"/>
<stop offset="0.02" stop-color="#40DDDA"/>
<stop offset="0.09" stop-color="#3AAEC0"/>
<stop offset="0.17" stop-color="#3484A9"/>
<stop offset="0.26" stop-color="#2F6195"/>
<stop offset="0.35" stop-color="#2B4486"/>
<stop offset="0.44" stop-color="#282E79"/>
<stop offset="0.54" stop-color="#261E71"/>
<stop offset="0.66" stop-color="#24156C"/>
<stop offset="0.82" stop-color="#24126A"/>
</linearGradient>
</defs>
</svg>
