<svg width="707" height="240" viewBox="0 0 707 240" fill="none" xmlns="http://www.w3.org/2000/svg">
<g opacity="0.1">
<rect x="59.6304" width="1.96296" height="240" fill="#B9C1D9"/>
<rect x="132.261" width="1.96296" height="240" fill="#B9C1D9"/>
<rect x="250.888" width="1.96296" height="240" fill="#B9C1D9"/>
<rect x="323.52" width="1.96296" height="240" fill="#B9C1D9"/>
<rect x="396.149" width="1.96296" height="240" fill="#B9C1D9"/>
<rect x="513.78" width="1.96296" height="240" fill="#B9C1D9"/>
<rect x="586.408" width="1.96296" height="240" fill="#B9C1D9"/>
<rect x="568.035" y="238.709" width="1.29034" height="579.074" transform="rotate(90 568.035 238.709)" fill="#B9C1D9"/>
<rect x="568.035" y="190.967" width="1.29034" height="579.074" transform="rotate(90 568.035 190.967)" fill="#B9C1D9"/>
<rect x="568.035" y="143.226" width="1.29034" height="579.074" transform="rotate(90 568.035 143.226)" fill="#B9C1D9"/>
<rect x="568.035" y="95.4845" width="1.29034" height="579.074" transform="rotate(90 568.035 95.4845)" fill="#B9C1D9"/>
<rect x="568.035" y="48.0001" width="1.29034" height="579.074" transform="rotate(90 568.035 48.0001)" fill="#B9C1D9"/>
<rect x="568.036" width="1.29034" height="579.074" transform="rotate(90 568.036 0)" fill="#B9C1D9"/>
<rect x="705.036" width="1.96296" height="240" fill="#B9C1D9"/>
</g>
</svg>
