<svg width="8" height="8" viewBox="0 0 8 8" fill="none" xmlns="http://www.w3.org/2000/svg">
<path fill-rule="evenodd" clip-rule="evenodd" d="M7.39756 0.299208C7.66174 0.563386 7.66174 0.991704 7.39756 1.25588L4.98841 3.66504L7.39756 6.07419C7.66174 6.33837 7.66174 6.76669 7.39756 7.03086C7.13339 7.29504 6.70507 7.29504 6.44089 7.03086L4.03174 4.62171L1.62258 7.03086C1.3584 7.29504 0.930085 7.29504 0.665907 7.03086C0.401729 6.76669 0.401729 6.33837 0.665907 6.07419L3.07506 3.66504L0.665908 1.25588C0.40173 0.991704 0.401729 0.563386 0.665907 0.299208C0.930085 0.0350298 1.3584 0.0350296 1.62258 0.299208L4.03174 2.70836L6.44089 0.299208C6.70507 0.0350296 7.13339 0.0350298 7.39756 0.299208Z" fill="black"/>
</svg>
