<svg width="249" height="24" viewBox="0 0 249 24" fill="none" xmlns="http://www.w3.org/2000/svg">
<path d="M15.12 5.32003H17V2.14003C16.0897 2.04538 15.1751 1.99865 14.26 2.00003C11.54 2.00003 9.67999 3.66003 9.67999 6.70003V9.32003H6.60999V12.88H9.67999V22H13.36V12.88H16.42L16.88 9.32003H13.36V7.05003C13.36 6.00003 13.64 5.32003 15.12 5.32003Z" fill="white"/>
<path d="M73.34 5.46C73.1027 5.46 72.8707 5.53038 72.6733 5.66224C72.476 5.79409 72.3222 5.98151 72.2313 6.20078C72.1405 6.42005 72.1168 6.66133 72.1631 6.89411C72.2094 7.12689 72.3236 7.34071 72.4915 7.50853C72.6593 7.67635 72.8731 7.79064 73.1059 7.83694C73.3387 7.88324 73.5799 7.85948 73.7992 7.76866C74.0185 7.67783 74.2059 7.52402 74.3378 7.32668C74.4696 7.12935 74.54 6.89734 74.54 6.66C74.54 6.34174 74.4136 6.03652 74.1885 5.81147C73.9635 5.58643 73.6583 5.46 73.34 5.46ZM77.94 7.88C77.9206 7.0503 77.7652 6.2294 77.48 5.45C77.2257 4.78313 76.83 4.17928 76.32 3.68C75.8248 3.16743 75.2196 2.77418 74.55 2.53C73.7727 2.23616 72.9508 2.07721 72.12 2.06C71.06 2 70.72 2 68 2C65.28 2 64.94 2 63.88 2.06C63.0492 2.07721 62.2273 2.23616 61.45 2.53C60.7817 2.77665 60.1769 3.16956 59.68 3.68C59.1674 4.17518 58.7742 4.78044 58.53 5.45C58.2362 6.22734 58.0772 7.04915 58.06 7.88C58 8.94 58 9.28 58 12C58 14.72 58 15.06 58.06 16.12C58.0772 16.9508 58.2362 17.7727 58.53 18.55C58.7742 19.2196 59.1674 19.8248 59.68 20.32C60.1769 20.8304 60.7817 21.2234 61.45 21.47C62.2273 21.7638 63.0492 21.9228 63.88 21.94C64.94 22 65.28 22 68 22C70.72 22 71.06 22 72.12 21.94C72.9508 21.9228 73.7727 21.7638 74.55 21.47C75.2196 21.2258 75.8248 20.8326 76.32 20.32C76.8322 19.8226 77.2283 19.2182 77.48 18.55C77.7652 17.7706 77.9206 16.9497 77.94 16.12C77.94 15.06 78 14.72 78 12C78 9.28 78 8.94 77.94 7.88ZM76.14 16C76.1327 16.6348 76.0178 17.2637 75.8 17.86C75.6403 18.2952 75.3839 18.6884 75.05 19.01C74.7256 19.3405 74.3332 19.5964 73.9 19.76C73.3037 19.9778 72.6748 20.0927 72.04 20.1C71.04 20.15 70.67 20.16 68.04 20.16C65.41 20.16 65.04 20.16 64.04 20.1C63.3809 20.1123 62.7246 20.0109 62.1 19.8C61.6858 19.6281 61.3114 19.3728 61 19.05C60.6681 18.7287 60.4148 18.3352 60.26 17.9C60.0159 17.2952 59.8804 16.6519 59.86 16C59.86 15 59.8 14.63 59.8 12C59.8 9.37 59.8 9 59.86 8C59.8645 7.35106 59.983 6.70795 60.21 6.1C60.386 5.67791 60.6563 5.30166 61 5C61.3038 4.65617 61.6793 4.3831 62.1 4.2C62.7096 3.98004 63.352 3.86508 64 3.86C65 3.86 65.37 3.8 68 3.8C70.63 3.8 71 3.8 72 3.86C72.6348 3.86728 73.2637 3.98225 73.86 4.2C74.3144 4.36865 74.7223 4.64285 75.05 5C75.3777 5.30718 75.6338 5.68273 75.8 6.1C76.0223 6.70893 76.1373 7.35178 76.14 8C76.19 9 76.2 9.37 76.2 12C76.2 14.63 76.19 15 76.14 16ZM68 6.87C66.9858 6.87198 65.995 7.17453 65.1527 7.73942C64.3103 8.30431 63.6544 9.1062 63.2676 10.0438C62.8809 10.9813 62.7807 12.0125 62.9798 13.0069C63.1789 14.0014 63.6682 14.9145 64.3861 15.631C65.1039 16.3474 66.018 16.835 67.0129 17.0321C68.0077 17.2293 69.0387 17.1271 69.9755 16.7385C70.9123 16.35 71.7129 15.6924 72.2761 14.849C72.8394 14.0056 73.14 13.0142 73.14 12C73.1413 11.3251 73.0092 10.6566 72.7512 10.033C72.4933 9.40931 72.1146 8.84281 71.6369 8.36605C71.1592 7.88929 70.5919 7.51168 69.9678 7.25493C69.3436 6.99818 68.6749 6.86736 68 6.87ZM68 15.33C67.3414 15.33 66.6976 15.1347 66.15 14.7688C65.6023 14.4029 65.1755 13.8828 64.9235 13.2743C64.6714 12.6659 64.6055 11.9963 64.734 11.3503C64.8625 10.7044 65.1796 10.111 65.6453 9.64533C66.111 9.17963 66.7044 8.86247 67.3503 8.73398C67.9963 8.6055 68.6659 8.67144 69.2743 8.92348C69.8828 9.17552 70.4029 9.60234 70.7688 10.15C71.1347 10.6976 71.33 11.3414 71.33 12C71.33 12.4373 71.2439 12.8703 71.0765 13.2743C70.9092 13.6784 70.6639 14.0454 70.3547 14.3547C70.0454 14.6639 69.6784 14.9092 69.2743 15.0765C68.8703 15.2439 68.4373 15.33 68 15.33Z" fill="white"/>
<path d="M136 9.70998C136.049 8.27864 135.736 6.858 135.09 5.57998C134.651 5.05558 134.043 4.70169 133.37 4.57998C130.588 4.32751 127.794 4.22403 125 4.26998C122.217 4.22194 119.433 4.32208 116.66 4.56998C116.112 4.6697 115.605 4.92683 115.2 5.30998C114.3 6.13998 114.2 7.55998 114.1 8.75998C113.955 10.9175 113.955 13.0824 114.1 15.24C114.129 15.9154 114.229 16.5858 114.4 17.24C114.521 17.745 114.765 18.2123 115.11 18.6C115.517 19.0034 116.036 19.2752 116.6 19.38C118.756 19.6461 120.928 19.7564 123.1 19.71C126.6 19.76 129.67 19.71 133.3 19.43C133.877 19.3316 134.411 19.0595 134.83 18.65C135.11 18.3699 135.319 18.0271 135.44 17.65C135.798 16.5526 135.973 15.4041 135.96 14.25C136 13.69 136 10.31 136 9.70998ZM122.74 14.85V8.65998L128.66 11.77C127 12.69 124.81 13.73 122.74 14.85Z" fill="white"/>
<path d="M191 5.79997C190.248 6.12606 189.453 6.34163 188.64 6.43997C189.498 5.92729 190.141 5.12075 190.45 4.16997C189.644 4.65003 188.761 4.98826 187.84 5.16997C187.225 4.50254 186.405 4.05826 185.51 3.90682C184.615 3.75537 183.695 3.90532 182.894 4.33315C182.093 4.76099 181.457 5.4425 181.085 6.2708C180.714 7.09911 180.627 8.02736 180.84 8.90997C179.209 8.82749 177.614 8.40292 176.159 7.66383C174.703 6.92474 173.419 5.88766 172.39 4.61997C172.029 5.25013 171.84 5.96379 171.84 6.68997C171.839 7.36435 172.004 8.02858 172.322 8.62353C172.639 9.21848 173.099 9.72568 173.66 10.1C173.008 10.0822 172.37 9.90726 171.8 9.58997V9.63997C171.805 10.5849 172.136 11.4991 172.737 12.2279C173.339 12.9568 174.173 13.4556 175.1 13.64C174.743 13.7485 174.373 13.8058 174 13.81C173.742 13.807 173.484 13.7835 173.23 13.74C173.494 14.5528 174.005 15.2631 174.691 15.7721C175.378 16.2811 176.206 16.5635 177.06 16.58C175.617 17.7152 173.836 18.3348 172 18.34C171.666 18.3411 171.332 18.321 171 18.28C172.874 19.4902 175.059 20.1327 177.29 20.13C178.83 20.146 180.357 19.855 181.783 19.274C183.209 18.6931 184.505 17.8338 185.595 16.7465C186.685 15.6591 187.548 14.3654 188.133 12.9409C188.717 11.5164 189.012 9.98969 189 8.44997C189 8.27996 189 8.09997 189 7.91997C189.785 7.33478 190.461 6.61739 191 5.79997Z" fill="white"/>
<path d="M245.47 1.9999H228.53C228.34 1.99725 228.15 2.03214 227.974 2.10258C227.797 2.17302 227.635 2.27762 227.499 2.41041C227.362 2.5432 227.253 2.70158 227.178 2.87651C227.103 3.05143 227.063 3.23947 227.06 3.4299V20.5699C227.063 20.7603 227.103 20.9484 227.178 21.1233C227.253 21.2982 227.362 21.4566 227.499 21.5894C227.635 21.7222 227.797 21.8268 227.974 21.8972C228.15 21.9676 228.34 22.0025 228.53 21.9999H245.47C245.66 22.0025 245.849 21.9676 246.026 21.8972C246.203 21.8268 246.365 21.7222 246.501 21.5894C246.638 21.4566 246.747 21.2982 246.822 21.1233C246.897 20.9484 246.937 20.7603 246.94 20.5699V3.4299C246.937 3.23947 246.897 3.05143 246.822 2.87651C246.747 2.70158 246.638 2.5432 246.501 2.41041C246.365 2.27762 246.203 2.17302 246.026 2.10258C245.849 2.03214 245.66 1.99725 245.47 1.9999ZM233.09 18.7399H230.09V9.7399H233.09V18.7399ZM231.59 8.4799C231.176 8.4799 230.779 8.31554 230.487 8.02298C230.194 7.73043 230.03 7.33363 230.03 6.9199C230.03 6.50616 230.194 6.10937 230.487 5.81681C230.779 5.52425 231.176 5.3599 231.59 5.3599C231.81 5.33498 232.032 5.35675 232.243 5.42378C232.454 5.49081 232.648 5.60159 232.813 5.74886C232.978 5.89613 233.11 6.07657 233.2 6.27838C233.29 6.48018 233.337 6.69879 233.337 6.9199C233.337 7.141 233.29 7.35961 233.2 7.56141C233.11 7.76322 232.978 7.94366 232.813 8.09093C232.648 8.23821 232.454 8.34898 232.243 8.41601C232.032 8.48304 231.81 8.50481 231.59 8.4799ZM243.91 18.7399H240.91V13.9099C240.91 12.6999 240.48 11.9099 239.39 11.9099C239.053 11.9124 238.724 12.0182 238.449 12.2131C238.173 12.408 237.964 12.6826 237.85 12.9999C237.772 13.2349 237.738 13.4825 237.75 13.7299V18.7299H234.75C234.75 18.7299 234.75 10.5499 234.75 9.7299H237.75V10.9999C238.023 10.527 238.419 10.1374 238.896 9.8731C239.374 9.60878 239.915 9.47975 240.46 9.4999C242.46 9.4999 243.91 10.7899 243.91 13.5599V18.7399Z" fill="white"/>
</svg>
