<svg width="46" height="28" viewBox="0 0 46 28" fill="none" xmlns="http://www.w3.org/2000/svg">
<path d="M22.8873 27.2261C17.4037 27.3402 11.9825 26.0452 7.14141 23.4649C2.76239 20.9471 0.355469 17.5278 0.355469 13.8599C0.355469 10.192 2.76239 6.78825 7.14141 4.25489C15.8218 -0.749676 29.9527 -0.749676 38.6486 4.25489C43.0121 6.78825 45.419 10.2075 45.419 13.8599C45.419 17.5123 43.0121 20.9471 38.6486 23.4649C33.8019 26.0452 28.3757 27.3401 22.8873 27.2261ZM22.8873 2.20332C17.7022 2.10781 12.578 3.33253 7.99546 5.76247C4.19099 7.96945 2.09467 10.8447 2.09467 13.8599C2.09467 16.8751 4.19101 19.7659 8.011 21.9729C16.21 26.7132 29.5645 26.7132 37.779 21.9729C41.5835 19.7659 43.6954 16.8906 43.6954 13.8599C43.6954 10.8292 41.5835 7.96945 37.779 5.76247C33.1972 3.3306 28.0725 2.10576 22.8873 2.20332Z" fill="#91A2FA"/>
</svg>
