<svg width="312" height="166" viewBox="0 0 312 166" fill="none" xmlns="http://www.w3.org/2000/svg">
<path opacity="0.48" d="M309.165 54.8383C308.948 54.2788 308.715 53.7193 308.466 53.1598V39.9335H300.236V38.9854C298.086 36.0976 295.752 33.3513 293.249 30.7636V39.9335H288.59V26.2098C286.406 24.2204 284.066 22.2724 281.571 20.3659V39.9646H276.913V16.8845C274.661 15.3303 272.254 13.7761 269.863 12.3151V39.8868H265.204V9.57971C262.906 8.28453 260.551 7.04115 258.139 5.84959V39.8868H253.48V3.68923C251.151 2.65309 248.791 1.61695 246.399 0.580811V39.8868H241.741V8.10321H234.644V39.9335H229.986V16.8845H222.858V39.9801H218.2V25.6192H211.057V39.9801H206.491V34.3694H199.395V39.9801H112.653V34.3694H105.479V39.9801H100.913V25.6192H93.8013V39.9801H89.1427V16.8845H82.0152V39.9801H77.3566V8.10321H70.2601V39.9335H65.6016V0.596368C63.2102 1.57034 60.8499 2.60648 58.5206 3.70479V39.9801H53.8621V5.86514C51.4552 7.06189 49.0949 8.28971 46.7967 9.57971V39.9335H42.1381V12.3151C39.6846 13.7864 37.3347 15.3044 35.0882 16.869V39.9335H30.4297V20.2882C27.9296 22.1844 25.6003 24.1427 23.4108 26.1321V39.9335H18.7523V30.6082C16.2582 33.1986 13.9246 35.9391 11.7645 38.8144V39.8557H3.53443V52.0563H0.0405273V85.7982C1.40267 92.0983 3.75608 98.1418 7.01279 103.703V82.6743H11.7645V110.914C13.9161 113.791 16.2502 116.527 18.7523 119.105V82.6743H23.4108V123.674C25.6003 125.648 27.9451 127.607 30.4297 129.503V82.6743H35.0882V132.922C37.345 134.476 39.695 135.999 42.1381 137.491V82.6743H46.7967V140.18C49.0949 141.455 51.45 142.693 53.8621 143.895V82.6743H58.5206V146.133C60.8499 147.169 63.2102 148.205 65.6016 149.241V82.7209H70.2601V151.106C72.5894 151.992 74.9187 152.831 77.3566 153.64V82.6743H82.0152V155.007C84.3755 155.738 86.6737 156.422 89.1427 157.074V82.6743H93.8013V158.318C96.1616 158.893 98.5374 159.452 100.944 159.965V82.7209H105.51V160.913C107.886 161.38 110.277 161.799 112.684 162.203V82.6743H117.234V162.856C119.61 163.214 122.016 163.524 124.423 163.82V82.6743H128.942V164.317C131.334 164.55 133.74 164.752 136.163 164.939V82.6743H140.651V165.234C143.073 165.358 145.48 165.467 147.902 165.545V82.6743H152.375V165.638C154.818 165.638 157.256 165.638 159.688 165.638V82.6743H164.161V165.545C166.583 165.545 168.99 165.358 171.412 165.234V82.6743H175.9V164.939C178.323 164.752 180.729 164.55 183.121 164.301V82.6743H187.64V163.804C190.047 163.524 192.453 163.198 194.829 162.856V82.6743H199.395V162.141C201.802 161.753 204.193 161.317 206.569 160.851V82.6743H211.134V159.872C213.541 159.344 215.917 158.8 218.277 158.209V82.6743H222.936V157.059C225.327 156.406 227.703 155.707 230.063 154.992V82.6743H234.722V153.5C237.113 152.707 239.489 151.945 241.818 150.982V82.6743H246.477V149.163C248.868 148.184 251.229 147.174 253.558 146.055V82.6743H258.216V143.895C260.629 142.693 262.984 141.455 265.282 140.18V82.6743H269.94V137.46C272.394 135.968 274.744 134.44 276.99 132.875V82.6743H281.649V129.456C284.133 127.539 286.473 125.591 288.668 123.612V82.6743H293.326V119.058C295.833 116.474 298.167 113.728 300.314 110.837V82.6743H304.988V103.641C308.271 98.0311 310.625 91.9271 311.96 85.5651V54.8539L309.165 54.8383Z" fill="url(#paint0_linear)"/>
<defs>
<linearGradient id="paint0_linear" x1="22027.8" y1="44833.4" x2="84683.2" y2="44833.4" gradientUnits="userSpaceOnUse">
<stop stop-color="#42E8E0"/>
<stop offset="0.15" stop-color="#43E3E0"/>
<stop offset="0.33" stop-color="#45D5DF"/>
<stop offset="0.52" stop-color="#49BDDD"/>
<stop offset="0.72" stop-color="#4E9CDB"/>
<stop offset="0.93" stop-color="#5472D8"/>
<stop offset="1" stop-color="#5761D7"/>
</linearGradient>
</defs>
</svg>
