<svg width="190" height="109" viewBox="0 0 190 109" fill="none" xmlns="http://www.w3.org/2000/svg">
<path d="M145.96 29.8508C137.677 29.116 129.343 30.5124 121.751 33.9073C131.068 26.1363 128.92 18.1942 115.307 10.0812L114.297 9.49064C109.882 6.858 105.142 4.81498 100.198 3.41366C95.5182 2.04857 90.6762 1.3219 85.8027 1.25331C81.1496 1.28327 76.5181 1.88883 72.0134 3.0562C69.4978 3.69861 67.0961 4.41355 64.8082 5.20102L56.0502 0.134277L43.1616 7.57896L50.3668 11.7598C49.0935 12.4436 47.8046 13.1586 46.4847 13.9201L41.8261 16.6556L34.6831 12.5213L21.7945 19.966L28.9375 24.1002L20.0397 29.2447L16.5614 31.2651L15.6141 31.7936L0.831055 40.3417L13.7197 47.8019L28.5027 39.2538L121.394 92.9673L106.595 101.516L119.484 108.96L134.282 100.412L138.708 97.8631L147.606 92.7187L154.873 96.9151L167.762 89.4704L163.103 86.8127L160.448 85.2585L169.004 80.316L176.271 84.5124L189.16 77.0677L184.501 74.4101L180.806 72.2652C185.883 67.8357 188.57 63.3596 188.912 58.8524C189.284 52.1175 183.694 45.3826 172.141 38.6476L171.364 38.1814C163.589 33.6171 154.926 30.7762 145.96 29.8508ZM59.4354 26.8356L63.5815 24.4266C73.851 18.4999 83.6856 18.2408 93.0855 23.6495C98.5826 26.7579 101.564 29.7265 102.076 32.3531C102.589 34.9797 100.011 37.9327 94.3123 41.1965L89.2966 44.0874L59.4354 26.8356ZM142.233 74.6742L106.564 54.1121L111.72 51.128C116.621 48.0203 122.316 46.4007 128.118 46.4653C133.232 46.714 139.133 48.7863 145.82 52.6822C151.783 56.1325 155.003 59.3186 155.479 62.2406C155.96 65.1625 153.351 68.2709 147.715 71.5658L142.233 74.6742Z" fill="url(#paint0_linear)"/>
<defs>
<linearGradient id="paint0_linear" x1="19814.9" y1="28118.6" x2="42670.5" y2="28118.6" gradientUnits="userSpaceOnUse">
<stop stop-color="#2B237C"/>
<stop offset="1" stop-color="#180D5B"/>
</linearGradient>
</defs>
</svg>
