<svg width="190" height="110" viewBox="0 0 190 110" fill="none" xmlns="http://www.w3.org/2000/svg">
<path d="M145.96 30.3913C137.677 29.6566 129.343 31.0529 121.751 34.4478C131.068 26.6768 128.92 18.7296 115.307 10.6062L114.297 10.0312C109.882 7.39852 105.142 5.35551 100.198 3.95419C95.5199 2.58159 90.6769 1.85476 85.8027 1.79384C81.1496 1.82379 76.5181 2.42935 72.0135 3.59673C69.4978 4.22878 67.0961 4.9437 64.8083 5.74153L56.0502 0.674805L43.1616 8.11947L50.3668 12.3003C49.0935 12.9842 47.8046 13.6991 46.4847 14.4607L41.8261 17.1961L34.6831 13.0619L21.7945 20.5065L28.9375 24.6407L20.0397 29.7852L16.5614 31.7901L15.6141 32.3341L0.831055 40.8822L13.7197 48.3425L28.5027 39.7943L121.472 93.5079L106.673 102.056L119.562 109.501L134.36 100.953L138.786 98.4036L147.684 93.2592L154.951 97.4556L167.839 90.0109L163.181 87.3532L160.526 85.799L169.082 80.8566L176.349 85.0529L189.238 77.6083L184.579 74.9506L180.883 72.8057C185.961 68.3762 188.648 63.9001 188.989 59.3929C189.362 52.658 183.772 45.9231 172.218 39.1882L171.442 38.7375C163.648 34.1504 154.956 31.3034 145.96 30.3913ZM59.4354 27.3762L63.5815 24.9671C73.851 19.0404 83.6857 18.7814 93.0855 24.19C98.5826 27.2985 101.564 30.267 102.077 32.8936C102.589 35.5202 100.011 38.4732 94.3123 41.7371L89.2966 44.6279L59.4354 27.3762ZM142.233 75.2148L106.626 54.6526L111.782 51.6685C116.683 48.5608 122.378 46.9413 128.18 47.0058C133.294 47.2545 139.195 49.3268 145.882 53.2227C151.845 56.673 155.065 59.8592 155.541 62.7811C156.022 65.703 153.414 68.8114 147.777 72.1064L142.233 75.2148Z" fill="url(#paint0_linear)"/>
<defs>
<linearGradient id="paint0_linear" x1="20795.3" y1="26012.2" x2="90559.6" y2="51323.8" gradientUnits="userSpaceOnUse">
<stop stop-color="#654DB3"/>
<stop offset="0.0899" stop-color="#40DDDA"/>
<stop offset="0.09" stop-color="#E9E9FE"/>
<stop offset="0.17" stop-color="#654DB3"/>
<stop offset="0.26" stop-color="#2F6195"/>
<stop offset="0.35" stop-color="#2B4486"/>
<stop offset="0.44" stop-color="#282E79"/>
<stop offset="0.54" stop-color="#261E71"/>
<stop offset="0.66" stop-color="#24156C"/>
<stop offset="0.82" stop-color="#24126A"/>
</linearGradient>
</defs>
</svg>
