<svg width="16" height="12" viewBox="0 0 16 12" fill="none" xmlns="http://www.w3.org/2000/svg">
<path fill-rule="evenodd" clip-rule="evenodd" d="M8.33408 2.57394C10.5588 2.57403 12.6985 3.41173 14.3108 4.91388C14.4323 5.02985 14.6263 5.02839 14.7459 4.9106L15.9065 3.76277C15.9671 3.70302 16.0008 3.6221 16.0003 3.5379C15.9998 3.4537 15.9651 3.37317 15.9038 3.31413C11.6719 -0.66021 4.99557 -0.66021 0.763649 3.31413C0.702347 3.37313 0.667564 3.45363 0.666999 3.53783C0.666434 3.62203 0.700132 3.70298 0.760637 3.76277L1.92159 4.9106C2.04109 5.02856 2.23531 5.03003 2.35665 4.91388C3.96921 3.41163 6.10912 2.57393 8.33408 2.57394ZM8.33247 6.29949C9.5562 6.29942 10.7363 6.75602 11.6434 7.58058C11.766 7.6976 11.9593 7.69507 12.0789 7.57486L13.2395 6.3977C13.3006 6.33596 13.3345 6.25219 13.3336 6.16515C13.3328 6.07811 13.2972 5.99506 13.2348 5.93457C10.4725 3.3552 6.19477 3.3552 3.43249 5.93457C3.37009 5.99506 3.33449 6.07815 3.33367 6.16522C3.33285 6.25229 3.36688 6.33604 3.42813 6.3977L4.58838 7.57486C4.70798 7.69507 4.90125 7.6976 5.02394 7.58058C5.93043 6.75656 7.10955 6.3 8.33247 6.29949ZM10.6669 9.02308C10.6687 9.10854 10.6344 9.19092 10.5721 9.25079L8.55735 11.2419C8.49829 11.3004 8.41776 11.3334 8.33375 11.3334C8.24973 11.3334 8.16921 11.3004 8.11015 11.2419L6.09505 9.25079C6.0328 9.19088 5.99855 9.10847 6.0004 9.02301C6.00224 8.93756 6.04002 8.85664 6.1048 8.79935C7.3915 7.7336 9.27599 7.7336 10.5627 8.79935C10.6274 8.85668 10.6651 8.93763 10.6669 9.02308Z" fill="black"/>
</svg>
