<svg width="16" height="12" viewBox="0 0 16 12" fill="none" xmlns="http://www.w3.org/2000/svg">
<path fill-rule="evenodd" clip-rule="evenodd" d="M8.33408 2.57391C10.5588 2.574 12.6985 3.4117 14.3108 4.91385C14.4323 5.02982 14.6263 5.02836 14.7459 4.91057L15.9065 3.76273C15.9671 3.70299 16.0008 3.62207 16.0003 3.53787C15.9998 3.45367 15.9651 3.37314 15.9038 3.3141C11.6719 -0.660241 4.99557 -0.660241 0.763649 3.3141C0.702347 3.3731 0.667564 3.4536 0.666999 3.5378C0.666434 3.622 0.700132 3.70295 0.760637 3.76273L1.92159 4.91057C2.04109 5.02853 2.23531 5.03 2.35665 4.91385C3.96921 3.4116 6.10912 2.5739 8.33408 2.57391ZM8.33247 6.29946C9.5562 6.29939 10.7363 6.75599 11.6434 7.58055C11.766 7.69757 11.9593 7.69503 12.0789 7.57483L13.2395 6.39767C13.3006 6.33593 13.3345 6.25216 13.3336 6.16512C13.3328 6.07808 13.2972 5.99503 13.2348 5.93454C10.4725 3.35517 6.19477 3.35517 3.43249 5.93454C3.37009 5.99503 3.33449 6.07812 3.33367 6.16519C3.33285 6.25226 3.36688 6.33601 3.42813 6.39767L4.58838 7.57483C4.70798 7.69503 4.90125 7.69757 5.02394 7.58055C5.93043 6.75653 7.10955 6.29997 8.33247 6.29946ZM10.6669 9.02305C10.6687 9.10851 10.6344 9.19089 10.5721 9.25076L8.55735 11.2419C8.49829 11.3004 8.41776 11.3333 8.33375 11.3333C8.24973 11.3333 8.16921 11.3004 8.11015 11.2419L6.09505 9.25076C6.0328 9.19085 5.99855 9.10843 6.0004 9.02298C6.00224 8.93753 6.04002 8.85661 6.1048 8.79932C7.3915 7.73357 9.27599 7.73357 10.5627 8.79932C10.6274 8.85665 10.6651 8.9376 10.6669 9.02305Z" fill="black"/>
</svg>
